/* XPM */
static char * Ink_24b_xpm[] = {
"20 54 5 1",
" 	c None",
".	c #000000",
"+	c #FFFFFF",
"@	c #C0C0C0",
"#	c #808080",
"    ........        ",
"   .+++++++@.       ",
"....+@@@@@@#....    ",
"..#.+@@@@@@#.#...   ",
"..#.+@@@@@@#.#....  ",
"....+@@@@@@#......  ",
".+++++++++++++@...  ",
".+#############...  ",
".+@@@@@@@@@@@@#...  ",
".+@..........@#...  ",
".+@.++++++++.@#...  ",
".+@.+#@.+.#+.@#...  ",
".+@.+.+#.+.+.@#...  ",
".+@.++++++++.@#...  ",
".+@.++.+#@#+.@#...  ",
".+@.+@#+.+.+.@#...  ",
".+@.++++++++.@#...  ",
".+@..........@#...  ",
".+@....@.....@#...  ",
".+@...@@@@...@#...  ",
".+@....@.....@#...  ",
".+@..........@#...  ",
".+@.++++++++.@#..   ",
".+@.++#.+..+.@#..   ",
".+@.+@.+@#++.@#..   ",
".+@.++++++++.@#..   ",
".+@..........@#..   ",
".+@@@@@@@@@@@@#..   ",
".@########@####..   ",
".@########@####..   ",
".@########@####..   ",
".+@@@@@@@#@#.....   ",
".+@@@@@@@#@#.....   ",
".+@@@@@@@#@#.....   ",
".+@@@@@@@#@#.....   ",
".+@@@@@@@###.....   ",
".................   ",
".................   ",
".................   ",
"..................  ",
"..................  ",
"..................  ",
"..................  ",
"################..  ",
".................   ",
"................    ",
"................    ",
"................    ",
"................    ",
"###############.    ",
"................    ",
"................    ",
"................    ",
"................    "};
