/* XPM */
static char * Ink_24c1_xpm[] = {
"20 44 6 1",
" 	c None",
".	c #FFFFFF",
"+	c #00FFFF",
"@	c #FF00FF",
"#	c #FFFF00",
"$	c #808000",
"                    ",
"                    ",
"                    ",
"                    ",
"                    ",
"                    ",
"                    ",
"                    ",
"                    ",
"                    ",
"                    ",
"                    ",
"                    ",
"                    ",
"                    ",
"                    ",
"                    ",
"                    ",
"                    ",
"                    ",
"                    ",
"                    ",
"                    ",
"                    ",
"                    ",
"     ............   ",
"     ............   ",
"     ............   ",
"     ............   ",
"     ............   ",
"     ............   ",
"     ............   ",
"     ............   ",
"     ............   ",
"     ............   ",
"     ............   ",
"     ............   ",
"     ............   ",
"     ............   ",
"     ............   ",
"     ............   ",
"     ............   ",
"     ............   ",
"     ++++@@@@#$#$   "};
