/* XPM */
static char * Inkw_Level_uk_xpm[] = {
"27 49 181 2",
"  	c None",
". 	c #BBBCBF",
"+ 	c #B1B2B5",
"@ 	c #B0B1B4",
"# 	c #B9BABD",
"$ 	c #A0A2A3",
"% 	c #605F60",
"& 	c #A3A4A6",
"* 	c #9C9D9F",
"= 	c #535353",
"- 	c #535453",
"; 	c #545454",
"> 	c #595A59",
", 	c #5A595A",
"' 	c #5A5A5B",
") 	c #5B5B5C",
"! 	c #5C5B5C",
"~ 	c #A2A3A4",
"{ 	c #686869",
"] 	c #EEEEEF",
"^ 	c #ECECED",
"/ 	c #E9E9E9",
"( 	c #E5E5E6",
"_ 	c #E1E1E2",
": 	c #DDDDDE",
"< 	c #DADAD9",
"[ 	c #DDDDDD",
"} 	c #E2E2E2",
"| 	c #E8E8E8",
"1 	c #F0EFEF",
"2 	c #FFFFFF",
"3 	c #FEFFFF",
"4 	c #E4E4E4",
"5 	c #E9E9EA",
"6 	c #E6E6E6",
"7 	c #E3E2E2",
"8 	c #E9E8E8",
"9 	c #F0EEEF",
"0 	c #FFFEFF",
"a 	c #B8B9BC",
"b 	c #9FA0A2",
"c 	c #5E5E5F",
"d 	c #E8E9EA",
"e 	c #DAD9D9",
"f 	c #E9E9E8",
"g 	c #FFFEFE",
"h 	c #BABBBE",
"i 	c #DEDDDD",
"j 	c #E9E8E9",
"k 	c #EFEFEF",
"l 	c #FEFDFE",
"m 	c #FEFEFE",
"n 	c #69696A",
"o 	c #E5E5E5",
"p 	c #D9DAD9",
"q 	c #EFEEEF",
"r 	c #FDFCFC",
"s 	c #FDFDFD",
"t 	c #E5E6E6",
"u 	c #FCFDFD",
"v 	c #E0E0E0",
"w 	c #B7B8BB",
"x 	c #A09FA1",
"y 	c #6A6A6C",
"z 	c #E1E2E2",
"A 	c #DADADA",
"B 	c #E8E9E8",
"C 	c #FBFBFB",
"D 	c #FCFCFC",
"E 	c #9E9FA0",
"F 	c #5C5C5D",
"G 	c #ECECEC",
"H 	c #E1E1E1",
"I 	c #DAD9DA",
"J 	c #FBFAFA",
"K 	c #FAFAFB",
"L 	c #B9BBBE",
"M 	c #DEDDDE",
"N 	c #F9F9F9",
"O 	c #FAFAFA",
"P 	c #5B5C5C",
"Q 	c #DDDEDD",
"R 	c #F8F9F8",
"S 	c #F9F8F9",
"T 	c #E0DEE0",
"U 	c #6C6C6D",
"V 	c #E6E5E5",
"W 	c #D9DADA",
"X 	c #EFEFEE",
"Y 	c #F7F8F8",
"Z 	c #F8F8F8",
"` 	c #DDDEDE",
" .	c #E2E3E2",
"..	c #F6F6F6",
"+.	c #F7F7F7",
"@.	c #DEDEDE",
"#.	c #B6B7BA",
"$.	c #E9E8EA",
"%.	c #F4F5F4",
"&.	c #DEDEE0",
"*.	c #6D6D6E",
"=.	c #E3E3E2",
"-.	c #E8E8E9",
";.	c #F3F3F3",
">.	c #F5F5F5",
",.	c #59595A",
"'.	c #F2F2F2",
").	c #F4F4F3",
"!.	c #B5B7BA",
"~.	c #595959",
"{.	c #E2E1E2",
"].	c #F1F1F1",
"^.	c #B8B9BB",
"/.	c #6E6E70",
"(.	c #D9D9DA",
"_.	c #F0F0EF",
":.	c #B5B6B9",
"<.	c #575758",
"[.	c #E8E9E9",
"}.	c #9B9C9E",
"|.	c #EEEEEE",
"1.	c #F0F0F0",
"2.	c #565757",
"3.	c #706F71",
"4.	c #B4B5B8",
"5.	c #555656",
"6.	c #DEDEDD",
"7.	c #EDEDED",
"8.	c #EFEFF0",
"9.	c #9A9B9C",
"0.	c #ECEDED",
"a.	c #707072",
"b.	c #555655",
"c.	c #9A9A9B",
"d.	c #727273",
"e.	c #999A9B",
"f.	c #E6E6E8",
"g.	c #B4B5B7",
"h.	c #535354",
"i.	c #B3B4B7",
"j.	c #535454",
"k.	c #E6E5E6",
"l.	c #737375",
"m.	c #E2E1E1",
"n.	c #F1F2F2",
"o.	c #EBEBEB",
"p.	c #525152",
"q.	c #747475",
"r.	c #F3F2F3",
"s.	c #B2B3B6",
"t.	c #98999A",
"u.	c #757476",
"v.	c #D9D9D9",
"w.	c #F4F4F4",
"x.	c #979899",
"y.	c #E2E2E3",
"z.	c #F5F6F5",
"A.	c #97989A",
"B.	c #515050",
"C.	c #B3B5B8",
"D.	c #B1B3B6",
"E.	c #989899",
"F.	c #4F5050",
"G.	c #767778",
"H.	c #FAFAF9",
"I.	c #969798",
"J.	c #F9F9F8",
"K.	c #4F4F4F",
"L.	c #8A8A8B",
"M.	c #79797A",
"N.	c #979798",
"O.	c #959597",
"P.	c #919293",
"Q.	c #888889",
"R.	c #878788",
"S.	c #868686",
"T.	c #838384",
"U.	c #7F7F81",
"V.	c #7D7D7E",
"W.	c #7B7B7C",
"X.	c #4F504F",
"    . . . . . . . . . . . . . . . . . . . . . . .     ",
"  . . + + + + + @ @ @ @ @ @ @ @ @ @ @ @ @ @ @ # $ %   ",
"  . & * = = - ; > > , ' ' ' ' ' ' ) ! ! ! ! ! # $ %   ",
"  . ~ { ] ] ] ^ / ( _ : < < < < [ } | 1 2 3 4 # $ %   ",
"  . ~ { ] ] ] ^ 5 6 _ : < < < < [ 7 8 9 3 0 4 a b c   ",
"  . & { ] ] ] ^ d ( _ : e e e e [ } f 1 g 0 } # b c   ",
"  h ~ { ] ] ] ^ 5 ( _ i < < < < [ } j k l m } a b c   ",
"  h ~ n ] ] ] ^ / o } : p p p p [ } j q r s } a b c   ",
"  h ~ n ] ] ] ^ 5 t _ : < < < < [ } 8 k r u v w x c   ",
"  h ~ y ] ] ] ^ / t z [ A A A A [ } B 1 C D v a E F   ",
"  h ~ y ] ] ] G 5 ( H : I I I I [ 7 8 k J K v w E !   ",
"  L $ y ] ] ] ^ 5 t H M A A A A [ } 8 k N O v w E P   ",
"  # $ y ] ] ] G / t H Q I I I I i } f k R S T w E )   ",
"  # $ U ] ] ] G 5 V _ : W W W W [ 7 8 X Y Z v w E '   ",
"  # $ U ] ] ] ^ 5 ( } ` A A A A i  .8 1 ..+.@.#.* '   ",
"  # b U ] ] ] ^ $.t } Q < < < < [ } | 1 %...&.#.* ,   ",
"  a b *.] ] ] ^ 5 ( _ [ < < < < [ =.-.1 ;.>.&.#.* ,.  ",
"  a b *.] ] ] ^ / ( _ [ p p p p i } f 1 '.).&.!.* ~.  ",
"  a b *.] ] ] ^ / ( {.[ A A A A [ 7 8 X ].;.v #.* ~.  ",
"  ^.b /.] ] ] ^ 5 V _ : (.(.(.(.[ } B 1 _.'.v :.* <.  ",
"  w E /.] ] ] ^ j o {.[ < < < < [ } [.k k ].v :.}.<.  ",
"  w E /.] ] ] ^ 5 ( z ` p p p p [ 7 8 9 |.1.v :.}.2.  ",
"  w E 3.] ] ] ^ 5 t z : < < < < [ } | 1 |.1.v 4.}.5.  ",
"  w E 3.] ] ] ^ 5 ( _ 6.< < < < [ } -.1 7.8.} 4.9.5.  ",
"  #.E 3.] ] ] G 5 o _ : I I I I i } f k 0.k } 4.9.5.  ",
"  #.* a.] ] ] ^ / ( _ : < < < < [ 7 -.X 7.k 4 4.9.b.  ",
"  #.* a.] ] ] ^ 5 ( _ : A A A A [ } 8 1 G k 4 4.c.;   ",
"  #.* d.] ] ] G 5 ( z [ A A A A [ } [.k G 8.6 4.e.;   ",
"  #.* a.] ] ] ^ $.( z [ < < < < Q } 8 k 7.1.f.g.e.h.  ",
"  :.}.d.] ] ] ^ / o _ [ < < < < [ } 8 1 7.1.| i.e.j.  ",
"  #.* d.] ] ] ^ $.k._ Q p p p p i } f 1 |.1.| i.e.=   ",
"  :.}.l.] ] ] ^ 5 o m.: < < < < [ 7 8 k q ]./ i.e.=   ",
"  4.}.l.] ] ] ^ d ( _ [ I I I I [ } 8 X ] n.o.i.e.p.  ",
"  4.}.q.] ] ] ^ / ( _ ` I I I I [ 7 f k k r.>.s.t.p.  ",
"  4.9.u.] ] ] ^ $.( z M v.v.v.v.[ } f q 1.;...s.t.p.  ",
"  4.9.u.] ] ] ^ [.( H [ W W W W i 7 8 k ].w.+.s.t.p.  ",
"  4.9.u.] ] ] ^ / ( } : A A A A [  .8 k '.>.Y s.x.p.  ",
"  4.9.u.] ] ] ^ d ( _ : W W W W [ y.f 1 ;.z.Z s.A.B.  ",
"  C.c.u.] ] ] ^ / ( H [ I I I I [ } -.9 w...N D.E.F.  ",
"  i.e.G.] ] ] ^ 5 ( m.: v.v.v.v.[ 7 / k >.+.H.s.x.F.  ",
"  i.e.G.] ] ] ^ d ( z : < < < < [  .| k >.Z O s.x.F.  ",
"  i.I.G.] ] ] ^ 5 ( _ : A A A A [ } 8 k ..J.C + x.K.  ",
"  i.I.e.] ] ] G 5 o } [ p p p p [ 7 -.k +.N C s.I.K.  ",
"  i.L.x.i.i.i.i.i.i.i.i.i.i.i.i.i.i.i.i.i.i.i.x.L.K.  ",
"  K.M.L.t.A.E.t.x.x.x.x.x.x.x.x.I.I.I.I.I.I.I.L.M.K.  ",
"    K.p.p.B.F.B.K.K.K.K.K.K.K.K.K.K.K.K.K.K.K.K.K.    ",
"        c L.N.O.O.P.P.P.P.P.P.P.P.P.P.P.P.M.F.        ",
"          c Q.R.S.T.T.U.U.U.U.U.V.W.M.M.M.K.          ",
"            p.p.p.= = F.F.F.F.F.X.K.F.F.F.            "};
