/* XPM */
static char * Ink_24b1_xpm[] = {
"20 43 2 1",
" 	c None",
".	c #FFFFFF",
"                    ",
"                    ",
"                    ",
"                    ",
"                    ",
"                    ",
"                    ",
"                    ",
"                    ",
"                    ",
"                    ",
"                    ",
"                    ",
"                    ",
"                    ",
"                    ",
"                    ",
"                    ",
"                    ",
"                    ",
"                    ",
"                    ",
"                    ",
"                    ",
"                    ",
"   ............     ",
"   ............     ",
"   ............     ",
"   ............     ",
"   ............     ",
"   ............     ",
"   ............     ",
"   ............     ",
"   ............     ",
"   ............     ",
"   ............     ",
"   ............     ",
"   ............     ",
"   ............     ",
"   ............     ",
"   ............     ",
"   ............     ",
"   ............     "};
