/* XPM */
static char * Ink_16_Unset_xpm[] = {
"34 51 5 1",
" 	c None",
".	c #ECE9D8",
"+	c #808080",
"@	c #C0C0C0",
"#	c #000000",
".++++++++++++++++++++++++++++++++.",
"+@@@@@@@@@@@@@@@@@@@@@@@@@@@@@@@@+",
"+@#++++++++++++++++++++++++++++#@+",
"+@+#++++++++++++++++++++++++++#+@+",
"+@++##########################++@+",
"+@++#+#+#+#+#+#+#+#+#+#+#+#+##++@+",
"+@++##+#+#+#+#+#+#+#+#+#+#+#+#++@+",
"+@++#+#+#+#+#+#+#+#+#+#+#+#+##++@+",
"+@++##+#+#+#+#+#+#+#+#+#+#+#+#++@+",
"+@++#+#+#+#+#+#+#+#+#+#+#+#+##++@+",
"+@++##+#+#+#+#+#+#+#+#+#+#+#+#++@+",
"+@++#+#+#+#+#+#+#+#+#+#+#+#+##++@+",
"+@++##+#+#+#+#+#+#+#+#+#+#+#+#++@+",
"+@++#+#+#+#+#+#+#+#+#+#+#+#+##++@+",
"+@++##+#+#+#+#+#+#+#+#+#+#+#+#++@+",
"+@++#+#+#+#+#+#+#+#+#+#+#+#+##++@+",
"+@++##+#+#+#+#+#+#+#+#+#+#+#+#++@+",
"+@++#+#+#+#+#+#+#+#+#+#+#+#+##++@+",
"+@++##+#+#+#+#+#+#+#+#+#+#+#+#++@+",
"+@++#+#+#+#+#+#+#+#+#+#+#+#+##++@+",
"+@++##+#+#+#+#+#+#+#+#+#+#+#+#++@+",
"+@++#+#+#+#+#+#+#+#+#+#+#+#+##++@+",
"+@++##+#+#+#+#+#+#+#+#+#+#+#+#++@+",
"+@++#+#+#+#+#+#+#+#+#+#+#+#+##++@+",
"+@++##+#+#+#+#+#+#+#+#+#+#+#+#++@+",
"+@++#+#+#+#+#+#+#+#+#+#+#+#+##++@+",
"+@++##+#+#+#+#+#+#+#+#+#+#+#+#++@+",
"+@++#+#+#+#+#+#+#+#+#+#+#+#+##++@+",
"+@++##+#+#+#+#+#+#+#+#+#+#+#+#++@+",
"+@++#+#+#+#+#+#+#+#+#+#+#+#+##++@+",
"+@++##+#+#+#+#+#+#+#+#+#+#+#+#++@+",
"+@++#+#+#+#+#+#+#+#+#+#+#+#+##++@+",
"+@++##+#+#+#+#+#+#+#+#+#+#+#+#++@+",
"+@++#+#+#+#+#+#+#+#+#+#+#+#+##++@+",
"+@++##+#+#+#+#+#+#+#+#+#+#+#+#++@+",
"+@++#+#+#+#+#+#+#+#+#+#+#+#+##++@+",
"+@++##+#+#+#+#+#+#+#+#+#+#+#+#++@+",
"+@++#+#+#+#+#+#+#+#+#+#+#+#+##++@+",
"+@++##+#+#+#+#+#+#+#+#+#+#+#+#++@+",
"+@++#+#+#+#+#+#+#+#+#+#+#+#+##++@+",
"+@++##########################++@+",
"+@+#++++++++++++++++++++++++++#+@+",
"+@#++++++++++++++++++++++++++++#@+",
"+@@@@@@@@@@@@@@@@@@@@@@@@@@@@@@@@+",
" ++++++++++++++++++++++++++++++++ ",
"                                  ",
"                                  ",
"                                  ",
"                                  ",
"                                  ",
"                                  "};
