/* XPM */
static char * Ink_24bf_xpm[] = {
"20 46 5 1",
" 	c None",
".	c #000000",
"+	c #808080",
"@	c #FFFFFF",
"#	c #C0C0C0",
"     ........       ",
"++++.@@@@@@@#.++++  ",
".....@######+.....+ ",
"...+.@######+.+....+",
"...+.@######+.+....+",
".....@######+......+",
".##++++++++++++##..+",
".#+............+#..+",
".#+............+#..+",
".#+............+#..+",
".#+............+#..+",
".#+............+#..+",
".#+............+#..+",
".#+............+#..+",
".#+............+#..+",
".#+............+#..+",
".#+............+#..+",
".#+............+#..+",
".#+............+#..+",
".#+............+#..+",
".#+............+#..+",
".#+............+#..+",
".#+............+#..+",
".#+............+#..+",
".#+............+#..+",
".#+............+#..+",
".#+............+#..+",
".#+............+#..+",
".#+............+#..+",
".#+............+#..+",
".#+............+#..+",
".#+............+#..+",
".#+............+#..+",
".#+............+#..+",
".#+............+#..+",
".#+............+#..+",
".#+............+#..+",
".#+............+#..+",
".#+............+#..+",
".#++++++++++++++#..+",
"...................+",
"...................+",
"...................+",
"...................+",
"...................+",
"++++++++++++++++++++"};
