/* XPM */
static char * Ink_24b2_xpm[] = {
"20 53 6 1",
" 	c None",
".	c #808000",
"+	c #FFFF00",
"@	c #000000",
"#	c #808080",
"$	c #FFFFFF",
"       .....        ",
"     ..+++++..      ",
"    .+++@@++++.     ",
"   .+++@@@@++++@    ",
"   .+++@@@@++++@    ",
"  .++++@@@@+++++@   ",
"  .++++#@@#+++++@   ",
"  .+++++@@++++++@   ",
"  .+++++@@++++++@   ",
"  .+++++++++++++@   ",
"   .++++@@+++++@    ",
"   .+++#@@@++++@    ",
"    .+++@@++++@     ",
"     @@+++++@@      ",
"       @@@@@        ",
"                    ",
"                    ",
"                    ",
"                    ",
"                    ",
"                    ",
"                    ",
"                    ",
"                    ",
"                    ",
"   $$$$$$$$$$$$     ",
"   $$$$$$$$$$$$     ",
"   $$$$$$$$$$$$     ",
"   $$$$$$$$$$$$     ",
"   $$$$$$$$$$$$     ",
"   $$$$$$$$$$$$     ",
"   $$$$$$$$$$$$     ",
"   $$$$$$$$$$$$     ",
"   $$$$$$$$$$$$     ",
"   $$$$$$$$$$$$     ",
"   $$$$$$$$$$$$     ",
"   $$$$$$$$$$$$     ",
"   $$$$$$$$$$$$     ",
"   $$$$$$$$$$$$     ",
"   $$$$$$$$$$$$     ",
"   $$$$$$$$$$$$     ",
"   $$$$$$$$$$$$     ",
"   $$$$$$$$$$$$     ",
"   $$$$$$$$$$$$     ",
"   $$$$$$$$$$$$     ",
"   $$$$$$$$$$$$     ",
"   $$$$$$$$$$$$     ",
"   $$$$$$$$$$$$     ",
"   $$$$$$$$$$$$     ",
"   $$$$$$$$$$$$     ",
"   $$$$$$$$$$$$     ",
"   $$$$$$$$$$$$     ",
"   $$$$$$$$$$$$     "};
