/* XPM */
static char * Icon_16_Low_xpm[] = {
"34 16 5 1",
" 	c None",
".	c #808000",
"+	c #FFFF00",
"@	c #000000",
"#	c #808080",
"              .....               ",
"            ..+++++..             ",
"           .+++@@++++.            ",
"          .+++@@@@++++@           ",
"          .+++@@@@++++@           ",
"         .++++@@@@+++++@          ",
"         .++++#@@#+++++@          ",
"         .+++++@@++++++@          ",
"         .+++++@@++++++@          ",
"         .+++++++++++++@          ",
"          .++++@@+++++@           ",
"          .+++#@@@++++@           ",
"           .+++@@++++@            ",
"            @@+++++@@             ",
"              @@@@@               ",
"                                  "};
