/* XPM */
static char * Ink_low040_xpm[] = {
"17 44 3 1",
" 	c None",
".	c #FFFFFF",
"+	c #C0C0C0",
"                 ",
"                 ",
"                 ",
"                 ",
"                 ",
"                 ",
"                 ",
"                 ",
"                 ",
"                 ",
"                 ",
"                 ",
"                 ",
"                 ",
"                 ",
"                 ",
"                 ",
"                 ",
"                 ",
"                 ",
"                 ",
"                 ",
"                 ",
"                 ",
"                 ",
"                 ",
"    .+.+.+.+.    ",
"    +.+.+.+.+    ",
"    .+.+.+.+.    ",
"    +.+.+.+.+    ",
"    .+.+.+.+.    ",
"    +.+.+.+.+    ",
"    .+.+.+.+.    ",
"    +.+.+.+.+    ",
"    .+.+.+.+.    ",
"    +.+.+.+.+    ",
"    .+.+.+.+.    ",
"    +.+.+.+.+    ",
"    .+.+.+.+.    ",
"    +.+.+.+.+    ",
"    .+.+.+.+.    ",
"    +.+.+.+.+    ",
"    .+.+.+.+.    ",
"    +.+.+.+.+    "};
