/* XPM */
static char * Ink_16_Notdisplay_xpm[] = {
"34 43 11 1",
" 	c None",
".	c #ECE9D8",
"+	c #808080",
"@	c #C0C0C0",
"#	c #000000",
"$	c #FFFF00",
"%	c #0000FF",
"&	c #000080",
"*	c #FFFFFF",
"=	c #00FFFF",
"-	c #00FF00",
".+++@@@@@#+++++++++++++++++++++++.",
"+################################+",
"#@@@@@@@@@@@@@@@@@@@@@@@@@@@@@@@@#",
"#@@@@@@@@@@@@@@@@@@@@@@@@@@@@@@@@#",
"#@@@@@@@@@@@@@@@@@@@@@@@@@@@@@@@@#",
"#@@@@@@@@@@@@@@@@@@@@@@@@@@@@@@@@#",
"#++++++++++++++++++++++++++++++++#",
"#++++++++++++++++++++++++++++++++#",
"##################################",
"#@@#+++++++++++++$++++++++++++#@@#",
"#@#+++++++++++++$$$++++++++++++#@#",
"#@#++++++++++++$$$$$+++++++++++#@#",
"#@#++++++++++++++++++++++++++++#@#",
"#@##############################@#",
"#@##+#+#+++@@@+#%&%&%#+++#+#+++#@#",
"#@#+#+#+@++@+@@#&%@*&++@++#+#+@#@#",
"#@##+#+#+@@@@@+#%&@@%#+++#+#+@+#@#",
"#@#+#+#+#+++++##%%+@%++@++#++++#@#",
"#@##+#+#+@@@@@+#%%@*%#+++#+#+@+#@#",
"#@#+#+#++@+++++#%+@@%++@++#+#++#@#",
"#@##+#+#+++#+#+#%+@@%#+++#+#+@+#@#",
"#@#+#+#+#+#+#+##%=++%+#+#+#++@+#@#",
"#@##+#+#+#+#+#+#=%=%=#+#+#+#+++#@#",
"#@#+#+#+#+#+#+##%=+*%+#+#+#++@+#@#",
"#@##+#+#+#+#+#+#==++=#+#+#+#+++#@#",
"#@#+#+#+#+#+#+##=-=+=+#+#+#+#+##@#",
"#@##+#+#+#+#+#+#-=+@-#+#+#+#+#+#@#",
"#@#+++++#+#+#+##=-+@=+#+#+#+#+##@#",
"#@#+**+#+#+#+#+#--++-#+#+#+#+#+#@#",
"#@#+@@++#+#+#+##-----+#+#+#+#+##@#",
"#@#+**+#+#+#+#+#-----#+#+#+#+#+#@#",
"#@#+@*++#+#+#+##-$-$-+#+#+#+#+##@#",
"#@#+@*+#+#+++++#$-$-$#+#+#+#+#+#@#",
"#@#+@@++#+@@@@@#-$-$-+#+#+#+#+##@#",
"#@#+@*+#@*@+@@*@$-$-$#+#+#+#+#+#@#",
"#@#+@*++**@++@**$$$$$+#+#+#+#+##@#",
"#@#+@++#**@++@**$-$-$#+#+#+#+#+#@#",
"#@#@@+++@*@@+@*@$$$$$+#+#+#+#+##@#",
"#@#+@@+#++@@@@+#$$$$$#+#+#+#+#+#@#",
"#@#+#+#+#+#+++##$$$$$+#+#+#+#+##@#",
"#@##############################@#",
"#@@@@@@@@@@@@@@@@@@@@@@@@@@@@@@@@#",
"+################################+"};
