/* XPM */
static char * Icond_Refill_xpm[] = {
"31 18 4 1",
" 	c None",
".	c #808080",
"+	c #FFFFFF",
"@	c #000000",
"             .....             ",
"           ..+++++..           ",
"          .++@@@@@++.          ",
"         .++@@@@@@@++@         ",
"         .++@@+++@@++@         ",
"        .+++@.+++@@+++@        ",
"        .+++++++@@.+++@        ",
"        .++++++@@.++++@        ",
"        .+++++@@.+++++@        ",
"        .+++++.@.+++++@        ",
"         .+++++++++++@         ",
"         .++++.@@++++@         ",
"          @+++@@@+++@          ",
"           @@+++++@@           ",
"            @@@@@@             ",
"                               ",
"                               ",
"                               "};
