/* XPM */
static char * Iconw_Refill_xpm[] = {
"27 18 4 1",
" 	c None",
".	c #808080",
"+	c #FFFFFF",
"@	c #000000",
"           .....           ",
"         ..+++++..         ",
"        .++@@@@@++.        ",
"       .++@@@@@@@++@       ",
"       .++@@+++@@++@       ",
"      .+++@.+++@@+++@      ",
"      .+++++++@@.+++@      ",
"      .++++++@@.++++@      ",
"      .+++++@@.+++++@      ",
"      .+++++.@.+++++@      ",
"       .+++++++++++@       ",
"       .++++.@@++++@       ",
"        @+++@@@+++@        ",
"         @@+++++@@         ",
"          @@@@@@           ",
"                           ",
"                           ",
"                           "};
