/* XPM */
static char * Ink_Level_uk_xpm[] = {
"19 40 2 1",
" 	c None",
".	c #FFFFFF",
"                   ",
"                   ",
"                   ",
"                   ",
"                   ",
"                   ",
"                   ",
"                   ",
"     .........     ",
"     .........     ",
"     .........     ",
"     .........     ",
"     .........     ",
"     .........     ",
"     .........     ",
"     .........     ",
"     .........     ",
"     .........     ",
"     .........     ",
"     .........     ",
"     .........     ",
"     .........     ",
"     .........     ",
"     .........     ",
"     .........     ",
"     .........     ",
"     .........     ",
"     .........     ",
"     .........     ",
"     .........     ",
"     .........     ",
"     .........     ",
"     .........     ",
"     .........     ",
"     .........     ",
"     .........     ",
"     .........     ",
"     .........     ",
"     .........     ",
"     .........     "};
