/* XPM */
static char * Ink_Level_70_xpm[] = {
"19 17 3 1",
" 	c None",
".	c #FFFFFF",
"+	c #C0C0C0",
"                   ",
"                   ",
"                   ",
"                   ",
"                   ",
"                   ",
"                   ",
"                   ",
"     .+.+.+.+.     ",
"     +.+.+.+.+     ",
"     .+.+.+.+.     ",
"     +.+.+.+.+     ",
"     .+.+.+.+.     ",
"     +.+.+.+.+     ",
"     .+.+.+.+.     ",
"     +.+.+.+.+     ",
"     .+.+.+.+.     "};
