/* XPM */
static char * Inkd_Level_70_xpm[] = {
"31 17 3 1",
" 	c None",
".	c #FFFFFF",
"+	c #C0C0C0",
"                               ",
"                               ",
"                               ",
"                               ",
"                               ",
"                               ",
"                               ",
"                               ",
"     .+.+.+.+.+.+.+.+.+.+.     ",
"     +.+.+.+.+.+.+.+.+.+.+     ",
"     .+.+.+.+.+.+.+.+.+.+.     ",
"     +.+.+.+.+.+.+.+.+.+.+     ",
"     .+.+.+.+.+.+.+.+.+.+.     ",
"     +.+.+.+.+.+.+.+.+.+.+     ",
"     .+.+.+.+.+.+.+.+.+.+.     ",
"     +.+.+.+.+.+.+.+.+.+.+     ",
"     .+.+.+.+.+.+.+.+.+.+.     "};
