/* XPM */
static char * Inkd_Level_uk_xpm[] = {
"31 40 2 1",
" 	c None",
".	c #FFFFFF",
"                               ",
"                               ",
"                               ",
"                               ",
"                               ",
"                               ",
"                               ",
"                               ",
"     .....................     ",
"     .....................     ",
"     .....................     ",
"     .....................     ",
"     .....................     ",
"     .....................     ",
"     .....................     ",
"     .....................     ",
"     .....................     ",
"     .....................     ",
"     .....................     ",
"     .....................     ",
"     .....................     ",
"     .....................     ",
"     .....................     ",
"     .....................     ",
"     .....................     ",
"     .....................     ",
"     .....................     ",
"     .....................     ",
"     .....................     ",
"     .....................     ",
"     .....................     ",
"     .....................     ",
"     .....................     ",
"     .....................     ",
"     .....................     ",
"     .....................     ",
"     .....................     ",
"     .....................     ",
"     .....................     ",
"     .....................     "};
