/* XPM */
static char * Inkg26bb_xpm[] = {
"27 48 5 1",
" 	c None",
".	c #808080",
"+	c #000000",
"@	c #C0C0C0",
"#	c #FFFFFF",
"...........................",
"+++++++++++++++++++++++++++",
"+++++++++++++++++++++++++++",
"+++++++++++++++++++++++++++",
"+++++++++++++++++++++++++++",
"+++++++++++++++++++++++++++",
"+++.....................+++",
"++.@@.................@@.++",
"++.@.#################.@.++",
"++.@.+++++++++++++++++.@.++",
"++.#.+++++++++++++++++.@.++",
"++.#.+++++++++++++++++.@.++",
"++.#.+++++++++++++++++.@.++",
"++.#.+++++++++++++++++.@.++",
"++.#.+++++++++++++++++.@.++",
"++.#.+++++++++++++++++.@.++",
"++.#.+++++++++++++++++.@.++",
"++.#.+++++++++++++++++.@.++",
"++.#.+++++++++++++++++.@.++",
"++.#.+++++++++++++++++.@.++",
"++.#.+++++++++++++++++.@.++",
"++.#.+++++++++++++++++.@.++",
"++.#.+++++++++++++++++.@.++",
"++.#.+++++++++++++++++.@.++",
"++.#.+++++++++++++++++.@.++",
"++.#.+++++++++++++++++.@.++",
"++.#.+++++++++++++++++.@.++",
"++.#.+++++++++++++++++.@.++",
"++.#.+++++++++++++++++.@.++",
"++.#.+++++++++++++++++.@.++",
"++.#.+++++++++++++++++.@.++",
"++.#.+++++++++++++++++.@.++",
"++.#.+++++++++++++++++.@.++",
"++.#.+++++++++++++++++.@.++",
"++.#.+++++++++++++++++.@.++",
"++.#.+++++++++++++++++.@.++",
"++.#.+++++++++++++++++.@.++",
"++.#.+++++++++++++++++.@.++",
"++.#.+++++++++++++++++.@.++",
"++.#.+++++++++++++++++.@.++",
"++.@...................@.++",
"+++++++++++++++++++++++++++",
"++++++++@..........++++++++",
"++++++++@@@@@@@@@..++++++++",
"+++++++++++++++++++++++++++",
"+++++++++++++++++++++++++++",
"+++++++++++++++++++++++++++",
"..........................."};
