/* XPM */
static char * Inkw_Level_00_xpm[] = {
"27 38 3 1",
" 	c None",
".	c #FFFFFF",
"+	c #C0C0C0",
"                           ",
"                           ",
"                           ",
"                           ",
"                           ",
"                           ",
"                           ",
"                           ",
"     .+.+.+.+.+.+.+.+.     ",
"     +.+.+.+.+.+.+.+.+     ",
"     .+.+.+.+.+.+.+.+.     ",
"     +.+.+.+.+.+.+.+.+     ",
"     .+.+.+.+.+.+.+.+.     ",
"     +.+.+.+.+.+.+.+.+     ",
"     .+.+.+.+.+.+.+.+.     ",
"     +.+.+.+.+.+.+.+.+     ",
"     .+.+.+.+.+.+.+.+.     ",
"     +.+.+.+.+.+.+.+.+     ",
"     .+.+.+.+.+.+.+.+.     ",
"     +.+.+.+.+.+.+.+.+     ",
"     .+.+.+.+.+.+.+.+.     ",
"     +.+.+.+.+.+.+.+.+     ",
"     .+.+.+.+.+.+.+.+.     ",
"     +.+.+.+.+.+.+.+.+     ",
"     .+.+.+.+.+.+.+.+.     ",
"     +.+.+.+.+.+.+.+.+     ",
"     .+.+.+.+.+.+.+.+.     ",
"     +.+.+.+.+.+.+.+.+     ",
"     .+.+.+.+.+.+.+.+.     ",
"     +.+.+.+.+.+.+.+.+     ",
"     .+.+.+.+.+.+.+.+.     ",
"     +.+.+.+.+.+.+.+.+     ",
"     .+.+.+.+.+.+.+.+.     ",
"     +.+.+.+.+.+.+.+.+     ",
"     .+.+.+.+.+.+.+.+.     ",
"     +.+.+.+.+.+.+.+.+     ",
"     .+.+.+.+.+.+.+.+.     ",
"     +.+.+.+.+.+.+.+.+     "};
