/* XPM */
static char * Inkw_Level_uk_xpm[] = {
"27 40 2 1",
" 	c None",
".	c #FFFFFF",
"                           ",
"                           ",
"                           ",
"                           ",
"                           ",
"                           ",
"                           ",
"                           ",
"     .................     ",
"     .................     ",
"     .................     ",
"     .................     ",
"     .................     ",
"     .................     ",
"     .................     ",
"     .................     ",
"     .................     ",
"     .................     ",
"     .................     ",
"     .................     ",
"     .................     ",
"     .................     ",
"     .................     ",
"     .................     ",
"     .................     ",
"     .................     ",
"     .................     ",
"     .................     ",
"     .................     ",
"     .................     ",
"     .................     ",
"     .................     ",
"     .................     ",
"     .................     ",
"     .................     ",
"     .................     ",
"     .................     ",
"     .................     ",
"     .................     ",
"     .................     "};
