/* XPM */
static char * Ink_15_Under_xpm[] = {
"18 51 4 1",
" 	c None",
".	c #C0C0C0",
"+	c #808080",
"@	c #000000",
"                  ",
"                  ",
"                  ",
"                  ",
"                  ",
"                  ",
"                  ",
"                  ",
"                  ",
"                  ",
"                  ",
"                  ",
"                  ",
"                  ",
"                  ",
"                  ",
"                  ",
"                  ",
"                  ",
"                  ",
"                  ",
"                  ",
"                  ",
"                  ",
"                  ",
"                  ",
"                  ",
"                  ",
"                  ",
"                  ",
"                  ",
"                  ",
"                  ",
"                  ",
"                  ",
"                  ",
"                  ",
"                  ",
"                  ",
"                  ",
"                  ",
"                  ",
"                  ",
" .+@@@@@@+++....@+",
"   @+@+@@+        ",
"   @@+@+@+        ",
" +@@+@+@+@@@@+    ",
" @+++++++++++@    ",
" @...........@    ",
" @...........@    ",
"  @@@@@@@@@@@     "};
