/* XPM */
static char * Inkg26b_xpm[] = {
"41 49 94 2",
"  	c None",
". 	c #BBBCBF",
"+ 	c #B1B2B5",
"@ 	c #B0B1B4",
"# 	c #B9BABD",
"$ 	c #A0A2A3",
"% 	c #605F60",
"& 	c #A3A4A6",
"* 	c #9C9D9F",
"= 	c #535353",
"- 	c #535453",
"; 	c #545454",
"> 	c #595A59",
", 	c #5A595A",
"' 	c #5A5A5B",
") 	c #5B5B5C",
"! 	c #5C5B5C",
"~ 	c #A2A3A4",
"{ 	c #686869",
"] 	c #0F0F0F",
"^ 	c #1E1E1E",
"/ 	c #333333",
"( 	c #4B4B4B",
"_ 	c #606060",
": 	c #6E6E6E",
"< 	c #757575",
"[ 	c #070707",
"} 	c #030303",
"| 	c #020202",
"1 	c #010101",
"2 	c #B8B9BC",
"3 	c #9FA0A2",
"4 	c #5E5E5F",
"5 	c #BABBBE",
"6 	c #69696A",
"7 	c #B7B8BB",
"8 	c #A09FA1",
"9 	c #6A6A6C",
"0 	c #9E9FA0",
"a 	c #5C5C5D",
"b 	c #B9BBBE",
"c 	c #5B5C5C",
"d 	c #6C6C6D",
"e 	c #B6B7BA",
"f 	c #6D6D6E",
"g 	c #59595A",
"h 	c #B5B7BA",
"i 	c #595959",
"j 	c #B8B9BB",
"k 	c #6E6E70",
"l 	c #B5B6B9",
"m 	c #575758",
"n 	c #9B9C9E",
"o 	c #565757",
"p 	c #706F71",
"q 	c #B4B5B8",
"r 	c #555656",
"s 	c #9A9B9C",
"t 	c #707072",
"u 	c #555655",
"v 	c #9A9A9B",
"w 	c #727273",
"x 	c #999A9B",
"y 	c #B4B5B7",
"z 	c #535354",
"A 	c #B3B4B7",
"B 	c #535454",
"C 	c #737375",
"D 	c #525152",
"E 	c #747475",
"F 	c #B2B3B6",
"G 	c #98999A",
"H 	c #757476",
"I 	c #979899",
"J 	c #97989A",
"K 	c #515050",
"L 	c #B3B5B8",
"M 	c #B1B3B6",
"N 	c #989899",
"O 	c #4F5050",
"P 	c #767778",
"Q 	c #969798",
"R 	c #4F4F4F",
"S 	c #8A8A8B",
"T 	c #B6B7B9",
"U 	c #79797A",
"V 	c #979798",
"W 	c #959597",
"X 	c #919293",
"Y 	c #888889",
"Z 	c #878788",
"` 	c #868686",
" .	c #838384",
"..	c #7F7F81",
"    . . . . . . . . . . . . . . . . . . . . . . . . . . . . . . . . . . . . .     ",
"  . . + + + + + @ @ @ @ @ @ @ @ @ @ @ @ @ @ @ @ @ @ @ @ @ @ @ @ @ @ @ @ @ # $ %   ",
"  . & * = = - ; > > , ' ' ' ' ' ' ) ! ! ! ! ! ! ! ! ! ! ! ! ! ! ! ! ! ! ! # $ %   ",
"  . ~ { ] ^ / ( _ : < < : _ ( / ^ ] [ } | 1 1 1 1 1 1 1 1 1 1 1 1 1 1 1 1 # $ %   ",
"  . ~ { ] ^ / ( _ : < < : _ ( / ^ ] [ } | 1 1 1 1 1 1 1 1 1 1 1 1 1 1 1 1 2 3 4   ",
"  . & { ] ^ / ( _ : < < : _ ( / ^ ] [ } | 1 1 1 1 1 1 1 1 1 1 1 1 1 1 1 1 # 3 4   ",
"  5 ~ { ] ^ / ( _ : < < : _ ( / ^ ] [ } | 1 1 1 1 1 1 1 1 1 1 1 1 1 1 1 1 2 3 4   ",
"  5 ~ 6 ] ^ / ( _ : < < : _ ( / ^ ] [ } | 1 1 1 1 1 1 1 1 1 1 1 1 1 1 1 1 2 3 4   ",
"  5 ~ 6 ] ^ / ( _ : < < : _ ( / ^ ] [ } | 1 1 1 1 1 1 1 1 1 1 1 1 1 1 1 1 7 8 4   ",
"  5 ~ 9 ] ^ / ( _ : < < : _ ( / ^ ] [ } | 1 1 1 1 1 1 1 1 1 1 1 1 1 1 1 1 2 0 a   ",
"  5 ~ 9 ] ^ / ( _ : < < : _ ( / ^ ] [ } | 1 1 1 1 1 1 1 1 1 1 1 1 1 1 1 1 7 0 !   ",
"  b $ 9 ] ^ / ( _ : < < : _ ( / ^ ] [ } | 1 1 1 1 1 1 1 1 1 1 1 1 1 1 1 1 7 0 c   ",
"  # $ 9 ] ^ / ( _ : < < : _ ( / ^ ] [ } | 1 1 1 1 1 1 1 1 1 1 1 1 1 1 1 1 7 0 )   ",
"  # $ d ] ^ / ( _ : < < : _ ( / ^ ] [ } | 1 1 1 1 1 1 1 1 1 1 1 1 1 1 1 1 7 0 '   ",
"  # $ d ] ^ / ( _ : < < : _ ( / ^ ] [ } | 1 1 1 1 1 1 1 1 1 1 1 1 1 1 1 1 e * '   ",
"  # 3 d ] ^ / ( _ : < < : _ ( / ^ ] [ } | 1 1 1 1 1 1 1 1 1 1 1 1 1 1 1 1 e * ,   ",
"  2 3 f ] ^ / ( _ : < < : _ ( / ^ ] [ } | 1 1 1 1 1 1 1 1 1 1 1 1 1 1 1 1 e * g   ",
"  2 3 f ] ^ / ( _ : < < : _ ( / ^ ] [ } | 1 1 1 1 1 1 1 1 1 1 1 1 1 1 1 1 h * i   ",
"  2 3 f ] ^ / ( _ : < < : _ ( / ^ ] [ } | 1 1 1 1 1 1 1 1 1 1 1 1 1 1 1 1 e * i   ",
"  j 3 k ] ^ / ( _ : < < : _ ( / ^ ] [ } | 1 1 1 1 1 1 1 1 1 1 1 1 1 1 1 1 l * m   ",
"  7 0 k ] ^ / ( _ : < < : _ ( / ^ ] [ } | 1 1 1 1 1 1 1 1 1 1 1 1 1 1 1 1 l n m   ",
"  7 0 k ] ^ / ( _ : < < : _ ( / ^ ] [ } | 1 1 1 1 1 1 1 1 1 1 1 1 1 1 1 1 l n o   ",
"  7 0 p ] ^ / ( _ : < < : _ ( / ^ ] [ } | 1 1 1 1 1 1 1 1 1 1 1 1 1 1 1 1 q n r   ",
"  7 0 p ] ^ / ( _ : < < : _ ( / ^ ] [ } | 1 1 1 1 1 1 1 1 1 1 1 1 1 1 1 1 q s r   ",
"  e 0 p ] ^ / ( _ : < < : _ ( / ^ ] [ } | 1 1 1 1 1 1 1 1 1 1 1 1 1 1 1 1 q s r   ",
"  e * t ] ^ / ( _ : < < : _ ( / ^ ] [ } | 1 1 1 1 1 1 1 1 1 1 1 1 1 1 1 1 q s u   ",
"  e * t ] ^ / ( _ : < < : _ ( / ^ ] [ } | 1 1 1 1 1 1 1 1 1 1 1 1 1 1 1 1 q v ;   ",
"  e * w ] ^ / ( _ : < < : _ ( / ^ ] [ } | 1 1 1 1 1 1 1 1 1 1 1 1 1 1 1 1 q x ;   ",
"  e * t ] ^ / ( _ : < < : _ ( / ^ ] [ } | 1 1 1 1 1 1 1 1 1 1 1 1 1 1 1 1 y x z   ",
"  l n w ] ^ / ( _ : < < : _ ( / ^ ] [ } | 1 1 1 1 1 1 1 1 1 1 1 1 1 1 1 1 A x B   ",
"  e * w ] ^ / ( _ : < < : _ ( / ^ ] [ } | 1 1 1 1 1 1 1 1 1 1 1 1 1 1 1 1 A x =   ",
"  l n C ] ^ / ( _ : < < : _ ( / ^ ] [ } | 1 1 1 1 1 1 1 1 1 1 1 1 1 1 1 1 A x =   ",
"  q n C ] ^ / ( _ : < < : _ ( / ^ ] [ } | 1 1 1 1 1 1 1 1 1 1 1 1 1 1 1 1 A x D   ",
"  q n E ] ^ / ( _ : < < : _ ( / ^ ] [ } | 1 1 1 1 1 1 1 1 1 1 1 1 1 1 1 1 F G D   ",
"  q s H ] ^ / ( _ : < < : _ ( / ^ ] [ } | 1 1 1 1 1 1 1 1 1 1 1 1 1 1 1 1 F G D   ",
"  q s H ] ^ / ( _ : < < : _ ( / ^ ] [ } | 1 1 1 1 1 1 1 1 1 1 1 1 1 1 1 1 F G D   ",
"  q s H ] ^ / ( _ : < < : _ ( / ^ ] [ } | 1 1 1 1 1 1 1 1 1 1 1 1 1 1 1 1 F I D   ",
"  q s H ] ^ / ( _ : < < : _ ( / ^ ] [ } | 1 1 1 1 1 1 1 1 1 1 1 1 1 1 1 1 F J K   ",
"  L v H ] ^ / ( _ : < < : _ ( / ^ ] [ } | 1 1 1 1 1 1 1 1 1 1 1 1 1 1 1 1 M N O   ",
"  A x P ] ^ / ( _ : < < : _ ( / ^ ] [ } | 1 1 1 1 1 1 1 1 1 1 1 1 1 1 1 1 F I O   ",
"  A x P ] ^ / ( _ : < < : _ ( / ^ ] [ } | 1 1 1 1 1 1 1 1 1 1 1 1 1 1 1 1 F I O   ",
"  A Q P ] ^ / ( _ : < < : _ ( / ^ ] [ } | 1 1 1 1 1 1 1 1 1 1 1 1 1 1 1 1 + I R   ",
"  A Q x ] ^ / ( _ : < < : _ ( / ^ ] [ } | 1 1 1 1 1 1 1 1 1 1 1 1 1 1 1 1 F Q R   ",
"  A S I A A A A A A A A A A A A A A A A A A A A A A A A A A A A l # T A A I S R   ",
"  R U S G J N G I I I I I I I I Q Q Q Q Q Q Q Q Q Q Q Q Q Q Q Q Q Q Q Q Q S U R   ",
"    R D D K O K R R R R R R R R R R R R R R R R R R R R R R R R R R R R R R R     ",
"                    4 S V W W X X X X X X X X X X X X X X U O                     ",
"                      4 Y Z `  . ...U U U U U U U U U U U R                       ",
"                        D D D = = O O O O O O O O O O O O                         "};
