/* XPM */
static char * Ink_16_Unknown_xpm[] = {
"34 41 9 1",
" 	c None",
".	c #ECE9D8",
"+	c #808080",
"@	c #C0C0C0",
"#	c #000000",
"$	c #FFFFFF",
"%	c #00FFFF",
"&	c #FF00FF",
"*	c #FFFF00",
".+++@@@@@#+++++++++++++++++++++++.",
"+################################+",
"#@@@@@@@@@@@@@@@@@@@@@@@@@@@@@@@@#",
"#@@@@@@@@@@@@@@@@@@@@@@@@@@@@@@@@#",
"#@@@@@@@@@@@@@@@@@@@@@@@@@@@@@@@@#",
"#@@@@@@@@@@@@@@@@@@@@@@@@@@@@@@@@#",
"#++++++++++++++++++++++++++++++++#",
"#++++++++++++++++++++++++++++++++#",
"#@@@@@@@@@@@@@@@@@@@@@@@@@@@@@@@@#",
"#@++++++++++++++++++++++++++++++@#",
"#@+$$$$$$$$$$$$$$$$$$$$$$$$$$$$+@#",
"#@+$$$$$$$$$$$$$$$$$$$$$$$$$$$$+@#",
"#@+$$$$$$$$$$$$$$$$$$$$$$$$$$$$+@#",
"#@+$$$$$$$$$$$$$$$$$$$$$$$$$$$$+@#",
"#@+$$%$$$%$$$$&$$$&$$$$*$$$*$$$+@#",
"#@+$$$$$$$$$$$$$$$$$$$$$$$$$$$$+@#",
"#@+%$%$%$%$%&$&$&$&$&*$*$*$*$*$+@#",
"#@+$%$$$%$$$$&$$$&$$$$*$$$*$$$*+@#",
"#@+%$%$%$%$%&$&$&$&$&*$*$*$*$*$+@#",
"#@+$$$%$$$%$$$$&$$$&$$$$*$$$*$$+@#",
"#@+%$%$%$%$%&$&$&$&$&*$*$*$*$*$+@#",
"#@+$%$%$%$%$$&$&$&$&$$*$*$*$*$*+@#",
"#@+%$%$%$%$%&$&$&$&$&*$*$*$*$*$+@#",
"#@+$%$%$%$%$$&$&$&$&$$*$*$*$*$*+@#",
"#@+%%%$%$%$%&&&$&$&$&***$*$*$**+@#",
"#@+$%$%$%$%$$&$&$&$&$$*$*$*$*$*+@#",
"#@+%$%%%$%$%&$&&&$&$&*$***$*$*$+@#",
"#@+$%$%$%$%$$&$&$&$&$$*$*$*$*$*+@#",
"#@+%%%$%%%%%&&&$&&&&&***$******+@#",
"#@+$%$%$%$%$$&$&$&$&$$*$*$*$*$*+@#",
"#@+%$%%%%%%%&$&&&&&&&*$*******$+@#",
"#@+$%$%$%$%$$&$&$&$&$$*$*$*$*$*+@#",
"#@+%%%%%%%%%&&&&&&&&&**********+@#",
"#@+%%$%%%$%%&&$&&&$&&**$***$***+@#",
"#@+%%%%%%%%%&&&&&&&&&**********+@#",
"#@+$%%%$%%%$$&&&$&&&$$***$***$*+@#",
"#@+%%%%%%%%%&&&&&&&&&**********+@#",
"#@+%%%%%%%%%&&&&&&&&&**********+@#",
"#@+%%%%%%%%%&&&&&&&&&**********+@#",
"#@+%%%%%%%%%&&&&&&&&&**********+@#",
"#@+%%%%%%%%%&&&&&&&&&**********+@#"};
