/* XPM */
static char * Inkd2_Level_uk_xpm[] = {
"48 49 197 2",
"  	c None",
". 	c #BBBCBF",
"+ 	c #B1B2B5",
"@ 	c #B0B1B4",
"# 	c #B9BABD",
"$ 	c #A0A2A3",
"% 	c #605F60",
"& 	c #A3A4A6",
"* 	c #9C9D9F",
"= 	c #535353",
"- 	c #535453",
"; 	c #545454",
"> 	c #595A59",
", 	c #5A595A",
"' 	c #5A5A5B",
") 	c #5B5B5C",
"! 	c #5C5B5C",
"~ 	c #A2A3A4",
"{ 	c #686869",
"] 	c #E2E2E3",
"^ 	c #E6E5E6",
"/ 	c #E9E9E9",
"( 	c #ECECED",
"_ 	c #F0F0F0",
": 	c #F2F2F3",
"< 	c #F3F3F4",
"[ 	c #E9E9EA",
"} 	c #E5E6E6",
"| 	c #E2E3E3",
"1 	c #E1E1E1",
"2 	c #DFDFDF",
"3 	c #DDDCDD",
"4 	c #DCDCDC",
"5 	c #DDDEDD",
"6 	c #E2E2E2",
"7 	c #E3E3E3",
"8 	c #E7E7E8",
"9 	c #EAEAEA",
"0 	c #F3F3F3",
"a 	c #FFFFFF",
"b 	c #FEFFFF",
"c 	c #ECECEC",
"d 	c #F2F3F3",
"e 	c #E6E5E5",
"f 	c #E3E2E3",
"g 	c #E1E0E1",
"h 	c #DDDDDD",
"i 	c #DEDDDE",
"j 	c #E3E3E4",
"k 	c #E7E7E7",
"l 	c #FFFEFF",
"m 	c #B8B9BC",
"n 	c #9FA0A2",
"o 	c #5E5E5F",
"p 	c #E5E5E6",
"q 	c #E9EAE9",
"r 	c #E1E1E0",
"s 	c #DEDEDF",
"t 	c #DEDDDD",
"u 	c #E4E4E3",
"v 	c #FFFEFE",
"w 	c #BABBBE",
"x 	c #E5E5E5",
"y 	c #DCDCDD",
"z 	c #DDDDDE",
"A 	c #FEFDFE",
"B 	c #FEFEFE",
"C 	c #69696A",
"D 	c #EAE9EA",
"E 	c #DCDDDC",
"F 	c #E4E3E4",
"G 	c #FDFDFD",
"H 	c #E5E6E5",
"I 	c #F3F2F3",
"J 	c #DEDFDF",
"K 	c #E4E3E3",
"L 	c #B7B8BB",
"M 	c #A09FA1",
"N 	c #6A6A6C",
"O 	c #DFDEDE",
"P 	c #E7E6E7",
"Q 	c #FCFCFC",
"R 	c #9E9FA0",
"S 	c #5C5C5D",
"T 	c #DEDFDE",
"U 	c #DCDDDD",
"V 	c #E8E6E7",
"W 	c #FCFBFB",
"X 	c #FBFBFC",
"Y 	c #B9BBBE",
"Z 	c #E0E1E1",
"` 	c #FBFBFB",
" .	c #5B5C5C",
"..	c #FAFBFA",
"+.	c #FBFAFB",
"@.	c #6C6C6D",
"#.	c #DDDEDE",
"$.	c #F3F2F2",
"%.	c #FAFAFA",
"&.	c #DDDCDC",
"*.	c #F1F0F0",
"=.	c #F9F9F9",
"-.	c #B6B7BA",
";.	c #DFDEDF",
">.	c #EFEEF0",
",.	c #F7F8F7",
"'.	c #6D6D6E",
").	c #E9EAEA",
"!.	c #E0E1E0",
"~.	c #DDDDDC",
"{.	c #EDECED",
"].	c #F6F6F6",
"^.	c #F8F8F8",
"/.	c #59595A",
"(.	c #DFDFDE",
"_.	c #EBEAEB",
":.	c #F7F7F6",
"<.	c #B5B7BA",
"[.	c #595959",
"}.	c #EBEBEA",
"|.	c #ECEAEC",
"1.	c #B8B9BB",
"2.	c #6E6E70",
"3.	c #E4E4E4",
"4.	c #EBEAEA",
"5.	c #ECEAEB",
"6.	c #F5F5F4",
"7.	c #B5B6B9",
"8.	c #575758",
"9.	c #EAE9E9",
"0.	c #F4F4F4",
"a.	c #9B9C9E",
"b.	c #F5F5F5",
"c.	c #565757",
"d.	c #706F71",
"e.	c #E0E0E1",
"f.	c #B4B5B8",
"g.	c #555656",
"h.	c #E6E6E6",
"i.	c #9A9B9C",
"j.	c #E3E4E4",
"k.	c #E8E7E8",
"l.	c #F2F2F2",
"m.	c #707072",
"n.	c #555655",
"o.	c #9A9A9B",
"p.	c #727273",
"q.	c #999A9B",
"r.	c #DEDEDE",
"s.	c #DEDEDD",
"t.	c #B4B5B7",
"u.	c #535354",
"v.	c #E0E0E0",
"w.	c #B3B4B7",
"x.	c #535454",
"y.	c #F1F2F1",
"z.	c #737375",
"A.	c #E7E6E8",
"B.	c #F2F1F3",
"C.	c #F1F0F1",
"D.	c #ECEBEC",
"E.	c #F2F0F1",
"F.	c #525152",
"G.	c #747475",
"H.	c #F2F1F2",
"I.	c #F0F0F1",
"J.	c #B2B3B6",
"K.	c #98999A",
"L.	c #757476",
"M.	c #E6E6E5",
"N.	c #979899",
"O.	c #E8E7E7",
"P.	c #97989A",
"Q.	c #515050",
"R.	c #B3B5B8",
"S.	c #EDECEC",
"T.	c #F1F1F2",
"U.	c #B1B3B6",
"V.	c #989899",
"W.	c #4F5050",
"X.	c #767778",
"Y.	c #F3F3F2",
"Z.	c #F4F4F5",
"`.	c #969798",
" +	c #F4F3F3",
".+	c #4F4F4F",
"++	c #8A8A8B",
"@+	c #B6B7B9",
"#+	c #79797A",
"$+	c #979798",
"%+	c #959597",
"&+	c #919293",
"*+	c #888889",
"=+	c #878788",
"-+	c #868686",
";+	c #838384",
">+	c #7F7F81",
"    . . . . . . . . . . . . . . . . . . . . . . . . . . . . . . . . . . . . . . . . . . . .     ",
"  . . + + + + + + + + @ @ @ @ @ @ @ @ @ @ @ @ @ @ @ @ @ @ @ @ @ @ @ @ @ @ @ @ @ @ @ @ @ # $ %   ",
"  . & * = = = = = - ; > > , ' ' ' ' ' ' ) ! ! ! ! ! ! ! ! ! ! ! ! ! ! ! ! ! ! ! ! ! ! ! # $ %   ",
"  . ~ { ] ] ^ / ( _ : < : _ ( [ } | 1 2 3 4 4 4 4 4 5 5 2 6 7 7 8 8 8 8 9 0 a b 0 9 9 9 # $ %   ",
"  . ~ { 7 7 ^ [ c _ 0 < d _ ( / e f g 2 h 4 4 4 4 4 i i 2 6 j j k k k k 9 0 b l 0 9 9 9 m n o   ",
"  . & { ] ] p q c _ : < d _ ( [ ^ 7 r s 3 4 4 4 4 4 t t 2 6 u u k k k k 9 0 v l 0 9 9 9 # n o   ",
"  w ~ { | | x / c _ 0 < d _ c [ } 7 1 2 y 4 4 4 4 4 z z 2 6 7 7 k k k k 9 0 A B 0 9 9 9 m n o   ",
"  w ~ C 7 7 x / c _ d < 0 _ ( D x | r s E 4 4 4 4 4 t t 2 6 F F k k k k 9 0 G G 0 9 9 9 m n o   ",
"  w ~ C 7 7 H / c _ 0 < I _ ( [ e | g J h 4 4 4 4 4 i i 2 6 K K k k k k 9 0 G G 0 9 9 9 L M o   ",
"  w ~ N 7 7 } 9 ( _ 0 < d _ c / p f 1 O y 4 4 4 4 4 5 5 2 6 K K P P P P 9 0 Q G 0 9 9 9 m R S   ",
"  w ~ N 7 7 e [ ( _ 0 < I _ ( [ p f 1 T U 4 4 4 4 4 t t 2 6 K K V V V V 9 0 W X 0 9 9 9 L R !   ",
"  Y $ N ] ] p [ c _ I < I _ ( [ x 7 Z s h 4 4 4 4 4 h h 2 6 7 7 k k k k 9 0 ` ` 0 9 9 9 L R  .  ",
"  # $ N 7 7 } [ ( _ : < I _ ( [ H f g s 4 4 4 4 4 4 i i 2 6 j j P P P P 9 0 ..+.0 9 9 9 L R )   ",
"  # $ @.] ] p [ c _ I < 0 _ ( / x | 1 T h 4 4 4 4 4 #.#.2 6 K K k k k k 9 $.%.%.$.9 9 9 L R '   ",
"  # $ @.f f p [ ( _ d < 0 _ ( [ x 7 1 2 &.4 4 4 4 4 h h 2 6 7 7 k k k k 9 *.=.%.*.9 9 9 -.* '   ",
"  # n @.7 7 ^ [ ( _ 0 < 0 _ ( [ x 7 1 ;.U 4 4 4 4 4 h h 2 6 K K k k k k c >.,.=.>.c c c -.* ,   ",
"  m n '.| | } / ( _ 0 < d _ ( ).p 7 !.O ~.4 4 4 4 4 h h 2 6 F F k 8 8 8 c {.].^.{.c c c -.* /.  ",
"  m n '.7 7 p [ ( _ 0 < I _ ( q ^ f r (.&.&.&.&.&.&.i i 2 6 j j k k k k _.c ].:.c _._._.<.* [.  ",
"  m n '.] ] ^ / ( _ : < 0 _ c ).p | g ;.U 4 4 4 4 4 h h 2 6 F F k k k k }.|.].].|.}.}.}.-.* [.  ",
"  1.n 2.f f ^ ).c _ d < : _ ( [ x 7 Z J 4 4 4 4 4 4 h h 2 6 3.3.k k k k 4.5.6.].5.4.4.4.7.* 8.  ",
"  L R 2.7 7 p [ ( _ : < 0 _ c 9.} 7 1 O y 4 4 4 4 4 h h 2 6 j j k k k k 9 9 0.].9 9 9 9 7.a.8.  ",
"  L R 2.7 7 p / ( _ 0 < 0 _ ( [ p 7 1 J 3 4 4 4 4 4 t t 2 6 F F k k k k 9 9 0 b.9 9 9 9 7.a.c.  ",
"  L R d.7 7 x [ ( _ d < I _ c / } | e.O E E E E E E t t 2 6 K K k k k k 9 9 0 0.9 9 9 9 f.a.g.  ",
"  L R d.7 7 h.D c _ I < I _ c [ } | Z ;.E 4 4 4 4 4 z z 2 6 F F P k k k 9 9 0 0 9 9 9 9 f.i.g.  ",
"  -.R d.f f ^ [ ( _ : < 0 _ c [ p 7 Z s ~.4 4 4 4 4 h h 2 6 j.j.k.k k k 9 9 l.l.9 9 9 9 f.i.g.  ",
"  -.* m.7 7 x / ( _ d < 0 _ c [ p 7 1 2 U 4 4 4 4 4 h h 2 6 3.3.k k k k 9 9 I $.9 9 9 9 f.i.n.  ",
"  -.* m.| | H [ c _ : < 0 _ c / H | e.s 3 4 4 4 4 4 5 5 2 6 j j k k k k 9 9 : l.9 9 9 9 f.o.;   ",
"  -.* p.| | ^ [ ( _ : < d _ ( D ^ | 1 2 4 4 4 4 4 4 h h 2 6 F F k k k k 9 9 l.: 9 9 9 9 f.q.;   ",
"  -.* m.] ] h.).c _ I < : _ c [ p | g r.h 4 4 4 4 4 s.s.2 6 F F k k k k 9 9 : : 9 9 9 9 t.q.u.  ",
"  7.a.p.7 7 H ).( _ d < I _ ( ).p f v.O 3 4 4 4 4 4 h h 2 6 3.3.k k k k 9 9 d l.9 9 9 9 w.q.x.  ",
"  -.* p.| | } / ( _ d < I _ c ).} 7 g J 4 4 4 4 4 4 t t 2 6 F F P k k k 9 9 0 y.9 9 9 9 w.q.=   ",
"  7.a.z.] ] p / ( _ d < d _ ( D H f e.r.E U U U U U h h 2 6 j j A.k k k 9 _.B.C._.9 9 9 w.q.=   ",
"  f.a.z.7 7 h.[ ( _ 0 < I _ ( [ p ] v.O ~.4 4 4 4 4 h h 2 6 F F 8 k k k 9 D.E._ D.9 9 9 w.q.F.  ",
"  f.a.G.7 7 } [ ( _ 0 < : _ ( [ p ] 1 ;.U 4 4 4 4 4 h h 2 6 7 7 k k k k 9 c H.I.c 9 9 9 J.K.F.  ",
"  f.i.L.| | M.D ( _ 0 < d _ c D H ] r 2 3 4 4 4 4 4 h h 2 6 K K k k k k 9 c H.: c 9 9 9 J.K.F.  ",
"  f.i.L.f f } / ( _ 0 < : _ ( D p | g T E 4 4 4 4 4 h h 2 6 u u k.k k k 9 c 0 d c 9 9 9 J.K.F.  ",
"  f.i.L.7 7 } ).( _ : < : _ c D } | 1 ;.y 4 4 4 4 4 h h 2 6 j.j.P k k k 9 c 0 0 c 9 9 9 J.N.F.  ",
"  f.i.L.7 7 H [ ( _ 0 < I _ c ).e 7 r T 4 4 4 4 4 4 h h 2 6 K K O.k k k 9 c d H.c 9 9 9 J.P.Q.  ",
"  R.o.L.7 7 h.[ ( _ : < : _ ( [ ^ 7 !.r.~.4 4 4 4 4 h h 2 6 K K O.k k k 9 S.0 T.S.9 9 9 U.V.W.  ",
"  w.q.X.| | ^ [ ( _ 0 < 0 _ c / ^ 7 1 J h 4 4 4 4 4 h h 2 6 K K k k k k 9 D.0 Y.D.9 9 9 J.N.W.  ",
"  w.q.X.7 7 H / ( _ 0 < 0 _ ( / ^ | e.J y E E E E E z z 2 6 F F V k k k 9 9 Z.0 9 9 9 9 J.N.W.  ",
"  w.`.X.7 7 ^ / c _ 0 < : _ c [ ^ ] Z (.~.4 4 4 4 4 h h 2 6 F F A.k k k 9 9  +0 9 9 9 9 + N..+  ",
"  w.`.q.| p / c _ 0 _ ( / } 7 Z Z s y y y y y y y y #.#.2 6 7 7 P k k k 9 9 0 *.9 9 9 9 J.`..+  ",
"  w.++N.w.w.w.w.w.w.w.w.w.w.w.w.w.w.w.w.w.w.w.w.w.w.w.w.w.w.w.w.w.w.w.7.# @+w.w.w.w.w.w.N.++.+  ",
"  .+#+++K.K.K.K.P.V.K.N.N.N.N.N.N.N.N.`.`.`.`.`.`.`.`.`.`.`.`.`.`.`.`.`.`.`.`.`.`.`.`.`.++#+.+  ",
"    .+F.F.F.F.F.Q.W.Q..+.+.+.+.+.+.+.+.+.+.+.+.+.+.+.+.+.+.+.+.+.+.+.+.+.+.+.+.+.+.+.+.+.+.+    ",
"                        o ++$+%+%+&+&+&+&+&+&+&+&+&+&+&+&+&+&+&+&+&+#+W.                        ",
"                          o *+=+-+;+;+>+#+#+#+#+#+#+#+#+#+#+#+#+#+#+.+                          ",
"                            F.F.F.= = W.W.W.W.W.W.W.W.W.W.W.W.W.W.W.                            "};
