/* XPM */
static char * inkg_el[] = {
"3 48 3 1",
" 	c None",
".	c #808080",
"+	c #000000",
"   ",
"  .",
" .+",
".++",
".++",
".++",
".++",
".++",
".++",
".++",
".++",
".++",
".++",
".++",
".++",
".++",
".++",
".++",
".++",
".++",
".++",
".++",
".++",
".++",
".++",
".++",
".++",
".++",
".++",
".++",
".++",
".++",
".++",
".++",
".++",
".++",
".++",
".++",
".++",
".++",
".++",
".++",
".++",
"...",
"  .",
"  .",
"  .",
"   "};
