/* XPM */
static char * Icon_Low_xpm[] = {
"19 17 120 2",
"  	c None",
". 	c #C7C277",
"+ 	c #C4BF85",
"@ 	c #C4BF7E",
"# 	c #B7B26C",
"$ 	c #ADA74E",
"% 	c #CBC67D",
"& 	c #D5D4BA",
"* 	c #E9E6C3",
"= 	c #F0EBB2",
"- 	c #F3EC9D",
"; 	c #EDE589",
"> 	c #DCD36D",
", 	c #B0A746",
"' 	c #9A922C",
") 	c #C6C38F",
"! 	c #E6E4C7",
"~ 	c #F9F3B3",
"{ 	c #FFF370",
"] 	c #FAEA3B",
"^ 	c #ADA11C",
"/ 	c #FFED2A",
"( 	c #FFEF3B",
"_ 	c #F3E441",
": 	c #C6B923",
"< 	c #82790F",
"[ 	c #BEB973",
"} 	c #E7E4B8",
"| 	c #FCF395",
"1 	c #FFEF38",
"2 	c #FFEB0A",
"3 	c #998C00",
"4 	c #000000",
"5 	c #FFEA04",
"6 	c #FFEB12",
"7 	c #F9E81A",
"8 	c #C2B100",
"9 	c #837A12",
"0 	c #CCC78A",
"a 	c #FAF192",
"b 	c #FFEE2F",
"c 	c #FFEA00",
"d 	c #4B4500",
"e 	c #FFEA02",
"f 	c #FFEB0B",
"g 	c #EFDB00",
"h 	c #938501",
"i 	c #ACA64F",
"j 	c #E1DA80",
"k 	c #FFF153",
"l 	c #FFEB07",
"m 	c #544D00",
"n 	c #FFEA03",
"o 	c #FBE600",
"p 	c #B7A700",
"q 	c #867E12",
"r 	c #A8A048",
"s 	c #EDE369",
"t 	c #6A6100",
"u 	c #FCE600",
"v 	c #C9B700",
"w 	c #7F7610",
"x 	c #A09833",
"y 	c #EFE144",
"z 	c #FFEC14",
"A 	c #AA9C00",
"B 	c #FAE500",
"C 	c #CEBC00",
"D 	c #80760E",
"E 	c #92891E",
"F 	c #E6D51C",
"G 	c #242100",
"H 	c #F7E200",
"I 	c #C2AF00",
"J 	c #857D13",
"K 	c #CABA00",
"L 	c #FCE700",
"M 	c #FDE800",
"N 	c #EFDA00",
"O 	c #AD9D00",
"P 	c #847C12",
"Q 	c #978A03",
"R 	c #EBD700",
"S 	c #BEAE00",
"T 	c #5D5500",
"U 	c #C9B800",
"V 	c #FEE900",
"W 	c #F6E100",
"X 	c #D4C000",
"Y 	c #887B02",
"Z 	c #B5A400",
"` 	c #EED900",
" .	c #A29500",
"..	c #F4DF00",
"+.	c #DAC500",
"@.	c #A99800",
"#.	c #7F7710",
"$.	c #796F0C",
"%.	c #AC9B00",
"&.	c #DBC800",
"*.	c #C1B100",
"=.	c #867A00",
"-.	c #B4A500",
";.	c #E7D100",
">.	c #D1BC00",
",.	c #A19200",
"'.	c #786F0D",
").	c #837B11",
"!.	c #857903",
"~.	c #A89700",
"{.	c #BBA800",
"].	c #BAA800",
"^.	c #A69600",
"/.	c #817604",
"(.	c #8A8114",
"_.	c #8B8214",
":.	c #817A12",
"<.	c #79710C",
"[.	c #827912",
"}.	c #8D8415",
"              . + @ # $               ",
"          % & * = - ; > , '           ",
"        ) ! ~ { ] ^ / ( _ : <         ",
"      [ } | 1 2 3 4 3 5 6 7 8 9       ",
"      0 a b 5 c d 4 d c e f g h       ",
"    i j k l c c m 4 m c c n o p q     ",
"    r s / c c c t 4 t c c c u v w     ",
"    x y z c c c A 4 A c c c B C D     ",
"    E F 2 c c c c G c c c c H I w     ",
"    J K c c c c c L c c c M N O P     ",
"      Q R M c c S T U c V W X Y       ",
"      J Z ` u c  .4  .M ..+.@.#.      ",
"        $.%.&.N *.=.-.;.>.,.'.        ",
"          ).!.~.{.8 ].^./.(.          ",
"              _.:.<.[.}.              ",
"                                      ",
"                                      "};
