/* XPM */
static char * Inkg26cy_xpm[] = {
"19 49 96 2",
"  	c None",
". 	c #BBBCBF",
"+ 	c #B1B2B5",
"@ 	c #B0B1B4",
"# 	c #B9BABD",
"$ 	c #A0A2A3",
"% 	c #605F60",
"& 	c #A3A4A6",
"* 	c #9C9D9F",
"= 	c #535353",
"- 	c #535453",
"; 	c #545454",
"> 	c #595A59",
", 	c #5A595A",
"' 	c #5A5A5B",
") 	c #5B5B5C",
"! 	c #5C5B5C",
"~ 	c #A2A3A4",
"{ 	c #686869",
"] 	c #00D8FB",
"^ 	c #44E5FD",
"/ 	c #9EF6FE",
"( 	c #CCFFFF",
"_ 	c #99F6FE",
": 	c #B8B9BC",
"< 	c #9FA0A2",
"[ 	c #5E5E5F",
"} 	c #BABBBE",
"| 	c #69696A",
"1 	c #B7B8BB",
"2 	c #A09FA1",
"3 	c #6A6A6C",
"4 	c #9E9FA0",
"5 	c #5C5C5D",
"6 	c #B9BBBE",
"7 	c #5B5C5C",
"8 	c #6C6C6D",
"9 	c #B6B7BA",
"0 	c #6D6D6E",
"a 	c #59595A",
"b 	c #B5B7BA",
"c 	c #595959",
"d 	c #B8B9BB",
"e 	c #6E6E70",
"f 	c #B5B6B9",
"g 	c #575758",
"h 	c #9B9C9E",
"i 	c #565757",
"j 	c #706F71",
"k 	c #B4B5B8",
"l 	c #555656",
"m 	c #9A9B9C",
"n 	c #707072",
"o 	c #555655",
"p 	c #9A9A9B",
"q 	c #727273",
"r 	c #999A9B",
"s 	c #B4B5B7",
"t 	c #535354",
"u 	c #B3B4B7",
"v 	c #535454",
"w 	c #737375",
"x 	c #525152",
"y 	c #747475",
"z 	c #B2B3B6",
"A 	c #98999A",
"B 	c #757476",
"C 	c #979899",
"D 	c #97989A",
"E 	c #515050",
"F 	c #B3B5B8",
"G 	c #B1B3B6",
"H 	c #989899",
"I 	c #4F5050",
"J 	c #767778",
"K 	c #969798",
"L 	c #4F4F4F",
"M 	c #8A8A8B",
"N 	c #79797A",
"O 	c #979798",
"P 	c #959597",
"Q 	c #939394",
"R 	c #919293",
"S 	c #909091",
"T 	c #8E8D8F",
"U 	c #8C8C8C",
"V 	c #89898A",
"W 	c #878788",
"X 	c #888889",
"Y 	c #868686",
"Z 	c #838384",
"` 	c #818182",
" .	c #7F7F81",
"..	c #7D7D7E",
"+.	c #7B7B7C",
"@.	c #4F504F",
"    . . . . . . . . . . . . . . .     ",
"  . . + + + + + @ @ @ @ @ @ @ # $ %   ",
"  . & * = = - ; > , ' ' ) ! ! # $ %   ",
"  . ~ { ] ^ / ( _ ^ ] ] ] ] ] # $ %   ",
"  . ~ { ] ^ / ( _ ^ ] ] ] ] ] : < [   ",
"  . & { ] ^ / ( _ ^ ] ] ] ] ] # < [   ",
"  } ~ { ] ^ / ( _ ^ ] ] ] ] ] : < [   ",
"  } ~ | ] ^ / ( _ ^ ] ] ] ] ] : < [   ",
"  } ~ | ] ^ / ( _ ^ ] ] ] ] ] 1 2 [   ",
"  } ~ 3 ] ^ / ( _ ^ ] ] ] ] ] : 4 5   ",
"  } ~ 3 ] ^ / ( _ ^ ] ] ] ] ] 1 4 !   ",
"  6 $ 3 ] ^ / ( _ ^ ] ] ] ] ] 1 4 7   ",
"  # $ 3 ] ^ / ( _ ^ ] ] ] ] ] 1 4 )   ",
"  # $ 8 ] ^ / ( _ ^ ] ] ] ] ] 1 4 '   ",
"  # $ 8 ] ^ / ( _ ^ ] ] ] ] ] 9 * '   ",
"  # < 8 ] ^ / ( _ ^ ] ] ] ] ] 9 * ,   ",
"  : < 0 ] ^ / ( _ ^ ] ] ] ] ] 9 * a   ",
"  : < 0 ] ^ / ( _ ^ ] ] ] ] ] b * c   ",
"  : < 0 ] ^ / ( _ ^ ] ] ] ] ] 9 * c   ",
"  d < e ] ^ / ( _ ^ ] ] ] ] ] f * g   ",
"  1 4 e ] ^ / ( _ ^ ] ] ] ] ] f h g   ",
"  1 4 e ] ^ / ( _ ^ ] ] ] ] ] f h i   ",
"  1 4 j ] ^ / ( _ ^ ] ] ] ] ] k h l   ",
"  1 4 j ] ^ / ( _ ^ ] ] ] ] ] k m l   ",
"  9 4 j ] ^ / ( _ ^ ] ] ] ] ] k m l   ",
"  9 * n ] ^ / ( _ ^ ] ] ] ] ] k m o   ",
"  9 * n ] ^ / ( _ ^ ] ] ] ] ] k p ;   ",
"  9 * q ] ^ / ( _ ^ ] ] ] ] ] k r ;   ",
"  9 * n ] ^ / ( _ ^ ] ] ] ] ] s r t   ",
"  f h q ] ^ / ( _ ^ ] ] ] ] ] u r v   ",
"  9 * q ] ^ / ( _ ^ ] ] ] ] ] u r =   ",
"  f h w ] ^ / ( _ ^ ] ] ] ] ] u r =   ",
"  k h w ] ^ / ( _ ^ ] ] ] ] ] u r x   ",
"  k h y ] ^ / ( _ ^ ] ] ] ] ] z A x   ",
"  k m B ] ^ / ( _ ^ ] ] ] ] ] z A x   ",
"  k m B ] ^ / ( _ ^ ] ] ] ] ] z A x   ",
"  k m B ] ^ / ( _ ^ ] ] ] ] ] z C x   ",
"  k m B ] ^ / ( _ ^ ] ] ] ] ] z D E   ",
"  F p B ] ^ / ( _ ^ ] ] ] ] ] G H I   ",
"  u r J ] ^ / ( _ ^ ] ] ] ] ] z C I   ",
"  u r J ] ^ / ( _ ^ ] ] ] ] ] z C I   ",
"  u K J ] ^ / ( _ ^ ] ] ] ] ] + C L   ",
"  u K r ] ^ / ( _ ^ ] ] ] ] ] z K L   ",
"  u M C u u u u u u u u u u u C M L   ",
"  L N M A D H A C C C K K K K M N L   ",
"    L x x E I E L L L L L L L L L     ",
"      [ M O P Q R S T U V W N I       ",
"        [ X W Y Z `  ...+.N L         ",
"          x x x = x I @.L I           "};
