/* XPM */
static char * Ink_24c2_xpm[] = {
"20 53 9 1",
" 	c None",
".	c #808000",
"+	c #FFFF00",
"@	c #000000",
"#	c #808080",
"$	c #FFFFFF",
"%	c #00FFFF",
"&	c #FF00FF",
"*	c #C0C0C0",
"        .....       ",
"      ..+++++..     ",
"     .+++@@++++.    ",
"    .+++@@@@++++@   ",
"    .+++@@@@++++@   ",
"   .++++@@@@+++++@  ",
"   .++++#@@#+++++@  ",
"   .+++++@@++++++@  ",
"   .+++++@@++++++@  ",
"   .+++++++++++++@  ",
"    .++++@@+++++@   ",
"    .+++#@@@++++@   ",
"     .+++@@++++@    ",
"      @@+++++@@     ",
"        @@@@@       ",
"                    ",
"                    ",
"                    ",
"                    ",
"                    ",
"                    ",
"                    ",
"                    ",
"                    ",
"                    ",
"     $$$$$$$$$$$$   ",
"     $$$$$$$$$$$$   ",
"     $$$$$$$$$$$$   ",
"     $$$$$$$$$$$$   ",
"     $$$$$$$$$$$$   ",
"     $$$$$$$$$$$$   ",
"     $$$$$$$$$$$$   ",
"     $$$$$$$$$$$$   ",
"     $$$$$$$$$$$$   ",
"     $$$$$$$$$$$$   ",
"     $$$$$$$$$$$$   ",
"     $$$$$$$$$$$$   ",
"     $$$$$$$$$$$$   ",
"     $$$$$$$$$$$$   ",
"     $$$$$$$$$$$$   ",
"     $$$$$$$$$$$$   ",
"     $$$$$$$$$$$$   ",
"     $$$$$$$$$$$$   ",
"     $$$$$$$$$$$$   ",
"     $$$$$$$$$$$$   ",
"     $$$$$$$$$$$$   ",
"     $$$$$$$$$$$$   ",
"     $$$$$$$$$$$$   ",
"     $$$$$$$$$$$$   ",
"     $$$$$$$$$$$$   ",
"     $$$$$$$$$$$$   ",
"     $$$$$$$$$$$$   ",
"     %%%%&&&&.*.+   "};
