/* XPM */
static char * Inkg26pm_xpm[] = {
"19 49 100 2",
"  	c None",
". 	c #BBBCBF",
"+ 	c #B1B2B5",
"@ 	c #B0B1B4",
"# 	c #B9BABD",
"$ 	c #A0A2A3",
"% 	c #605F60",
"& 	c #A3A4A6",
"* 	c #9C9D9F",
"= 	c #535353",
"- 	c #535453",
"; 	c #545454",
"> 	c #595A59",
", 	c #5A595A",
"' 	c #5A5A5B",
") 	c #5B5B5C",
"! 	c #5C5B5C",
"~ 	c #A2A3A4",
"{ 	c #686869",
"] 	c #FFBEFF",
"^ 	c #FFCDFF",
"/ 	c #FFDBFF",
"( 	c #FFE1FF",
"_ 	c #FFD6FF",
": 	c #FFC3FF",
"< 	c #FFB4FF",
"[ 	c #FFB3FF",
"} 	c #FFBDFF",
"| 	c #B8B9BC",
"1 	c #9FA0A2",
"2 	c #5E5E5F",
"3 	c #BABBBE",
"4 	c #69696A",
"5 	c #B7B8BB",
"6 	c #A09FA1",
"7 	c #6A6A6C",
"8 	c #9E9FA0",
"9 	c #5C5C5D",
"0 	c #B9BBBE",
"a 	c #5B5C5C",
"b 	c #6C6C6D",
"c 	c #B6B7BA",
"d 	c #6D6D6E",
"e 	c #59595A",
"f 	c #B5B7BA",
"g 	c #595959",
"h 	c #B8B9BB",
"i 	c #6E6E70",
"j 	c #B5B6B9",
"k 	c #575758",
"l 	c #9B9C9E",
"m 	c #565757",
"n 	c #706F71",
"o 	c #B4B5B8",
"p 	c #555656",
"q 	c #9A9B9C",
"r 	c #707072",
"s 	c #555655",
"t 	c #9A9A9B",
"u 	c #727273",
"v 	c #999A9B",
"w 	c #B4B5B7",
"x 	c #535354",
"y 	c #B3B4B7",
"z 	c #535454",
"A 	c #737375",
"B 	c #525152",
"C 	c #747475",
"D 	c #B2B3B6",
"E 	c #98999A",
"F 	c #757476",
"G 	c #979899",
"H 	c #97989A",
"I 	c #515050",
"J 	c #B3B5B8",
"K 	c #B1B3B6",
"L 	c #989899",
"M 	c #4F5050",
"N 	c #767778",
"O 	c #969798",
"P 	c #4F4F4F",
"Q 	c #8A8A8B",
"R 	c #79797A",
"S 	c #979798",
"T 	c #959597",
"U 	c #939394",
"V 	c #919293",
"W 	c #909091",
"X 	c #8E8D8F",
"Y 	c #8C8C8C",
"Z 	c #89898A",
"` 	c #878788",
" .	c #888889",
"..	c #868686",
"+.	c #838384",
"@.	c #818182",
"#.	c #7F7F81",
"$.	c #7D7D7E",
"%.	c #7B7B7C",
"&.	c #4F504F",
"    . . . . . . . . . . . . . . .     ",
"  . . + + + + + @ @ @ @ @ @ @ # $ %   ",
"  . & * = = - ; > , ' ' ) ! ! # $ %   ",
"  . ~ { ] ^ / ( _ : < [ [ [ [ # $ %   ",
"  . ~ { } ^ / ( _ : < [ [ [ [ | 1 2   ",
"  . & { ] ^ / ( _ : < [ [ [ [ # 1 2   ",
"  3 ~ { } ^ / ( _ : < [ [ [ [ | 1 2   ",
"  3 ~ 4 ] ^ / ( _ : < [ [ [ [ | 1 2   ",
"  3 ~ 4 } ^ / ( _ : < [ [ [ [ 5 6 2   ",
"  3 ~ 7 ] ^ / ( _ : < [ [ [ [ | 8 9   ",
"  3 ~ 7 } ^ / ( _ : < [ [ [ [ 5 8 !   ",
"  0 $ 7 ] ^ / ( _ : < [ [ [ [ 5 8 a   ",
"  # $ 7 } ^ / ( _ : < [ [ [ [ 5 8 )   ",
"  # $ b ] ^ / ( _ : < [ [ [ [ 5 8 '   ",
"  # $ b } ^ / ( _ : < [ [ [ [ c * '   ",
"  # 1 b ] ^ / ( _ : < [ [ [ [ c * ,   ",
"  | 1 d } ^ / ( _ : < [ [ [ [ c * e   ",
"  | 1 d ] ^ / ( _ : < [ [ [ [ f * g   ",
"  | 1 d } ^ / ( _ : < [ [ [ [ c * g   ",
"  h 1 i ] ^ / ( _ : < [ [ [ [ j * k   ",
"  5 8 i } ^ / ( _ : < [ [ [ [ j l k   ",
"  5 8 i ] ^ / ( _ : < [ [ [ [ j l m   ",
"  5 8 n } ^ / ( _ : < [ [ [ [ o l p   ",
"  5 8 n ] ^ / ( _ : < [ [ [ [ o q p   ",
"  c 8 n } ^ / ( _ : < [ [ [ [ o q p   ",
"  c * r ] ^ / ( _ : < [ [ [ [ o q s   ",
"  c * r } ^ / ( _ : < [ [ [ [ o t ;   ",
"  c * u ] ^ / ( _ : < [ [ [ [ o v ;   ",
"  c * r } ^ / ( _ : < [ [ [ [ w v x   ",
"  j l u ] ^ / ( _ : < [ [ [ [ y v z   ",
"  c * u } ^ / ( _ : < [ [ [ [ y v =   ",
"  j l A ] ^ / ( _ : < [ [ [ [ y v =   ",
"  o l A } ^ / ( _ : < [ [ [ [ y v B   ",
"  o l C ] ^ / ( _ : < [ [ [ [ D E B   ",
"  o q F } ^ / ( _ : < [ [ [ [ D E B   ",
"  o q F ] ^ / ( _ : < [ [ [ [ D E B   ",
"  o q F } ^ / ( _ : < [ [ [ [ D G B   ",
"  o q F ] ^ / ( _ : < [ [ [ [ D H I   ",
"  J t F } ^ / ( _ : < [ [ [ [ K L M   ",
"  y v N ] ^ / ( _ : < [ [ [ [ D G M   ",
"  y v N } ^ / ( _ : < [ [ [ [ D G M   ",
"  y O N ] ^ / ( _ : < [ [ [ [ + G P   ",
"  y O v } ^ / ( _ : < [ [ [ [ D O P   ",
"  y Q G y y y y y y y y y y y G Q P   ",
"  P R Q E H L E G G G O O O O Q R P   ",
"    P B B I M I P P P P P P P P P     ",
"      2 Q S T U V W X Y Z ` R M       ",
"        2  .` ..+.@.#.$.%.R P         ",
"          B B B = B M &.P M           "};
