/* XPM */
static char * density_light_xpm[] = {
"18 18 3 1",
" 	c None",
".	c #000000",
"+	c #CCCCCC",
"      ......      ",
"    ..++++++..    ",
"   .++++++++++.   ",
"  .++++++++++++.  ",
" .++++++++++++++. ",
" .++++++++++++++. ",
".++++++++++++++++.",
".++++++++++++++++.",
".++++++++++++++++.",
".++++++++++++++++.",
".++++++++++++++++.",
".++++++++++++++++.",
" .++++++++++++++. ",
" .++++++++++++++. ",
"  .++++++++++++.  ",
"   .++++++++++.   ",
"    ..++++++..    ",
"      ......      "};
