/* XPM */
static char * Icon_Refll_xpm[] = {
"19 17 155 2",
"  	c None",
". 	c #C7CCD2",
"+ 	c #C6C8CB",
"@ 	c #C5C8CD",
"# 	c #BBBFC6",
"$ 	c #B1BAC8",
"% 	c #CBD0D6",
"& 	c #D9D9D9",
"* 	c #EBEBEC",
"= 	c #F0F2F3",
"- 	c #F1F3F6",
"; 	c #EAEEF2",
"> 	c #DBDFE5",
", 	c #B6BDC9",
"' 	c #99A9BF",
") 	c #C9CACB",
"! 	c #E8E9E9",
"~ 	c #F7F9FB",
"{ 	c #F8FBFE",
"] 	c #F5F9FE",
"^ 	c #F3F9FD",
"/ 	c #F1F8FD",
"( 	c #F1F8FE",
"_ 	c #E7EFF6",
": 	c #C1CBDB",
"< 	c #7F8FAC",
"[ 	c #C0C4CB",
"} 	c #E9EAEB",
"| 	c #F8FAFC",
"1 	c #F4F9FD",
"2 	c #526FB5",
"3 	c #062D92",
"4 	c #032B91",
"5 	c #2C4FA4",
"6 	c #DEEAF8",
"7 	c #E3EDF9",
"8 	c #B3C1D7",
"9 	c #7386AA",
"0 	c #D0D2D8",
"a 	c #7D94C8",
"b 	c #2F51A5",
"c 	c #9BAFD8",
"d 	c #4B6AB3",
"e 	c #4464B0",
"f 	c #DFEDFC",
"g 	c #CBDBF0",
"h 	c #8192B4",
"i 	c #B3BAC7",
"j 	c #E2E4E9",
"k 	c #F5FAFE",
"l 	c #EFF5FD",
"m 	c #90A5D2",
"n 	c #5370B6",
"o 	c #D8E5F5",
"p 	c #E6F1FD",
"q 	c #9EB2DB",
"r 	c #3154A8",
"s 	c #D8EAFB",
"t 	c #CEE1F7",
"u 	c #95A7C8",
"v 	c #677EA5",
"w 	c #ADB3C2",
"x 	c #EDF5FD",
"y 	c #E9F3FD",
"z 	c #E8F2FD",
"A 	c #E4F0FD",
"B 	c #A7BBE0",
"C 	c #083094",
"D 	c #042C91",
"E 	c #7F9BCF",
"F 	c #D2E6FB",
"G 	c #C9DFF7",
"H 	c #9AAFD2",
"I 	c #566E9B",
"J 	c #A5AFBF",
"K 	c #E6ECF4",
"L 	c #E3EFFC",
"M 	c #98AFD9",
"N 	c #0E3596",
"O 	c #89A4D5",
"P 	c #D0E5FA",
"Q 	c #CCE3FA",
"R 	c #C3DBF6",
"S 	c #96ADD4",
"T 	c #556D9A",
"U 	c #95A2B9",
"V 	c #D9E2EE",
"W 	c #E1EFFC",
"X 	c #DDEDFC",
"Y 	c #6482C1",
"Z 	c #87A3D5",
"` 	c #CFE4FA",
" .	c #CBE2FA",
"..	c #C8E0FA",
"+.	c #BAD3F2",
"@.	c #89A0C9",
"#.	c #516A9A",
"$.	c #8C9DBA",
"%.	c #BFCBDD",
"&.	c #E2EEFB",
"*.	c #9EB6DF",
"=.	c #4D6EB7",
"-.	c #C3DAF5",
";.	c #C9E2FA",
">.	c #C3DDF9",
",.	c #ACC7E9",
"'.	c #7B93BE",
").	c #58729F",
"!.	c #919EBB",
"~.	c #CADBEE",
"{.	c #D7E8FB",
"].	c #5F7EC1",
"^.	c #0B3295",
"/.	c #85A2D6",
"(.	c #C6DFFA",
"_.	c #B5D1F0",
":.	c #90ABD4",
"<.	c #6479A6",
"[.	c #7B8FB2",
"}.	c #9BACC9",
"|.	c #C1D4EE",
"1.	c #CCE0F8",
"2.	c #CDE3F9",
"3.	c #2348A2",
"4.	c #8AA7D9",
"5.	c #C1DBF8",
"6.	c #B2CEEF",
"7.	c #92ADD7",
"8.	c #788FBB",
"9.	c #506B99",
"0.	c #62769E",
"a.	c #889AC0",
"b.	c #A4BBDD",
"c.	c #B6CDEB",
"d.	c #BAD2F1",
"e.	c #B8D1F1",
"f.	c #B2CBEC",
"g.	c #A2BDE2",
"h.	c #8DA6D1",
"i.	c #748BB7",
"j.	c #4B6496",
"k.	c #657EA8",
"l.	c #677BA4",
"m.	c #7D91BB",
"n.	c #859BC7",
"o.	c #88A1CB",
"p.	c #819AC4",
"q.	c #768DB9",
"r.	c #5D73A1",
"s.	c #5E78A1",
"t.	c #6A82AC",
"u.	c #556F9E",
"v.	c #506997",
"w.	c #526E9B",
"x.	c #677FA7",
"              . + @ # $               ",
"          % & * = - ; > , '           ",
"        ) ! ~ { ] ^ / ( _ : <         ",
"      [ } | 1 2 3 4 4 5 6 7 8 9       ",
"      0 ~ 1 a 4 b c d 4 e f g h       ",
"    i j k l m n o p q 4 r s t u v     ",
"    w ; / x y z A B C D E F G H I     ",
"    J K x z p L M D N O P Q R S T     ",
"    U V z A W X Y 4 Z `  ...+.@.#.    ",
"    $.%.&.f X s *.=.-.;...>.,.'.).    ",
"      !.~.{.{.F ].^./.(.>._.:.<.      ",
"      [.}.|.1.2.].3.4.5.6.7.8.9.      ",
"        0.a.b.c.d.e.f.g.h.i.j.        ",
"          k.l.m.n.o.p.q.r.s.          ",
"              t.u.v.w.x.              ",
"                                      ",
"                                      "};
