/* XPM */
static char * Ink_24cf_xpm[] = {
"20 46 8 1",
" 	c None",
".	c #000000",
"+	c #808080",
"@	c #FFFFFF",
"#	c #C0C0C0",
"$	c #00FFFF",
"%	c #FF00FF",
"&	c #FFFF00",
"       ........     ",
"  ++++.@@@@@@@#.++++",
" +.....@######+.....",
"+....+.@######+.+...",
"+....+.@######+.+...",
"+......@######+.....",
"+..##++++++++++++##.",
"+..#+$$$$%%%%&&&&+#.",
"+..#+$$$$%%%%&&&&+#.",
"+..#+$$$$%%%%&&&&+#.",
"+..#+$$$$%%%%&&&&+#.",
"+..#+$$$$%%%%&&&&+#.",
"+..#+$$$$%%%%&&&&+#.",
"+..#+$$$$%%%%&&&&+#.",
"+..#+$$$$%%%%&&&&+#.",
"+..#+$$$$%%%%&&&&+#.",
"+..#+$$$$%%%%&&&&+#.",
"+..#+$$$$%%%%&&&&+#.",
"+..#+$$$$%%%%&&&&+#.",
"+..#+$$$$%%%%&&&&+#.",
"+..#+$$$$%%%%&&&&+#.",
"+..#+$$$$%%%%&&&&+#.",
"+..#+$$$$%%%%&&&&+#.",
"+..#+$$$$%%%%&&&&+#.",
"+..#+$$$$%%%%&&&&+#.",
"+..#+$$$$%%%%&&&&+#.",
"+..#+$$$$%%%%&&&&+#.",
"+..#+$$$$%%%%&&&&+#.",
"+..#+$$$$%%%%&&&&+#.",
"+..#+$$$$%%%%&&&&+#.",
"+..#+$$$$%%%%&&&&+#.",
"+..#+$$$$%%%%&&&&+#.",
"+..#+$$$$%%%%&&&&+#.",
"+..#+$$$$%%%%&&&&+#.",
"+..#+$$$$%%%%&&&&+#.",
"+..#+$$$$%%%%&&&&+#.",
"+..#+$$$$%%%%&&&&+#.",
"+..#+$$$$%%%%&&&&+#.",
"+..#+$$$$%%%%&&&&+#.",
"+..#++++++++++++++#.",
"+...................",
"+...................",
"+...................",
"+...................",
"+...................",
"++++++++++++++++++++"};
