/* XPM */
static char * Ink_24b3_xpm[] = {
"20 53 4 1",
" 	c None",
".	c #808080",
"+	c #FFFFFF",
"@	c #000000",
"       .....        ",
"     ..+++++..      ",
"    .++@@@@@++.     ",
"   .++@@@@@@@++@    ",
"   .++@@+++@@++@    ",
"  .+++@.+++@@+++@   ",
"  .+++++++@@.+++@   ",
"  .++++++@@.++++@   ",
"  .+++++@@.+++++@   ",
"  .+++++.@.+++++@   ",
"   .+++++++++++@    ",
"   .++++.@@++++@    ",
"    @+++@@@+++@     ",
"     @@+++++@@      ",
"       @@@@@        ",
"                    ",
"                    ",
"                    ",
"                    ",
"                    ",
"                    ",
"                    ",
"                    ",
"                    ",
"                    ",
"   ++++++++++++     ",
"   ++++++++++++     ",
"   ++++++++++++     ",
"   ++++++++++++     ",
"   ++++++++++++     ",
"   ++++++++++++     ",
"   @++++@++++@+     ",
"   ++++++++++++     ",
"   ++@+++++@+++     ",
"   ++++++++++++     ",
"   @+@+@+@+@+@+     ",
"   +@+++++@++++     ",
"   @+@+@+@+@+@+     ",
"   +++@+++++@++     ",
"   @+@+@+@+@+@+     ",
"   +@+++@+@+@+@     ",
"   @+@+@+@+@+@+     ",
"   +++@+@+@+@++     ",
"   @+@+@+@+@+@+     ",
"   +@+@+@+@+@+@     ",
"   @+@+@+@+@+@+     ",
"   +@+@+@+@+@+@     ",
"   @@@+@@@@@+@@     ",
"   +@+@+@+@+@+@     ",
"   @+@@@+@+@@@+     ",
"   +@+@+@+@+@+@     ",
"   @@@@@@@@@@@@     ",
"   +@+@+@+@+@+@     "};
