/* XPM */
static char * contrast_low_xpm[] = {
"18 18 4 1",
" 	c None",
".	c #000000",
"+	c #CCCCCC",
"@	c #808080",
"      ......      ",
"    ..+++@@@..    ",
"   .+++++@@@@@.   ",
"  .++++++@@@@@@.  ",
" .+++++++@@@@@@.. ",
" .+++++++@@@@@@@. ",
".++++++++@@@@@@@@.",
".++++++++@@@@@@@@.",
".++++++++@@@@@@@@.",
".++++++++@@@@@@@@.",
".++++++++@@@@@@@@.",
".++++++++@@@@@@@@.",
" .+++++++@@@@@@@. ",
" .+++++++@@@@@@@. ",
"  .++++++@@@@@@.  ",
"   .+++++@@@@@.   ",
"    ..+++@@@..    ",
"      ......      "};
