/* XPM */
static char * Ink_Level_uk_xpm[] = {
"19 49 194 2",
"  	c None",
". 	c #BBBCBF",
"+ 	c #B1B2B5",
"@ 	c #B0B1B4",
"# 	c #B9BABD",
"$ 	c #A0A2A3",
"% 	c #605F60",
"& 	c #A3A4A6",
"* 	c #9C9D9F",
"= 	c #535353",
"- 	c #535453",
"; 	c #545454",
"> 	c #595A59",
", 	c #5A595A",
"' 	c #5A5A5B",
") 	c #5B5B5C",
"! 	c #5C5B5C",
"~ 	c #A2A3A4",
"{ 	c #686869",
"] 	c #E7E7E7",
"^ 	c #E3E3E3",
"/ 	c #DBDBDB",
"( 	c #D5D5D6",
"_ 	c #D6D6D6",
": 	c #DCDCDC",
"< 	c #FFFFFF",
"[ 	c #FEFFFF",
"} 	c #E4E4E4",
"| 	c #D5D6D6",
"1 	c #FFFEFF",
"2 	c #B8B9BC",
"3 	c #9FA0A2",
"4 	c #5E5E5F",
"5 	c #FFFEFE",
"6 	c #E2E2E2",
"7 	c #BABBBE",
"8 	c #D6D6D7",
"9 	c #FEFDFE",
"0 	c #FEFEFE",
"a 	c #69696A",
"b 	c #D6D7D7",
"c 	c #FDFCFC",
"d 	c #FDFDFD",
"e 	c #FCFDFD",
"f 	c #E0E0E0",
"g 	c #B7B8BB",
"h 	c #A09FA1",
"i 	c #6A6A6C",
"j 	c #E6E7E7",
"k 	c #D7D7D7",
"l 	c #FBFBFB",
"m 	c #FCFCFC",
"n 	c #9E9FA0",
"o 	c #5C5C5D",
"p 	c #E6E6E6",
"q 	c #E6E6E7",
"r 	c #E2E3E3",
"s 	c #D7D6D7",
"t 	c #FBFAFA",
"u 	c #FAFAFB",
"v 	c #B9BBBE",
"w 	c #F9F9F9",
"x 	c #FAFAFA",
"y 	c #5B5C5C",
"z 	c #D8D7D7",
"A 	c #DDDCDC",
"B 	c #F8F9F8",
"C 	c #F9F8F9",
"D 	c #E0DEE0",
"E 	c #6C6C6D",
"F 	c #D8D8D8",
"G 	c #DDDDDD",
"H 	c #F7F8F8",
"I 	c #F8F8F8",
"J 	c #F6F6F6",
"K 	c #F7F7F7",
"L 	c #DEDEDE",
"M 	c #B6B7BA",
"N 	c #D8D9D9",
"O 	c #D9D9D9",
"P 	c #F4F5F4",
"Q 	c #DEDEE0",
"R 	c #6D6D6E",
"S 	c #E4E4E3",
"T 	c #DDDEDE",
"U 	c #F3F3F3",
"V 	c #F5F5F5",
"W 	c #59595A",
"X 	c #D9D9DA",
"Y 	c #DADADA",
"Z 	c #DFDEDE",
"` 	c #F2F2F2",
" .	c #F4F4F3",
"..	c #B5B7BA",
"+.	c #595959",
"@.	c #E4E5E4",
"#.	c #DFDFDF",
"$.	c #F1F1F1",
"%.	c #B8B9BB",
"&.	c #6E6E70",
"*.	c #E7E8E8",
"=.	c #E8E8E8",
"-.	c #E5E5E5",
";.	c #DFDFE0",
">.	c #F0F0EF",
",.	c #B5B6B9",
"'.	c #575758",
").	c #EFEFEF",
"!.	c #9B9C9E",
"~.	c #E9E9E9",
"{.	c #E5E6E6",
"].	c #E0E1E1",
"^.	c #E1E1E1",
"/.	c #EEEEEE",
"(.	c #F0F0F0",
"_.	c #565757",
":.	c #706F71",
"<.	c #B4B5B8",
"[.	c #555656",
"}.	c #EAEAEA",
"|.	c #EDEDED",
"1.	c #EFEFF0",
"2.	c #9A9B9C",
"3.	c #E7E7E8",
"4.	c #ECEDED",
"5.	c #707072",
"6.	c #EBEBEB",
"7.	c #E8E9E9",
"8.	c #555655",
"9.	c #EBEBEC",
"0.	c #E1E1E2",
"a.	c #ECECEC",
"b.	c #9A9A9B",
"c.	c #727273",
"d.	c #999A9B",
"e.	c #E6E6E8",
"f.	c #B4B5B7",
"g.	c #535354",
"h.	c #B3B4B7",
"i.	c #535454",
"j.	c #737375",
"k.	c #EDEDEE",
"l.	c #E9EAEA",
"m.	c #EFEEEF",
"n.	c #F0F0F1",
"o.	c #EEEEEF",
"p.	c #E9E8E8",
"q.	c #F1F2F2",
"r.	c #525152",
"s.	c #747475",
"t.	c #F3F2F3",
"u.	c #B2B3B6",
"v.	c #98999A",
"w.	c #757476",
"x.	c #EEEDED",
"y.	c #F4F4F4",
"z.	c #979899",
"A.	c #F4F4F5",
"B.	c #F4F5F5",
"C.	c #EDEEEE",
"D.	c #F5F6F5",
"E.	c #97989A",
"F.	c #515050",
"G.	c #B3B5B8",
"H.	c #F4F3F4",
"I.	c #B1B3B6",
"J.	c #989899",
"K.	c #4F5050",
"L.	c #767778",
"M.	c #EFF0F0",
"N.	c #FAFAF9",
"O.	c #969798",
"P.	c #F1F2F1",
"Q.	c #F9F9F8",
"R.	c #4F4F4F",
"S.	c #8A8A8B",
"T.	c #79797A",
"U.	c #979798",
"V.	c #959597",
"W.	c #939394",
"X.	c #919293",
"Y.	c #909091",
"Z.	c #8E8D8F",
"`.	c #8C8C8C",
" +	c #89898A",
".+	c #878788",
"++	c #888889",
"@+	c #868686",
"#+	c #838384",
"$+	c #818182",
"%+	c #7F7F81",
"&+	c #7D7D7E",
"*+	c #7B7B7C",
"=+	c #4F504F",
"    . . . . . . . . . . . . . . .     ",
"  . . + + + + + @ @ @ @ @ @ @ # $ %   ",
"  . & * = = - ; > , ' ' ) ! ! # $ %   ",
"  . ~ { ] ] ] ^ / ( _ : < [ } # $ %   ",
"  . ~ { ] ] ] ^ / | _ : [ 1 } 2 3 4   ",
"  . & { ] ] ] ^ / _ _ : 5 1 6 # 3 4   ",
"  7 ~ { ] ] ] ^ / _ 8 : 9 0 6 2 3 4   ",
"  7 ~ a ] ] ] ^ / _ b : c d 6 2 3 4   ",
"  7 ~ a ] ] ] ^ / _ 8 : c e f g h 4   ",
"  7 ~ i ] j j ^ / _ k : l m f 2 n o   ",
"  7 ~ i p q q r : s k : t u f g n !   ",
"  v $ i p p p ^ : k k : w x f g n y   ",
"  # $ i p p p ^ : k z A B C D g n )   ",
"  # $ E p p p ^ : k F G H I f g n '   ",
"  # $ E j q q ^ G F F G J K L M * '   ",
"  # 3 E ] ] ] ^ G N O G P J Q M * ,   ",
"  2 3 R ] ] ] S G O O T U V Q M * W   ",
"  2 3 R ] ] ] } L X Y Z `  .Q ..* +.  ",
"  2 3 R ] ] ] @.#.Y / #.$.U f M * +.  ",
"  %.3 &.*.=.*.-.#./ / ;.>.` f ,.* '.  ",
"  g n &.=.=.=.-.f : : f ).$.f ,.!.'.  ",
"  g n &.~.~.~.{.].G G ^./.(.f ,.!._.  ",
"  g n :.~.~.~.q ^.G T ^./.(.f <.!.[.  ",
"  g n :.}.}.}.] 6 L #.6 |.1.6 <.2.[.  ",
"  M n :.}.}.}.3.^ #.#.^ 4.).6 <.2.[.  ",
"  M * 5.6.6.6.7.} f ^.} |.).} <.2.8.  ",
"  M * 5.9.6.6.~.-.^.0.-.a.).} <.b.;   ",
"  M * c.a.a.a.}.{.r ^ p a.1.p <.d.;   ",
"  M * 5.|.|.|.6.] ^ } ] |.(.e.f.d.g.  ",
"  ,.!.c./././.9.=.-.-.=.|.(.=.h.d.i.  ",
"  M * c.).).).|.~.p p ~./.(.=.h.d.=   ",
"  ,.!.j.).).).k.l.] ] }.m.$.~.h.d.=   ",
"  <.!.j.n.(.n.o.6.=.p.6.o.q.6.h.d.r.  ",
"  <.!.s.$.$.$.).a.~.~.a.).t.V u.v.r.  ",
"  <.2.w.` ` ` (.|.}.6.|.(.U J u.v.r.  ",
"  <.2.w.U U U $.x.6.6./.$.y.K u.v.r.  ",
"  <.2.w.y.y.y.` ).|.|.).` V H u.z.r.  ",
"  <.2.w.A.B.P U (.k.C.(.U D.I u.E.F.  ",
"  G.b.w.V V V H.$.).).$.y.J w I.J.K.  ",
"  h.d.L.J J J V ` ).M.` V K N.u.z.K.  ",
"  h.d.L.K K K V U $.$.U V I x u.z.K.  ",
"  h.O.L.K K K J U $.P.U J Q.l + z.R.  ",
"  h.O.d.I I I K y.` ` y.K w l u.O.R.  ",
"  h.S.z.h.h.h.h.h.h.h.h.h.h.h.z.S.R.  ",
"  R.T.S.v.E.J.v.z.z.z.O.O.O.O.S.T.R.  ",
"    R.r.r.F.K.F.R.R.R.R.R.R.R.R.R.    ",
"      4 S.U.V.W.X.Y.Z.`. +.+T.K.      ",
"        4 ++.+@+#+$+%+&+*+T.R.        ",
"          r.r.r.= r.K.=+R.K.          "};
