/* XPM */
static char * ink_bk[] = {
"17 48 6 1",
" 	c None",
".	c #000000",
"+	c #008080",
"@	c #C0C0C0",
"#	c #808080",
"$	c #FFFFFF",
".................",
"+++++++++++++++++",
"+++++++++++++++++",
"+++++++++++++++++",
"+++++++++++++++++",
"++.............++",
"+.@@#########@@.+",
"+.@#$$$$$$$$$#@.+",
"+.@#.........#@.+",
"+.$#.........#@.+",
"+.$#.........#@.+",
"+.$#.........#@.+",
"+.$#.........#@.+",
"+.$#.........#@.+",
"+.$#.........#@.+",
"+.$#.........#@.+",
"+.$#.........#@.+",
"+.$#.........#@.+",
"+.$#.........#@.+",
"+.$#.........#@.+",
"+.$#.........#@.+",
"+.$#.........#@.+",
"+.$#.........#@.+",
"+.$#.........#@.+",
"+.$#.........#@.+",
"+.$#.........#@.+",
"+.$#.........#@.+",
"+.$#.........#@.+",
"+.$#.........#@.+",
"+.$#.........#@.+",
"+.$#.........#@.+",
"+.$#.........#@.+",
"+.$#.........#@.+",
"+.$#.........#@.+",
"+.$#.........#@.+",
"+.$#.........#@.+",
"+.$#.........#@.+",
"+.$#.........#@.+",
"+.$#.........#@.+",
"+.$#.........#@.+",
"+.@###########@.+",
"++.............++",
"++++.........++++",
"++++.@@@@@@@.++++",
"+++++.......+++++",
"+++++++++++++++++",
"+++++++++++++++++",
"................."};
