/* XPM */
static char * Ink_16_Under_xpm[] = {
"34 51 4 1",
" 	c None",
".	c #808080",
"+	c #C0C0C0",
"@	c #000000",
"                                  ",
"                                  ",
"                                  ",
"                                  ",
"                                  ",
"                                  ",
"                                  ",
"                                  ",
"                                  ",
"                                  ",
"                                  ",
"                                  ",
"                                  ",
"                                  ",
"                                  ",
"                                  ",
"                                  ",
"                                  ",
"                                  ",
"                                  ",
"                                  ",
"                                  ",
"                                  ",
"                                  ",
"                                  ",
"                                  ",
"                                  ",
"                                  ",
"                                  ",
"                                  ",
"                                  ",
"                                  ",
"                                  ",
"                                  ",
"                                  ",
"                                  ",
"                                  ",
"                                  ",
"                                  ",
"                                  ",
"                                  ",
"                                  ",
"                                 .",
" +++@@@@@@@..                     ",
"     @.@.@@                       ",
"     @@.@.@                       ",
"   .@@.@.@.@@@@.                  ",
"   @...........@                  ",
"   @+++++++++++@                  ",
"   @+++++++++++@                  ",
"    @@@@@@@@@@@                   "};
