/* XPM */
static char * contrast_bar_xpm[] = {
"235 4 559 2",
"  	c None",
". 	c #808080",
"+ 	c #807F7F",
"@ 	c #7F7F7F",
"# 	c #7F7E7F",
"$ 	c #7E7F7E",
"% 	c #7E7E7E",
"& 	c #7E7D7E",
"* 	c #7D7E7D",
"= 	c #7D7C7D",
"- 	c #7D7D7D",
"; 	c #7C7D7C",
"> 	c #7C7C7C",
", 	c #7B7B7B",
"' 	c #7A7B7B",
") 	c #7B7A7A",
"! 	c #7A7A7A",
"~ 	c #797979",
"{ 	c #797978",
"] 	c #797878",
"^ 	c #787877",
"/ 	c #777777",
"( 	c #767676",
"_ 	c #757575",
": 	c #757574",
"< 	c #747474",
"[ 	c #747473",
"} 	c #737373",
"| 	c #727272",
"1 	c #727171",
"2 	c #707170",
"3 	c #707070",
"4 	c #6F7070",
"5 	c #6F706F",
"6 	c #6E6F6E",
"7 	c #6E6E6E",
"8 	c #6D6D6D",
"9 	c #6D6C6C",
"0 	c #6C6C6C",
"a 	c #6C6B6C",
"b 	c #6B6B6B",
"c 	c #6A6A6B",
"d 	c #69696A",
"e 	c #696969",
"f 	c #696868",
"g 	c #686867",
"h 	c #676767",
"i 	c #676667",
"j 	c #666666",
"k 	c #666565",
"l 	c #646565",
"m 	c #656464",
"n 	c #636464",
"o 	c #636363",
"p 	c #636262",
"q 	c #616262",
"r 	c #616161",
"s 	c #606161",
"t 	c #606060",
"u 	c #605F60",
"v 	c #5F5E5F",
"w 	c #5E5E5E",
"x 	c #5D5D5D",
"y 	c #5C5C5D",
"z 	c #5B5C5B",
"A 	c #5B5B5B",
"B 	c #5A5A5A",
"C 	c #5A5A59",
"D 	c #595959",
"E 	c #585858",
"F 	c #575757",
"G 	c #565757",
"H 	c #565655",
"I 	c #555555",
"J 	c #555455",
"K 	c #535454",
"L 	c #535353",
"M 	c #535352",
"N 	c #525252",
"O 	c #515251",
"P 	c #505151",
"Q 	c #505050",
"R 	c #4F4F4F",
"S 	c #4F4E4E",
"T 	c #4E4D4E",
"U 	c #4D4E4E",
"V 	c #4C4D4C",
"W 	c #4C4C4C",
"X 	c #4B4B4B",
"Y 	c #4A4B4A",
"Z 	c #4A4A4A",
"` 	c #494949",
" .	c #484949",
"..	c #484848",
"+.	c #474747",
"@.	c #464747",
"#.	c #464646",
"$.	c #464546",
"%.	c #444544",
"&.	c #444444",
"*.	c #434343",
"=.	c #424242",
"-.	c #424142",
";.	c #414141",
">.	c #404040",
",.	c #403F40",
"'.	c #3F3F3F",
").	c #3F3E3E",
"!.	c #3E3E3E",
"~.	c #3D3D3D",
"{.	c #3C3C3C",
"].	c #3B3C3C",
"^.	c #3B3B3B",
"/.	c #3A3A3A",
"(.	c #383938",
"_.	c #383838",
":.	c #373837",
"<.	c #373737",
"[.	c #373636",
"}.	c #353636",
"|.	c #353535",
"1.	c #343534",
"2.	c #333333",
"3.	c #323232",
"4.	c #313231",
"5.	c #313131",
"6.	c #303031",
"7.	c #302F30",
"8.	c #2F2F2F",
"9.	c #2E2E2E",
"0.	c #2D2D2E",
"a.	c #2C2D2D",
"b.	c #2C2C2C",
"c.	c #2C2C2B",
"d.	c #2B2B2B",
"e.	c #2B2A2A",
"f.	c #29292A",
"g.	c #292929",
"h.	c #282928",
"i.	c #282727",
"j.	c #272727",
"k.	c #272627",
"l.	c #252626",
"m.	c #252525",
"n.	c #252424",
"o.	c #232324",
"p.	c #232323",
"q.	c #222323",
"r.	c #222222",
"s.	c #222221",
"t.	c #212121",
"u.	c #202020",
"v.	c #1F1F1F",
"w.	c #1E1E1F",
"x.	c #1E1E1E",
"y.	c #1D1D1D",
"z.	c #1C1D1C",
"A.	c #1C1C1C",
"B.	c #1B1C1C",
"C.	c #1B1B1A",
"D.	c #1A1B1A",
"E.	c #1A1A1A",
"F.	c #191919",
"G.	c #181918",
"H.	c #181818",
"I.	c #171718",
"J.	c #171717",
"K.	c #161616",
"L.	c #161516",
"M.	c #151515",
"N.	c #141415",
"O.	c #141414",
"P.	c #131413",
"Q.	c #131313",
"R.	c #121312",
"S.	c #121212",
"T.	c #111111",
"U.	c #101110",
"V.	c #101010",
"W.	c #0F1010",
"X.	c #0F0E0F",
"Y.	c #0E0E0E",
"Z.	c #0E0D0E",
"`.	c #0E0E0D",
" +	c #0D0D0D",
".+	c #0C0D0D",
"++	c #0C0C0C",
"@+	c #0B0B0B",
"#+	c #0B0C0B",
"$+	c #0A0A0A",
"%+	c #090909",
"&+	c #0A0A09",
"*+	c #080808",
"=+	c #070707",
"-+	c #060606",
";+	c #050505",
">+	c #050404",
",+	c #040504",
"'+	c #040404",
")+	c #030303",
"!+	c #020202",
"~+	c #010201",
"{+	c #010101",
"]+	c #000001",
"^+	c #7E7F7F",
"/+	c #7F7E7E",
"(+	c #7D7D7E",
"_+	c #7D7C7C",
":+	c #7B7C7B",
"<+	c #7A7A7B",
"[+	c #7A7A79",
"}+	c #797A79",
"|+	c #787978",
"1+	c #787878",
"2+	c #777778",
"3+	c #767677",
"4+	c #767675",
"5+	c #747574",
"6+	c #737372",
"7+	c #717171",
"8+	c #707171",
"9+	c #706F70",
"0+	c #6F6F6F",
"a+	c #6F6F6E",
"b+	c #6F6E6E",
"c+	c #6E6D6D",
"d+	c #6D6C6D",
"e+	c #6C6B6B",
"f+	c #6A6B6B",
"g+	c #696A6A",
"h+	c #6A696A",
"i+	c #686868",
"j+	c #676867",
"k+	c #666766",
"l+	c #656665",
"m+	c #646464",
"n+	c #646363",
"o+	c #626261",
"p+	c #616261",
"q+	c #5F605F",
"r+	c #5F5F5F",
"s+	c #5E5E5D",
"t+	c #5B5C5C",
"u+	c #5A5A5B",
"v+	c #5A5959",
"w+	c #585859",
"x+	c #585857",
"y+	c #565656",
"z+	c #545354",
"A+	c #535453",
"B+	c #515150",
"C+	c #4F4F4E",
"D+	c #4E4E4D",
"E+	c #4D4D4E",
"F+	c #4D4D4C",
"G+	c #4B4C4C",
"H+	c #4B4C4B",
"I+	c #4A4A4B",
"J+	c #494A49",
"K+	c #494948",
"L+	c #474748",
"M+	c #474746",
"N+	c #454645",
"O+	c #444343",
"P+	c #434242",
"Q+	c #414142",
"R+	c #414040",
"S+	c #40403F",
"T+	c #3E3F3E",
"U+	c #3E3D3D",
"V+	c #3C3D3D",
"W+	c #39393A",
"X+	c #393939",
"Y+	c #373838",
"Z+	c #373736",
"`+	c #363636",
" @	c #353534",
".@	c #343434",
"+@	c #323333",
"@@	c #302F2F",
"#@	c #2E2E2D",
"$@	c #2D2D2D",
"%@	c #2A2A2A",
"&@	c #292A2A",
"*@	c #282828",
"=@	c #272827",
"-@	c #272626",
";@	c #262625",
">@	c #252425",
",@	c #242423",
"'@	c #232222",
")@	c #202121",
"!@	c #202021",
"~@	c #1F1F20",
"{@	c #1E1F1F",
"]@	c #1E1E1D",
"^@	c #1C1C1D",
"/@	c #1B1B1B",
"(@	c #191A1A",
"_@	c #171616",
":@	c #151615",
"<@	c #141514",
"[@	c #131314",
"}@	c #131212",
"|@	c #121111",
"1@	c #101111",
"2@	c #10100F",
"3@	c #0E0F0F",
"4@	c #0E0E0F",
"5@	c #0D0E0E",
"6@	c #0D0D0E",
"7@	c #0D0C0C",
"8@	c #0C0C0B",
"9@	c #09090A",
"0@	c #080807",
"a@	c #080707",
"b@	c #060607",
"c@	c #030403",
"d@	c #030202",
"e@	c #030203",
"f@	c #020203",
"g@	c #020101",
"h@	c #010001",
"i@	c #010100",
"j@	c #C0C0C0",
"k@	c #C1C1C0",
"l@	c #C1C1C1",
"m@	c #C0C1C1",
"n@	c #C2C1C1",
"o@	c #C1C2C2",
"p@	c #C2C2C2",
"q@	c #C2C3C2",
"r@	c #C2C2C3",
"s@	c #C3C2C2",
"t@	c #C3C3C3",
"u@	c #C4C4C4",
"v@	c #C4C3C3",
"w@	c #C5C4C5",
"x@	c #C5C4C4",
"y@	c #C5C5C5",
"z@	c #C6C5C6",
"A@	c #C6C6C5",
"B@	c #C6C6C6",
"C@	c #C6C6C7",
"D@	c #C7C6C7",
"E@	c #C7C7C7",
"F@	c #C7C8C7",
"G@	c #C8C8C8",
"H@	c #C9C9C8",
"I@	c #C9C9C9",
"J@	c #CACAC9",
"K@	c #CAC9CA",
"L@	c #CACACA",
"M@	c #CACACB",
"N@	c #CACBCA",
"O@	c #CBCACB",
"P@	c #CBCCCB",
"Q@	c #CCCBCB",
"R@	c #CCCCCC",
"S@	c #CDCCCC",
"T@	c #CDCCCD",
"U@	c #CDCDCD",
"V@	c #CECDCD",
"W@	c #CECECE",
"X@	c #CFCFCF",
"Y@	c #CECFCF",
"Z@	c #D0D0D0",
"`@	c #D1D1D1",
" #	c #D2D1D2",
".#	c #D2D2D2",
"+#	c #D3D2D2",
"@#	c #D2D3D2",
"##	c #D3D3D3",
"$#	c #D4D3D3",
"%#	c #D4D4D4",
"&#	c #D5D4D4",
"*#	c #D5D5D5",
"=#	c #D6D5D5",
"-#	c #D6D5D6",
";#	c #D6D6D6",
">#	c #D7D7D6",
",#	c #D7D7D7",
"'#	c #D8D8D7",
")#	c #D7D8D8",
"!#	c #D8D8D8",
"~#	c #D9D8D9",
"{#	c #D9D9D9",
"]#	c #DAD9DA",
"^#	c #DADADA",
"/#	c #DADBDB",
"(#	c #DBDBDB",
"_#	c #DBDCDB",
":#	c #DCDCDB",
"<#	c #DCDCDC",
"[#	c #DDDDDC",
"}#	c #DCDCDD",
"|#	c #DDDDDD",
"1#	c #DEDEDE",
"2#	c #DEDFDF",
"3#	c #DFDFDF",
"4#	c #E0DFDF",
"5#	c #E0E0E0",
"6#	c #E0E1E0",
"7#	c #E1E1E1",
"8#	c #E2E2E2",
"9#	c #E3E2E3",
"0#	c #E3E3E3",
"a#	c #E3E4E4",
"b#	c #E4E4E4",
"c#	c #E5E4E5",
"d#	c #E5E5E4",
"e#	c #E5E5E5",
"f#	c #E5E6E6",
"g#	c #E6E6E6",
"h#	c #E7E7E7",
"i#	c #E7E8E7",
"j#	c #E8E7E7",
"k#	c #E8E8E8",
"l#	c #E9E9E8",
"m#	c #E9E9E9",
"n#	c #EAE9E9",
"o#	c #EAEAEA",
"p#	c #EAEBEA",
"q#	c #EAEBEB",
"r#	c #EBEBEB",
"s#	c #ECEBEC",
"t#	c #ECECEC",
"u#	c #EDEDED",
"v#	c #EDECED",
"w#	c #EDEEED",
"x#	c #EDEEEE",
"y#	c #EEEDEE",
"z#	c #EEEEEE",
"A#	c #EFEFEE",
"B#	c #EFEFEF",
"C#	c #EFEFF0",
"D#	c #F0F0F0",
"E#	c #EFF0F0",
"F#	c #F0F1F0",
"G#	c #F1F1F0",
"H#	c #F1F1F1",
"I#	c #F2F2F1",
"J#	c #F2F1F1",
"K#	c #F2F2F2",
"L#	c #F2F2F3",
"M#	c #F3F3F3",
"N#	c #F2F3F3",
"O#	c #F3F4F3",
"P#	c #F4F4F3",
"Q#	c #F4F4F4",
"R#	c #F5F4F4",
"S#	c #F5F5F5",
"T#	c #F5F5F6",
"U#	c #F6F6F6",
"V#	c #F6F6F7",
"W#	c #F7F7F6",
"X#	c #F7F6F6",
"Y#	c #F7F7F7",
"Z#	c #F8F8F8",
"`#	c #F9F8F9",
" $	c #F8F9F8",
".$	c #F9F8F8",
"+$	c #F9F9F8",
"@$	c #F9F9F9",
"#$	c #F9F9FA",
"$$	c #FAFAFA",
"%$	c #FBFAFB",
"&$	c #FAFBFA",
"*$	c #FBFBFB",
"=$	c #FCFBFB",
"-$	c #FBFCFB",
";$	c #FBFBFC",
">$	c #FBFCFC",
",$	c #FCFCFD",
"'$	c #FCFCFC",
")$	c #FDFDFC",
"!$	c #FDFDFD",
"~$	c #FDFDFE",
"{$	c #FEFDFD",
"]$	c #FEFDFE",
"^$	c #FEFEFD",
"/$	c #FDFEFE",
"($	c #FEFEFE",
"_$	c #FFFFFE",
":$	c #FFFFFF",
"<$	c #FFFEFF",
"[$	c #FEFFFF",
"}$	c #C1C0C0",
"|$	c #C1C0C1",
"1$	c #C2C1C2",
"2$	c #C2C2C1",
"3$	c #C2C3C3",
"4$	c #C3C3C4",
"5$	c #C5C5C4",
"6$	c #C4C4C5",
"7$	c #C5C5C6",
"8$	c #C6C7C6",
"9$	c #C8C9C9",
"0$	c #C9C8C9",
"a$	c #CAC9C9",
"b$	c #CBCBCB",
"c$	c #CBCBCC",
"d$	c #CCCCCB",
"e$	c #CCCDCC",
"f$	c #CDCECD",
"g$	c #CDCECE",
"h$	c #CECFCE",
"i$	c #CFCECE",
"j$	c #CFCFD0",
"k$	c #D0D0CF",
"l$	c #D1D1D0",
"m$	c #D2D2D1",
"n$	c #D1D2D1",
"o$	c #D2D2D3",
"p$	c #D5D6D5",
"q$	c #D5D6D6",
"r$	c #D6D6D7",
"s$	c #D8D9D8",
"t$	c #D9D9D8",
"u$	c #DADADB",
"v$	c #DCDBDC",
"w$	c #DDDDDE",
"x$	c #DEDEDD",
"y$	c #E2E1E1",
"z$	c #E2E3E3",
"A$	c #E2E2E3",
"B$	c #E4E4E3",
"C$	c #E4E4E5",
"D$	c #E5E6E5",
"E$	c #E6E5E6",
"F$	c #E6E6E7",
"G$	c #E7E7E6",
"H$	c #E8E7E8",
"I$	c #E8E9E8",
"J$	c #EDEDEC",
"K$	c #EDEDEE",
"L$	c #EEEEEF",
"M$	c #EEEFEF",
"N$	c #F0EFEF",
"O$	c #F0F0F1",
"P$	c #F1F0F1",
"Q$	c #F3F2F3",
"R$	c #F3F3F4",
"S$	c #F4F3F4",
"T$	c #F4F5F4",
"U$	c #F4F5F5",
"V$	c #F7F6F7",
"W$	c #F6F7F7",
"X$	c #F7F7F8",
"Y$	c #F8F7F8",
"Z$	c #FAF9FA",
"`$	c #FBFAFA",
" %	c #FBFBFA",
".%	c #FAFBFB",
"+%	c #FDFCFC",
"@%	c #FDFEFD",
"#%	c #FEFEFF",
"$%	c #FFFEFE",
"%%	c #FEFFFE",
". . + @ @ # $ % & * = - ; > , , ' ) ! ! ~ ~ { ] ^ ^ / ( ( _ _ : < [ } | | | 1 2 3 4 5 6 7 7 8 9 0 a b c d e f f g h i j k l m n o p q r s t u v w w x y z A B C D D E F G H I J K L M N O P Q R S T U V W X Y Z `  ...+.@.#.$.%.&.*.=.-.;.>.,.'.).!.~.{.].^././.(._.:.<.[.}.|.1.2.2.3.4.5.6.7.8.9.0.a.b.c.d.e.f.g.h.i.j.k.l.m.n.o.p.q.r.s.t.u.u.v.w.x.y.z.A.B.C.D.E.F.G.H.I.J.K.L.M.N.O.P.Q.R.S.T.T.U.V.W.X.Y.Z.`. +.+++@+#+@+$+%+&+%+*+*+=+=+=+-+-+-+;+>+,+'+'+)+)+)+!+!+!+~+{+{+]+]+",
". . . + ^+/+/+% & (+- _+= > :+, , <+! [+}+~ |+1+2+/ / 3+4+_ _ < 5+[ } 6+| | 7+8+3 9+0+a+b+c+c+d+0 e+f+f+g+h+f i+j+h k+j l+l m+n+o p o+p+s t q+r+w s+x y t+A u+v+D w+x+F G y+I I z+A+N N O B+Q R C+D+E+F+G+H+I+Z J+K+L++.M+#.N+&.&.O+P+Q+;.R+S+'.T+U+~.V+^.^./.W+X+(.Y+Z+`+}. @.@2.+@3.5.5.6.@@8.9.#@$@b.b.d.%@&@g.*@=@j.-@;@m.>@,@p.'@r.t.)@!@~@{@v.]@y.^@A./@D.D.(@F.G.H.J.J._@K.:@<@O.[@Q.}@S.|@1@V.V.2@3@4@5@6@ +7@++8@@+@+$+9@%+%+%+*+0@a@-+b@-+-+;+;+>+'+'+c@)+d@e@f@!+g@g@h@i@h@",
"j@j@k@l@k@l@m@l@n@o@n@p@o@p@q@r@s@q@t@t@u@v@u@u@u@w@x@y@y@y@z@A@A@B@B@C@D@E@F@G@G@G@G@H@H@I@J@K@L@L@M@N@O@P@Q@R@R@S@T@U@U@V@W@W@X@X@Y@X@X@Z@Z@`@`@`@`@ #.#+#@###$#$#%#%#&#&#*#=#-#;#;#>#,#'#)#!#!#~#{#{#]#^#^#/#(#_#:#<#[#}#|#1#|#1#1#2#3#4#5#5#6#7#7#7#7#8#9#9#0#a#b#b#c#d#e#f#g#g#g#h#h#i#j#k#k#l#m#m#n#o#o#p#q#r#s#t#t#u#v#w#x#y#z#z#A#B#C#D#E#F#D#G#H#I#J#K#L#M#N#M#O#P#P#Q#R#S#S#S#T#U#U#V#W#X#Y#Y#Y#Z#Z#`# $.$+$@$#$$$$$$$%$&$&$*$=$*$-$;$>$,$'$'$,$)$!$!$~${$]$^$/$($_$:$($<$[$",
"j@}$|$}$m@k@l@l@l@1$1$2$1$p@p@p@3$r@t@t@t@4$u@4$u@x@5$6$y@7$y@z@B@8$8$C@E@E@E@F@G@G@G@9$0$I@J@a$L@L@N@b$b$c$c$d$R@S@e$U@V@f$g$W@W@h$i$j$X@k$Z@l$`@`@`@m$n$o$o$####$#%#&#%#*#p$*#q$;#r$,#,#!#)#!#s$t${#{#^#^#^#u$(#v$:#<#}#[#|#w$x$1#1#2#3#3#3#5#7#7#7#8#y$8#z$A$0#a#B$b#C$d#e#D$E$g#F$G$h#H$h#k#I$m#m#n#o#o#o#r#r#r#t#t#t#u#J$K$u#z#z#L$M$B#B#N$D#D#O$P$H#H#K#K#Q$K#N#M#R$S$S$Q#T$U$U$S#T#U#U#X#V$W$W#X$Y$X$Z#Z#Z#.$@$@$Z$Z$$$$$`$`$ %.%*$*$'$*$'$'$'$+%!$!$!$@%/$/${$($]$#%($$%%%#%[$"};
