/* XPM */
static char * cyan_bar2_xpm[] = {
"235 4 610 2",
"  	c None",
". 	c #FF0000",
"+ 	c #FE0101",
"@ 	c #FD0202",
"# 	c #FC0303",
"$ 	c #FB0505",
"% 	c #FA0506",
"& 	c #F80606",
"* 	c #F70807",
"= 	c #F60909",
"- 	c #F5090A",
"; 	c #F40B0B",
"> 	c #F30C0C",
", 	c #F20D0D",
"' 	c #F10F0F",
") 	c #F00F10",
"! 	c #EF1010",
"~ 	c #ED1111",
"{ 	c #ED1212",
"] 	c #EC1313",
"^ 	c #EA1514",
"/ 	c #E91615",
"( 	c #E81716",
"_ 	c #E71818",
": 	c #E61918",
"< 	c #E51A1A",
"[ 	c #E41B1B",
"} 	c #E31D1C",
"| 	c #E21E1D",
"1 	c #E11F1F",
"2 	c #DF201F",
"3 	c #DE2020",
"4 	c #DE2222",
"5 	c #DD2323",
"6 	c #DB2424",
"7 	c #DA2525",
"8 	c #D92626",
"9 	c #D82727",
"0 	c #D72828",
"a 	c #D62A2A",
"b 	c #D52A2A",
"c 	c #D42C2B",
"d 	c #D22D2C",
"e 	c #D12D2D",
"f 	c #D12E2F",
"g 	c #CF302F",
"h 	c #CE3131",
"i 	c #CD3232",
"j 	c #CC3333",
"k 	c #CB3535",
"l 	c #C93535",
"m 	c #C93636",
"n 	c #C83737",
"o 	c #C73838",
"p 	c #C53A3A",
"q 	c #C43B3A",
"r 	c #C33C3C",
"s 	c #C23D3D",
"t 	c #C13E3E",
"u 	c #C03F3F",
"v 	c #BF4040",
"w 	c #BE4241",
"x 	c #BD4242",
"y 	c #BC4443",
"z 	c #BB4445",
"A 	c #BA4645",
"B 	c #B84747",
"C 	c #B74847",
"D 	c #B64948",
"E 	c #B54A4A",
"F 	c #B44B4B",
"G 	c #B34C4C",
"H 	c #B24D4D",
"I 	c #B14E4F",
"J 	c #B05050",
"K 	c #AE5150",
"L 	c #AD5251",
"M 	c #AD5253",
"N 	c #AB5453",
"O 	c #AB5455",
"P 	c #A95656",
"Q 	c #A85757",
"R 	c #A75858",
"S 	c #A65959",
"T 	c #A55A5A",
"U 	c #A35B5B",
"V 	c #A25C5C",
"W 	c #A25D5E",
"X 	c #A05E5F",
"Y 	c #A05F5F",
"Z 	c #9E6060",
"` 	c #9E6262",
" .	c #9C6363",
"..	c #9B6464",
"+.	c #9A6565",
"@.	c #986666",
"#.	c #976767",
"$.	c #976868",
"%.	c #966969",
"&.	c #946B6A",
"*.	c #936B6C",
"=.	c #936C6C",
"-.	c #916E6D",
";.	c #906F6F",
">.	c #8F7070",
",.	c #8E7171",
"'.	c #8D7272",
").	c #8C7374",
"!.	c #8B7574",
"~.	c #8A7575",
"{.	c #897676",
"].	c #877777",
"^.	c #877879",
"/.	c #867A79",
"(.	c #847B7B",
"_.	c #837C7B",
":.	c #837D7C",
"<.	c #817E7E",
"[.	c #807F7F",
"}.	c #7F8080",
"|.	c #7E8181",
"1.	c #7D8282",
"2.	c #7B8483",
"3.	c #7A8584",
"4.	c #7A8586",
"5.	c #788787",
"6.	c #778888",
"7.	c #778889",
"8.	c #758A8A",
"9.	c #748B8B",
"0.	c #738C8C",
"a.	c #728E8D",
"b.	c #708E8E",
"c.	c #6F9090",
"d.	c #6D9192",
"e.	c #6C9393",
"f.	c #6B9494",
"g.	c #6A9495",
"h.	c #699696",
"i.	c #689797",
"j.	c #679898",
"k.	c #669999",
"l.	c #649A9A",
"m.	c #639C9C",
"n.	c #629D9C",
"o.	c #619D9D",
"p.	c #609E9F",
"q.	c #609F9F",
"r.	c #5FA1A1",
"s.	c #5DA1A2",
"t.	c #5CA3A3",
"u.	c #5BA4A4",
"v.	c #5AA5A5",
"w.	c #58A6A6",
"x.	c #58A7A7",
"y.	c #56A8A8",
"z.	c #56A9A9",
"A.	c #55ABAB",
"B.	c #54ACAC",
"C.	c #52ADAC",
"D.	c #51ADAE",
"E.	c #50AFAF",
"F.	c #4FB0B0",
"G.	c #4EB1B1",
"H.	c #4DB2B2",
"I.	c #4CB3B3",
"J.	c #4BB4B4",
"K.	c #4AB5B6",
"L.	c #48B6B6",
"M.	c #48B7B7",
"N.	c #46B8B9",
"O.	c #45BABA",
"P.	c #44BABB",
"Q.	c #43BCBC",
"R.	c #42BDBD",
"S.	c #41BEBE",
"T.	c #40BFBF",
"U.	c #3FC0C0",
"V.	c #3EC1C1",
"W.	c #3CC3C2",
"X.	c #3BC3C3",
"Y.	c #3AC4C5",
"Z.	c #3AC5C6",
"`.	c #39C7C7",
" +	c #37C8C7",
".+	c #36C9C9",
"++	c #35CACA",
"@+	c #34CBCC",
"#+	c #33CCCC",
"$+	c #32CDCD",
"%+	c #31CECE",
"&+	c #2FCFCF",
"*+	c #2ED0D1",
"=+	c #2ED1D2",
"-+	c #2CD3D2",
";+	c #2BD4D4",
">+	c #2BD5D5",
",+	c #29D6D6",
"'+	c #28D7D7",
")+	c #27D8D8",
"!+	c #26D9D9",
"~+	c #25DBDA",
"{+	c #24DCDC",
"]+	c #23DCDC",
"^+	c #22DEDE",
"/+	c #20DFDF",
"(+	c #1FE0E0",
"_+	c #1EE1E1",
":+	c #1EE2E2",
"<+	c #1CE3E3",
"[+	c #1BE4E4",
"}+	c #1AE6E5",
"|+	c #19E6E6",
"1+	c #18E7E8",
"2+	c #17E8E8",
"3+	c #15EAEA",
"4+	c #14EBEB",
"5+	c #13ECEB",
"6+	c #13ECED",
"7+	c #11EEEE",
"8+	c #10EFEF",
"9+	c #0FF1F0",
"0+	c #0EF1F1",
"a+	c #0DF2F2",
"b+	c #0BF3F3",
"c+	c #0AF4F4",
"d+	c #0AF5F5",
"e+	c #08F6F6",
"f+	c #07F8F7",
"g+	c #06F9F8",
"h+	c #06FAFA",
"i+	c #04FBFB",
"j+	c #03FCFC",
"k+	c #02FDFD",
"l+	c #01FFFE",
"m+	c #FD0203",
"n+	c #FB0304",
"o+	c #FB0404",
"p+	c #F90506",
"q+	c #F90707",
"r+	c #F70708",
"s+	c #F50A0A",
"t+	c #F40B0A",
"u+	c #F10E0E",
"v+	c #EF0F0F",
"w+	c #ED1112",
"x+	c #EC1314",
"y+	c #EA1415",
"z+	c #E91516",
"A+	c #E81818",
"B+	c #E61919",
"C+	c #E31C1C",
"D+	c #E11D1D",
"E+	c #E01E1E",
"F+	c #E01F20",
"G+	c #DF2021",
"H+	c #DE2121",
"I+	c #DC2323",
"J+	c #D62929",
"K+	c #D42A2A",
"L+	c #D42B2B",
"M+	c #D32D2D",
"N+	c #D12E2E",
"O+	c #D02E2E",
"P+	c #CF2F30",
"Q+	c #CB3434",
"R+	c #CA3535",
"S+	c #C93637",
"T+	c #C73737",
"U+	c #C63939",
"V+	c #C33C3B",
"W+	c #BE4142",
"X+	c #BC4342",
"Y+	c #BC4343",
"Z+	c #B94645",
"`+	c #B84647",
" @	c #B84848",
".@	c #B04E4E",
"+@	c #B0504F",
"@@	c #AE5051",
"#@	c #AE5251",
"$@	c #AD5353",
"%@	c #AC5354",
"&@	c #AA5554",
"*@	c #A85756",
"=@	c #A55959",
"-@	c #A45B5B",
";@	c #A35D5C",
">@	c #A25D5D",
",@	c #A05E5E",
"'@	c #A06060",
")@	c #9F6160",
"!@	c #996666",
"~@	c #986767",
"{@	c #976968",
"]@	c #956969",
"^@	c #956A6B",
"/@	c #936B6B",
"(@	c #936C6D",
"_@	c #906F6E",
":@	c #8F706F",
"<@	c #8D7372",
"[@	c #8B7373",
"}@	c #8A7474",
"|@	c #8A7576",
"1@	c #887677",
"2@	c #887777",
"3@	c #877878",
"4@	c #85797A",
"5@	c #857B7A",
"6@	c #837C7C",
"7@	c #827D7C",
"8@	c #7F8180",
"9@	c #7D8382",
"0@	c #7C8383",
"a@	c #7B8585",
"b@	c #7A8585",
"c@	c #788687",
"d@	c #778788",
"e@	c #768989",
"f@	c #728D8E",
"g@	c #718F8E",
"h@	c #6F8F8F",
"i@	c #6E9292",
"j@	c #6C9292",
"k@	c #6B9595",
"l@	c #669898",
"m@	c #669A99",
"n@	c #659B9A",
"o@	c #649B9B",
"p@	c #639D9D",
"q@	c #619E9D",
"r@	c #5F9FA0",
"s@	c #5DA2A2",
"t@	c #59A5A5",
"u@	c #59A6A6",
"v@	c #57A8A9",
"w@	c #56A9AA",
"x@	c #54AAAB",
"y@	c #53ACAB",
"z@	c #53ADAD",
"A@	c #51AEAE",
"B@	c #50AEAF",
"C@	c #4CB4B3",
"D@	c #4AB4B4",
"E@	c #49B5B5",
"F@	c #49B7B7",
"G@	c #46BAB9",
"H@	c #45BBBA",
"I@	c #3FBFC0",
"J@	c #3FC1C0",
"K@	c #3EC1C2",
"L@	c #3DC2C2",
"M@	c #3BC4C4",
"N@	c #3BC4C5",
"O@	c #39C6C6",
"P@	c #38C7C7",
"Q@	c #37C8C8",
"R@	c #34CBCB",
"S@	c #32CCCC",
"T@	c #32CECD",
"U@	c #31CECF",
"V@	c #30D0CF",
"W@	c #2ED1D1",
"X@	c #2ED2D2",
"Y@	c #2DD3D2",
"Z@	c #2BD4D3",
"`@	c #2AD5D5",
" #	c #25D9DA",
".#	c #24DADA",
"+#	c #23DBDC",
"@#	c #1EE0E1",
"##	c #1DE2E2",
"$#	c #1CE4E3",
"%#	c #1AE5E5",
"&#	c #16E8E9",
"*#	c #15E9EA",
"=#	c #14EAEA",
"-#	c #13ECEC",
";#	c #13EDED",
">#	c #0FF0F1",
",#	c #0EF2F2",
"'#	c #0DF3F2",
")#	c #0BF4F3",
"!#	c #0BF4F5",
"~#	c #09F5F5",
"{#	c #08F7F7",
"]#	c #08F8F8",
"^#	c #05FAFA",
"/#	c #01FEFE",
"(#	c #FE0201",
"_#	c #FD0302",
":#	c #FB0504",
"<#	c #FA0606",
"[#	c #F80706",
"}#	c #F80808",
"|#	c #F70908",
"1#	c #F30C0B",
"2#	c #F00F0E",
"3#	c #F00F0F",
"4#	c #EE1010",
"5#	c #EE1111",
"6#	c #ED1313",
"7#	c #EB1313",
"8#	c #EB1415",
"9#	c #E81717",
"0#	c #E41B1C",
"a#	c #E11D1E",
"b#	c #E11F1E",
"c#	c #DF2020",
"d#	c #DE2021",
"e#	c #D72929",
"f#	c #D42A2B",
"g#	c #D32B2C",
"h#	c #D22D2E",
"i#	c #D02F2F",
"j#	c #CF3030",
"k#	c #C73738",
"l#	c #C63838",
"m#	c #C53A39",
"n#	c #C43A3B",
"o#	c #C23E3E",
"p#	c #BB4545",
"q#	c #BA4646",
"r#	c #B94647",
"s#	c #B14E4E",
"t#	c #B04F50",
"u#	c #AE5151",
"v#	c #AC5352",
"w#	c #AC5453",
"x#	c #AA5555",
"y#	c #A85657",
"z#	c #A35C5C",
"A#	c #9F5F60",
"B#	c #9E6161",
"C#	c #9D6161",
"D#	c #9D6263",
"E#	c #9B6463",
"F#	c #986868",
"G#	c #956B6B",
"H#	c #936C6B",
"I#	c #936D6D",
"J#	c #916E6E",
"K#	c #916F6F",
"L#	c #8C7473",
"M#	c #8B7474",
"N#	c #897675",
"O#	c #887877",
"P#	c #867979",
"Q#	c #827D7D",
"R#	c #7D8181",
"S#	c #7B8383",
"T#	c #7A8485",
"U#	c #798585",
"V#	c #728D8D",
"W#	c #718E8E",
"X#	c #6F908F",
"Y#	c #6F9091",
"Z#	c #6E9291",
"`#	c #6C9493",
" $	c #6A9595",
".$	c #659A9A",
"+$	c #619E9E",
"@$	c #619F9F",
"#$	c #5FA0A0",
"$$	c #5EA0A0",
"%$	c #5AA6A5",
"&$	c #59A7A6",
"*$	c #58A8A7",
"=$	c #57A8A8",
"-$	c #55A9AA",
";$	c #54ABAB",
">$	c #53ACAD",
",$	c #4BB3B3",
"'$	c #4BB4B5",
")$	c #49B6B5",
"!$	c #48B6B7",
"~$	c #47B7B8",
"{$	c #47B9B9",
"]$	c #46BABA",
"^$	c #44BBBB",
"/$	c #3EC2C1",
"($	c #3CC2C3",
"_$	c #3AC6C6",
":$	c #33CCCD",
"<$	c #31CDCD",
"[$	c #30CFCF",
"}$	c #2FD1D0",
"|$	c #2DD1D2",
"1$	c #2CD3D3",
"2$	c #25D9D9",
"3$	c #24DBDA",
"4$	c #24DBDB",
"5$	c #22DCDD",
"6$	c #21DEDE",
"7$	c #21DFDE",
"8$	c #1FDFE0",
"9$	c #1DE2E1",
"0$	c #18E6E7",
"a$	c #17E7E7",
"b$	c #16E8E8",
"c$	c #15EAE9",
"d$	c #13EBEC",
"e$	c #12ECEC",
"f$	c #0CF2F2",
"g$	c #0CF3F3",
"h$	c #0AF4F5",
"i$	c #0AF5F6",
"j$	c #08F7F6",
"k$	c #07F8F8",
"l$	c #06F8F9",
"m$	c #FB0303",
"n$	c #FA0405",
"o$	c #F90606",
"p$	c #F10F0E",
"q$	c #EF1111",
"r$	c #EC1312",
"s$	c #EC1414",
"t$	c #E81617",
"u$	c #E71718",
"v$	c #E21C1D",
"w$	c #D52929",
"x$	c #D52B2B",
"y$	c #D42C2C",
"z$	c #D32C2D",
"A$	c #D22E2E",
"B$	c #D0302F",
"C$	c #CF3131",
"D$	c #C63839",
"E$	c #C5393A",
"F$	c #C43B3C",
"G$	c #B94646",
"H$	c #B84646",
"I$	c #B74848",
"J$	c #B14F4E",
"K$	c #B04F4F",
"L$	c #AF5150",
"M$	c #AD5152",
"N$	c #AD5252",
"O$	c #AB5354",
"P$	c #AB5555",
"Q$	c #A95555",
"R$	c #A45A5A",
"S$	c #A45B5C",
"T$	c #A35C5D",
"U$	c #A15E5D",
"V$	c #A15E5E",
"W$	c #9E6160",
"X$	c #9D6262",
"Y$	c #996667",
"Z$	c #966868",
"`$	c #956A6A",
" %	c #926C6C",
".%	c #8C7373",
"+%	c #897776",
"@%	c #887778",
"#%	c #867A7A",
"$%	c #847A7B",
"%%	c #7E8182",
"&%	c #7D8283",
"*%	c #7B8484",
"=%	c #798686",
"-%	c #778887",
";%	c #708F8E",
">%	c #708F90",
",%	c #6E9090",
"'%	c #6E9191",
")%	c #6D9393",
"!%	c #6B9493",
"~%	c #679899",
"{%	c #639C9B",
"]%	c #629C9D",
"^%	c #629E9E",
"/%	c #619E9F",
"(%	c #5EA1A1",
"_%	c #55ABAA",
":%	c #53ABAC",
"<%	c #4EB1B2",
"[%	c #4DB3B2",
"}%	c #49B6B6",
"|%	c #48B8B7",
"1%	c #46B9B9",
"2%	c #45B9BA",
"3%	c #41BEBF",
"4%	c #3FC0C1",
"5%	c #3DC3C2",
"6%	c #3CC4C4",
"7%	c #38C6C7",
"8%	c #31CFCF",
"9%	c #2FD0CF",
"0%	c #2DD2D1",
"a%	c #2CD4D4",
"b%	c #29D5D6",
"c%	c #26D8D8",
"d%	c #25DADA",
"e%	c #24DCDB",
"f%	c #20DFDE",
"g%	c #18E6E6",
"h%	c #14EAEB",
"i%	c #12ECED",
"j%	c #0FF0F0",
"k%	c #0DF2F3",
"l%	c #0BF5F4",
"m%	c #09F6F6",
"n%	c #09F7F7",
"o%	c #07F7F8",
"p%	c #06F9F9",
"q%	c #05FAF9",
"r%	c #03FDFC",
"s%	c #01FFFF",
". + @ # $ % & * = - ; > , ' ) ! ~ { ] ^ / ( _ : < [ } | 1 2 3 4 5 6 7 8 9 0 a b c d e f g h i j k l m n o p q r s t u v w x y z A B C D E F G H I J K L M N O P Q R S T U V W X Y Z `  ...+.@.#.$.%.&.*.=.-.;.>.,.'.).!.~.{.].^./.(._.:.<.[.}.|.1.2.3.4.5.6.7.8.9.0.a.b.c.c.d.e.f.g.h.i.j.k.l.m.n.o.p.q.r.s.t.u.v.w.x.y.z.A.B.C.D.E.F.G.H.I.J.K.L.M.N.O.P.Q.R.S.T.U.V.W.X.Y.Z.`. +.+++@+#+$+%+&+*+=+-+;+>+,+'+)+!+~+{+]+^+/+(+_+:+<+[+}+|+1+2+3+4+5+6+7+8+9+0+a+b+c+d+e+f+g+h+i+j+k+l+",
". + m+n+o+p+q+r+= s+t+> , u+v+! w+{ x+y+z+( A+B+< [ C+D+E+F+G+H+I+6 7 8 9 0 J+K+L+M+N+O+P+h i j Q+R+S+T+o U+q V+s t u v W+X+Y+z Z+`+ @D E F G H .@+@@@#@$@%@&@P *@R =@T -@;@>@,@'@)@`  ...+.!@~@{@]@^@/@(@-._@:@,.<@[@}@|@1@2@3@4@5@6@7@<.[.8@|.9@0@a@b@c@d@e@8.9.0.f@g@h@c.i@j@f.k@h.i.l@m@n@o@p@q@q.r@r.s@t.u.t@u@x.v@w@x@y@z@A@B@F.G.H.C@D@E@F@M.N.G@H@Q.R.S.I@J@K@L@M@N@O@P@Q@.+++R@S@T@U@V@W@X@Y@Z@`@,+'+)+ #.#+#]+^+/+(+@###$#[+%#|+1+&#*#=#-#;#7+8+>#,#'#)#!#~#{#]#g+^#i+j+k+/#",
". (#_## :#<#[#}#|#- ; 1#, 2#3#4#5#6#7#8#z+9#_ B+< 0#C+a#b#c#d#4 5 6 7 8 9 e#a f#g#M+h#i#j#h i j k R+m k#l#m#n#r s o#u v W+x Y+p#q#r#C D E F G H s#t#u#u#v#w#x#P y#R S T U z#>@X A#B#C#D#E#+.!@F#$.%.G#H#I#J#K#>.,.'.L#M#N#1@O#P#/.(._.Q#<.[.8@R#1.S#T#U#5.5.e@8.9.0.V#W#X#Y#Z#e.`# $h.i.j.k..$o@n.+$@$#$$$s.t.u.%$&$*$=$-$;$;$>$A@E.F.G.H.,$'$)$!$~${$]$^$Q.R.S.T.J@/$($M@Y._$P@Q@.+++R@:$<$[$&+}$|$1$Z@`@,+'+)+2$3$4$5$6$7$8$_+9$<+[+}+0$a$b$c$4+d$e$7+8+>#0+f$g$h$i$j$k$l$h+i+j+k+l+",
". + @ m$n$o$[#r+= s+; > , p$) q$~ r$s$^ / t$u$B+< [ v$D+E+2 H+4 I+6 7 8 9 0 w$x$y$z$A$i#B$C$i j Q+R+m T+D$E$n#F$s t u v w x y p#G$H$I$D E F G H J$K$L$M$N$O$P$Q$Q R S R$S$T$U$V$'@W$X$ ...+.Y$~@Z$`$&.*. %J#K#>.,.'..%M#~.+%@%P##%$%_.Q#<.[.}.%%&%*%3.=%5.-%e@8.9.0.V#;%>%,%'%)%!%g.h.i.~%m@.${%]%^%/%#$(%s@t.u.v.u@x.=$w@_%:%z@D.E.F.<%[%I.'$K.}%|%1%2%^$Q.R.3%T.4%K@5%6%N@O@7%Q@.+++R@#+$+8%9%*+0%1$a%`@b%'+c%!+d%e%]+^+f%8$_+##<+[+}+g%2+b$*#h%-#i%7+8+j%0+k%g$l%m%n%o%p%q%i+r%k+s%"};
