/* XPM */
static char * magenta_bar2_xpm[] = {
"235 4 598 2",
"  	c None",
". 	c #00FF00",
"+ 	c #01FE02",
"@ 	c #02FD03",
"# 	c #03FC03",
"$ 	c #04FB04",
"% 	c #05FA05",
"& 	c #06F807",
"* 	c #08F808",
"= 	c #08F608",
"- 	c #0AF50A",
"; 	c #0BF40B",
"> 	c #0CF30C",
", 	c #0EF20D",
"' 	c #0EF10E",
") 	c #0FF00F",
"! 	c #10EF11",
"~ 	c #12ED11",
"{ 	c #12EC12",
"] 	c #13EB14",
"^ 	c #14EA14",
"/ 	c #15E916",
"( 	c #17E917",
"_ 	c #18E818",
": 	c #19E619",
"< 	c #1AE51A",
"[ 	c #1CE41B",
"} 	c #1CE31C",
"| 	c #1EE21D",
"1 	c #1EE11F",
"2 	c #1FE01F",
"3 	c #21DE21",
"4 	c #22DD22",
"5 	c #23DC23",
"6 	c #24DB23",
"7 	c #25DA25",
"8 	c #26D926",
"9 	c #27D827",
"0 	c #28D728",
"a 	c #2AD52A",
"b 	c #2BD42C",
"c 	c #2DD32D",
"d 	c #2DD12E",
"e 	c #2FD12F",
"f 	c #2FD030",
"g 	c #31CF31",
"h 	c #32CD32",
"i 	c #33CC33",
"j 	c #34CA34",
"k 	c #35CA35",
"l 	c #37C936",
"m 	c #37C838",
"n 	c #38C639",
"o 	c #39C53A",
"p 	c #3BC43A",
"q 	c #3BC33B",
"r 	c #3DC23D",
"s 	c #3EC13E",
"t 	c #3FC03F",
"u 	c #40BF40",
"v 	c #41BE41",
"w 	c #42BD43",
"x 	c #43BC44",
"y 	c #45BB44",
"z 	c #45BA45",
"A 	c #47B847",
"B 	c #47B748",
"C 	c #49B749",
"D 	c #4AB54A",
"E 	c #4BB44B",
"F 	c #4CB34C",
"G 	c #4DB24D",
"H 	c #4EB14E",
"I 	c #4FB04F",
"J 	c #50AF51",
"K 	c #51AD51",
"L 	c #52AD53",
"M 	c #54AC54",
"N 	c #55AA55",
"O 	c #56A956",
"P 	c #57A857",
"Q 	c #58A758",
"R 	c #59A659",
"S 	c #5AA55A",
"T 	c #5BA45B",
"U 	c #5CA25C",
"V 	c #5DA25D",
"W 	c #5EA15E",
"X 	c #5F9F5F",
"Y 	c #619E61",
"Z 	c #619D62",
"` 	c #629C63",
" .	c #649B64",
"..	c #659A65",
"+.	c #669966",
"@.	c #679867",
"#.	c #699769",
"$.	c #699669",
"%.	c #6B946B",
"&.	c #6C946B",
"*.	c #6D926D",
"=.	c #6E906F",
"-.	c #708F70",
";.	c #718E71",
">.	c #728D72",
",.	c #738C73",
"'.	c #748B74",
").	c #758975",
"!.	c #778877",
"~.	c #788877",
"{.	c #788679",
"].	c #79867A",
"^.	c #7A857A",
"/.	c #7C837C",
"(.	c #7D827D",
"_.	c #7E817E",
":.	c #7F807F",
"<.	c #807F80",
"[.	c #817E82",
"}.	c #827C82",
"|.	c #847C84",
"1.	c #847A84",
"2.	c #867A86",
"3.	c #877887",
"4.	c #887788",
"5.	c #897689",
"6.	c #89758A",
"7.	c #8B748B",
"8.	c #8D738D",
"9.	c #8D728D",
"0.	c #8E718E",
"a.	c #8F708F",
"b.	c #906E91",
"c.	c #916D91",
"d.	c #936D92",
"e.	c #946B94",
"f.	c #956A95",
"g.	c #966996",
"h.	c #976897",
"i.	c #986798",
"j.	c #996699",
"k.	c #9B659B",
"l.	c #9C649B",
"m.	c #9D629D",
"n.	c #9E619E",
"o.	c #9E609E",
"p.	c #A05F9F",
"q.	c #A15EA1",
"r.	c #A25DA2",
"s.	c #A35CA3",
"t.	c #A45AA4",
"u.	c #A65AA5",
"v.	c #A659A6",
"w.	c #A758A8",
"x.	c #A956A8",
"y.	c #AA56A9",
"z.	c #AB54AB",
"A.	c #AC53AB",
"B.	c #AD52AD",
"C.	c #AE51AD",
"D.	c #AF50AF",
"E.	c #B04FB0",
"F.	c #B14EB1",
"G.	c #B24DB3",
"H.	c #B34CB3",
"I.	c #B44AB4",
"J.	c #B54AB5",
"K.	c #B749B7",
"L.	c #B848B7",
"M.	c #B946B8",
"N.	c #B946BA",
"O.	c #BB44BB",
"P.	c #BC44BC",
"Q.	c #BD42BD",
"R.	c #BE41BF",
"S.	c #C040BF",
"T.	c #C13FC0",
"U.	c #C23DC1",
"V.	c #C23CC2",
"W.	c #C33BC4",
"X.	c #C53BC4",
"Y.	c #C53AC5",
"Z.	c #C739C7",
"`.	c #C837C8",
" +	c #C936C9",
".+	c #CA35CA",
"++	c #CB34CB",
"@+	c #CC33CC",
"#+	c #CD32CD",
"$+	c #CE31CF",
"%+	c #D030D0",
"&+	c #D02FD1",
"*+	c #D22ED1",
"=+	c #D22CD2",
"-+	c #D42BD3",
";+	c #D52AD4",
">+	c #D629D6",
",+	c #D728D7",
"'+	c #D827D9",
")+	c #D925D9",
"!+	c #DB24DA",
"~+	c #DC24DB",
"{+	c #DD22DD",
"]+	c #DE22DE",
"^+	c #DF20DF",
"/+	c #E01FE0",
"(+	c #E11EE1",
"_+	c #E21DE2",
":+	c #E31CE3",
"<+	c #E41BE4",
"[+	c #E51AE6",
"}+	c #E618E6",
"|+	c #E717E7",
"1+	c #E816E9",
"2+	c #EA16E9",
"3+	c #EB14EB",
"4+	c #EC13EC",
"5+	c #ED13ED",
"6+	c #EE11EE",
"7+	c #EF10EF",
"8+	c #F00FF0",
"9+	c #F20DF1",
"0+	c #F30DF2",
"a+	c #F40CF3",
"b+	c #F40AF4",
"c+	c #F509F5",
"d+	c #F608F6",
"e+	c #F707F7",
"f+	c #F807F9",
"g+	c #FA06FA",
"h+	c #FB04FB",
"i+	c #FC03FC",
"j+	c #FE02FD",
"k+	c #FE01FF",
"l+	c #01FE01",
"m+	c #02FC02",
"n+	c #05F905",
"o+	c #07F807",
"p+	c #08F807",
"q+	c #08F708",
"r+	c #09F50A",
"s+	c #0DF20D",
"t+	c #10EF10",
"u+	c #11EE12",
"v+	c #12ED13",
"w+	c #14EB14",
"x+	c #14EB15",
"y+	c #17E817",
"z+	c #18E718",
"A+	c #1BE31C",
"B+	c #1DE21D",
"C+	c #1FE11F",
"D+	c #21DE20",
"E+	c #22DD21",
"F+	c #24DB24",
"G+	c #29D728",
"H+	c #29D629",
"I+	c #2AD52B",
"J+	c #2CD32B",
"K+	c #2CD22D",
"L+	c #2FD02E",
"M+	c #30CF30",
"N+	c #31CE31",
"O+	c #34CB34",
"P+	c #36CA35",
"Q+	c #37C937",
"R+	c #37C738",
"S+	c #39C638",
"T+	c #39C639",
"U+	c #3AC53B",
"V+	c #3CC33C",
"W+	c #42BD42",
"X+	c #44BC43",
"Y+	c #44BB45",
"Z+	c #47B846",
"`+	c #48B747",
" @	c #49B649",
".@	c #4CB24C",
"+@	c #4FB050",
"@@	c #50AE51",
"#@	c #52AC53",
"$@	c #54AC53",
"%@	c #5AA55B",
"&@	c #5BA45C",
"*@	c #5CA35C",
"=@	c #5DA15D",
"-@	c #60A060",
";@	c #609E61",
">@	c #629D62",
",@	c #639C63",
"'@	c #679966",
")@	c #679767",
"!@	c #689768",
"~@	c #6A9569",
"{@	c #6B956A",
"]@	c #6D936C",
"^@	c #6E926E",
"/@	c #6E916E",
"(@	c #708F6F",
"_@	c #738C74",
":@	c #758A75",
"<@	c #768876",
"[@	c #778778",
"}@	c #798679",
"|@	c #7A8579",
"1@	c #7B847B",
"2@	c #7B847C",
"3@	c #7F8080",
"4@	c #817E81",
"5@	c #827D82",
"6@	c #847C83",
"7@	c #847B84",
"8@	c #857985",
"9@	c #8A758A",
"0@	c #8C748B",
"a@	c #8C738C",
"b@	c #8D718E",
"c@	c #8E708E",
"d@	c #8F7090",
"e@	c #916F91",
"f@	c #926D91",
"g@	c #936C92",
"h@	c #946C94",
"i@	c #956B95",
"j@	c #986699",
"k@	c #9A6699",
"l@	c #9A659A",
"m@	c #9B649B",
"n@	c #9E629E",
"o@	c #9E619F",
"p@	c #A05FA0",
"q@	c #A45BA4",
"r@	c #A55AA6",
"s@	c #A658A6",
"t@	c #AA56AA",
"u@	c #AC54AB",
"v@	c #AC52AD",
"w@	c #AE51AE",
"x@	c #B24DB2",
"y@	c #B44CB3",
"z@	c #B44BB4",
"A@	c #B64AB5",
"B@	c #B748B6",
"C@	c #B747B7",
"D@	c #B847B9",
"E@	c #BA45BA",
"F@	c #BC43BC",
"G@	c #BE41BE",
"H@	c #BF40BF",
"I@	c #C13DC1",
"J@	c #C23CC3",
"K@	c #C33CC3",
"L@	c #C639C6",
"M@	c #C738C7",
"N@	c #CB34CC",
"O@	c #CC33CD",
"P@	c #CF30D0",
"Q@	c #D12ED1",
"R@	c #D22DD2",
"S@	c #D22CD3",
"T@	c #D52AD5",
"U@	c #D926D9",
"V@	c #DA25DB",
"W@	c #DC23DC",
"X@	c #DC23DD",
"Y@	c #DD22DE",
"Z@	c #E11FE0",
"`@	c #E51AE5",
" #	c #E718E6",
".#	c #E718E8",
"+#	c #E816E8",
"@#	c #EA15EB",
"##	c #ED12ED",
"$#	c #EE12EE",
"%#	c #F10EF1",
"&#	c #F20CF3",
"*#	c #F40CF4",
"=#	c #F50AF5",
"-#	c #F509F6",
";#	c #F708F7",
">#	c #F807F8",
",#	c #FA05FA",
"'#	c #FE01FE",
")#	c #03FD03",
"!#	c #03FC04",
"~#	c #04FB05",
"{#	c #07F708",
"]#	c #08F609",
"^#	c #0AF60A",
"/#	c #11ED12",
"(#	c #13EC12",
"_#	c #15EA14",
":#	c #1BE41B",
"<#	c #1CE21C",
"[#	c #1FE11E",
"}#	c #20DE21",
"|#	c #21DD22",
"1#	c #29D729",
"2#	c #2AD62A",
"3#	c #2AD42A",
"4#	c #2CD42B",
"5#	c #2ED12E",
"6#	c #35C936",
"7#	c #36C836",
"8#	c #37C737",
"9#	c #3BC53B",
"0#	c #3DC33C",
"a#	c #45BB45",
"b#	c #46B945",
"c#	c #46B947",
"d#	c #4AB64A",
"e#	c #51AE50",
"f#	c #52AE52",
"g#	c #54AB54",
"h#	c #5CA45B",
"i#	c #5FA05E",
"j#	c #669967",
"k#	c #69966A",
"l#	c #6A946A",
"m#	c #6B936C",
"n#	c #6D936D",
"o#	c #6F906E",
"p#	c #6F8F70",
"q#	c #748C73",
"r#	c #748A74",
"s#	c #768A75",
"t#	c #778876",
"u#	c #798778",
"v#	c #798579",
"w#	c #7A847B",
"x#	c #7B837C",
"y#	c #837C82",
"z#	c #837C84",
"A#	c #847B85",
"B#	c #857A85",
"C#	c #867987",
"D#	c #8D728E",
"E#	c #8E708F",
"F#	c #936C93",
"G#	c #956996",
"H#	c #9A649A",
"I#	c #9C629C",
"J#	c #9E619D",
"K#	c #9F609E",
"L#	c #9F5FA0",
"M#	c #A05EA1",
"N#	c #A25DA1",
"O#	c #A55BA4",
"P#	c #A559A5",
"Q#	c #A658A7",
"R#	c #A957A8",
"S#	c #A955AA",
"T#	c #AB54AA",
"U#	c #AB53AC",
"V#	c #AD53AC",
"W#	c #B24EB1",
"X#	c #B34DB2",
"Y#	c #B54BB4",
"Z#	c #B648B6",
"`#	c #B946B9",
" $	c #BA45B9",
".$	c #BE40BE",
"+$	c #C03FC1",
"@$	c #C43CC4",
"#$	c #C638C7",
"$$	c #C838C8",
"%$	c #CA34CA",
"&$	c #CC34CB",
"*$	c #CC32CC",
"=$	c #CE31CE",
"-$	c #CF2FCF",
";$	c #D12ED0",
">$	c #D22DD1",
",$	c #D32CD2",
"'$	c #D42CD4",
")$	c #D827D8",
"!$	c #DB25DB",
"~$	c #DC23DB",
"{$	c #DC22DC",
"]$	c #DE22DD",
"^$	c #DE20DF",
"/$	c #E41CE3",
"($	c #E41BE5",
"_$	c #E619E6",
":$	c #E818E7",
"<$	c #E817E9",
"[$	c #E916EA",
"}$	c #EB14EA",
"|$	c #EC13EB",
"1$	c #EC13ED",
"2$	c #F20EF1",
"3$	c #F30CF3",
"4$	c #F40BF5",
"5$	c #F60AF5",
"6$	c #F609F7",
"7$	c #F906F9",
"8$	c #FD02FD",
"9$	c #05FB05",
"0$	c #06F806",
"a$	c #07F808",
"b$	c #09F609",
"c$	c #0FF10E",
"d$	c #11ED11",
"e$	c #14EC14",
"f$	c #15EA15",
"g$	c #16E916",
"h$	c #1EE11D",
"i$	c #1FE01E",
"j$	c #21DF20",
"k$	c #22DC23",
"l$	c #27D727",
"m$	c #2AD629",
"n$	c #2BD52B",
"o$	c #2CD32D",
"p$	c #2ED22D",
"q$	c #2FCF2F",
"r$	c #33CC34",
"s$	c #36C935",
"t$	c #36C837",
"u$	c #38C837",
"v$	c #39C739",
"w$	c #3AC53A",
"x$	c #3AC43A",
"y$	c #3DC33D",
"z$	c #43BC43",
"A$	c #48B848",
"B$	c #4DB24E",
"C$	c #4FAF4F",
"D$	c #52AD52",
"E$	c #53AC54",
"F$	c #55AB55",
"G$	c #56AA56",
"H$	c #5AA45A",
"I$	c #5DA35C",
"J$	c #5FA15E",
"K$	c #60A05F",
"L$	c #609F61",
"M$	c #639C62",
"N$	c #649C64",
"O$	c #69956A",
"P$	c #6A956A",
"Q$	c #6B946C",
"R$	c #6C936C",
"S$	c #6F906F",
"T$	c #768976",
"U$	c #788678",
"V$	c #7A8679",
"W$	c #817E80",
"X$	c #837C83",
"Y$	c #857A86",
"Z$	c #8B748C",
"`$	c #8C738D",
" %	c #8E728D",
".%	c #916E91",
"+%	c #926D92",
"@%	c #946A95",
"#%	c #966A96",
"$%	c #986698",
"%%	c #9B639B",
"&%	c #9D639C",
"*%	c #A35DA3",
"=%	c #A55AA5",
"-%	c #A858A7",
";%	c #A956A9",
">%	c #A955A9",
",%	c #AC53AC",
"'%	c #AD52AC",
")%	c #AF50AE",
"!%	c #B14DB1",
"~%	c #B54AB6",
"{%	c #B747B8",
"]%	c #BB44BA",
"^%	c #BB43BC",
"/%	c #C03EC1",
"(%	c #C13EC1",
"_%	c #C33DC3",
":%	c #C43BC4",
"<%	c #C43AC5",
"[%	c #C539C5",
"}%	c #CD33CC",
"|%	c #CF30CE",
"1%	c #D32CD3",
"2%	c #D32BD3",
"3%	c #D42AD5",
"4%	c #D629D7",
"5%	c #DA25DA",
"6%	c #E020E0",
"7%	c #E01FE1",
"8%	c #E51BE4",
"9%	c #E818E8",
"0%	c #E917E8",
"a%	c #E915EA",
"b%	c #F20CF2",
"c%	c #F50AF4",
"d%	c #F60AF6",
"e%	c #F807F7",
"f%	c #F907F8",
"g%	c #FF01FE",
". + @ # $ % & * = - ; > , ' ) ! ~ { ] ^ / ( _ : < [ } | 1 2 3 4 5 6 7 8 9 0 a a b c d e f g h i j k l m n o p q r s t u v w x y z A B C D E F G H I J K L M N O P Q R S T U V W X Y Z `  ...+.@.#.$.%.&.*.*.=.-.;.>.,.'.).!.~.{.].^./.(._.:.<.[.}.|.1.2.3.4.5.6.7.8.9.0.a.b.c.d.e.f.g.h.i.j.k.l.m.n.o.p.q.r.s.t.u.v.w.x.y.z.A.B.C.D.E.F.G.H.I.J.K.L.M.N.O.P.Q.R.S.T.U.V.W.X.Y.Z.`. +.+++@+#+$+%+&+*+=+-+;+>+,+'+)+!+~+{+]+^+/+(+_+:+<+[+}+|+1+2+3+4+5+6+7+8+9+0+a+b+c+d+e+f+g+h+i+j+k+",
". l+m+# $ n+o+p+q+r+; > s+' ) t+u+v+w+x+/ y+z+: < A+} B+C+2 D+E+5 F+7 8 9 G+H+I+J+K+d L+M+N+h i O+P+Q+R+S+T+U+V+r s t u v W+X+Y+z Z+`+ @D E .@G H +@@@K #@$@N O P Q R %@&@*@=@W -@;@>@,@ ...'@)@!@~@{@%.]@^@/@(@;.>._@'.:@<@[@}@|@1@2@(._.3@<.4@5@6@7@8@3.4.5.9@0@a@b@c@d@e@f@g@h@i@g.h.j@k@l@m@m.n@o@p@q.r.s.q@r@s@w.x.t@z.u@v@w@D.E.F.x@y@z@A@B@C@D@E@O.F@Q.G@H@T.I@J@K@Y.L@M@`. +.+N@O@#+$+P@Q@R@S@-+T@>+,+'+U@V@W@X@Y@^+^+Z@_+:+<+`@ #.#+#2+@#4+##$#7+8+%#&#*#=#-#;#>#f+,#h+i+'#'#",
". l+)#!#~#n+& {#]#^#; > s+' ) t+/#(#] _#/ y+z+: < :#<#| [#2 }#|#5 F+7 8 9 1#2#3#4#K+5#e M+N+h i O+6#7#8#S+T+9#V+0#s t u v W+X+a#b#c#`+ @d#E F G H +@e#f#L g#N O P Q R %@h#*@V i#-@;@>@,@ ...j#@.!@k#l#m#n#/@o#p#;.>.q#r#s#t#[@u#v#w#x#(._.:.<.[.y#z#A#B#C#4.5.9@7.a@D#E#a.e@f@F#e.i@G#h.i.j.H#m@I#J#K#L#M#N#s.O#P#Q#w.R#S#T#U#V#w@D.E.W#X#z@Y#J.Z#L.`# $O.F@Q..$H@+$U.J@@$X.L@#$$$ +%$&$*$#+=$-$;$>$,$'$T@>+,+)$U@!$~${$]$^$/+(+_+/$($`@_$:$<$[$}$|$1$$#7+8+2$0+3$4$5$6$>#7$,#h+i+8$'#",
". l+m+# 9$% 0$a$b$^#; > s+c$) ! d${ e$f$g$y+z+: < :#} h$i$2 j$4 k$F+7 8 l$0 m$n$4#o$p$e q$N+h r$j s$t$u$v$w$x$V+y$s t u v W+z$y z Z+A$ @D E F B$H C$J D$L E$F$G$P Q R H$T I$V J$K$L$>@M$N$..+.@.!@O$P$Q$R$^@S$-.;.>.,.'.T$t#[@U$V$w#/.(._.:.W$4@}.X$A#Y$3.4.5.9@Z$`$ %0.d@b..%+%e.@%#%h.$%j.l@%%&%n.o@p.M#r.*%q@=%v.-%;%>%z.,%'%w@)%E.!%G.H.z@~%Z#{%`#E@]%^%Q.G@H@/%(%_%:%<%[%#$`. +.+N@}%#+|%-$&+R@1%2%3%4%,+)$U@5%~+{$Y@^$6%7%_+:+8%[+_$9%0%a%@#4+##6+7+8+%#b%a+c%d%6$e%f%,#h+i+j+g%"};
