/* XPM */
static char * yellow_bar2_xpm[] = {
"235 4 620 2",
"  	c None",
". 	c #0000FF",
"+ 	c #0101FE",
"@ 	c #0202FD",
"# 	c #0303FC",
"$ 	c #0505FA",
"% 	c #0505F9",
"& 	c #0606F8",
"* 	c #0807F7",
"= 	c #0808F6",
"- 	c #0A0AF5",
"; 	c #0B0BF5",
"> 	c #0C0CF3",
", 	c #0D0DF2",
"' 	c #0F0EF1",
") 	c #0F10F0",
"! 	c #1111EF",
"~ 	c #1211EE",
"{ 	c #1212ED",
"] 	c #1413EB",
"^ 	c #1414EB",
"/ 	c #1615E9",
"( 	c #1617E8",
"_ 	c #1818E7",
": 	c #1919E6",
"< 	c #1A1AE5",
"[ 	c #1B1CE4",
"} 	c #1C1CE3",
"| 	c #1E1EE1",
"1 	c #1F1EE0",
"2 	c #1F20E0",
"3 	c #2121DE",
"4 	c #2222DD",
"5 	c #2223DC",
"6 	c #2323DB",
"7 	c #2525DA",
"8 	c #2626D9",
"9 	c #2727D8",
"0 	c #2828D7",
"a 	c #2929D6",
"b 	c #2A2AD5",
"c 	c #2C2BD4",
"d 	c #2D2DD2",
"e 	c #2E2ED1",
"f 	c #2F2FD0",
"g 	c #302FCF",
"h 	c #3131CF",
"i 	c #3232CD",
"j 	c #3333CC",
"k 	c #3434CB",
"l 	c #3635CA",
"m 	c #3636C9",
"n 	c #3737C8",
"o 	c #3839C6",
"p 	c #3A39C5",
"q 	c #3A3AC4",
"r 	c #3C3CC3",
"s 	c #3D3DC2",
"t 	c #3E3EC1",
"u 	c #3F3FC0",
"v 	c #4040BF",
"w 	c #4141BE",
"x 	c #4242BD",
"y 	c #4343BB",
"z 	c #4544BB",
"A 	c #4646B9",
"B 	c #4747B9",
"C 	c #4848B8",
"D 	c #4849B7",
"E 	c #4A4AB6",
"F 	c #4B4BB4",
"G 	c #4C4CB3",
"H 	c #4D4DB2",
"I 	c #4E4EB0",
"J 	c #4F4FAF",
"K 	c #5150AF",
"L 	c #5152AD",
"M 	c #5253AD",
"N 	c #5453AC",
"O 	c #5555AB",
"P 	c #5656A9",
"Q 	c #5757A8",
"R 	c #5858A7",
"S 	c #5959A6",
"T 	c #5A5BA4",
"U 	c #5C5BA4",
"V 	c #5C5CA3",
"W 	c #5D5DA2",
"X 	c #5F5EA1",
"Y 	c #5F609F",
"Z 	c #61619F",
"` 	c #61629E",
" .	c #62639C",
"..	c #64649B",
"+.	c #65659A",
"@.	c #666699",
"#.	c #676798",
"$.	c #696897",
"%.	c #6A6995",
"&.	c #6B6A95",
"*.	c #6B6C94",
"=.	c #6D6D92",
"-.	c #6E6D91",
";.	c #6E6E91",
">.	c #6F708F",
",.	c #71718F",
"'.	c #72728D",
").	c #73738C",
"!.	c #75748A",
"~.	c #757589",
"{.	c #777789",
"].	c #777788",
"^.	c #797887",
"/.	c #7A7A85",
"(.	c #7B7A84",
"_.	c #7C7C83",
":.	c #7D7D82",
"<.	c #7E7E82",
"[.	c #7F7F80",
"}.	c #80807F",
"|.	c #82827E",
"1.	c #82827D",
"2.	c #84837C",
"3.	c #84847B",
"4.	c #86867A",
"5.	c #868779",
"6.	c #888877",
"7.	c #898976",
"8.	c #898A76",
"9.	c #8B8B74",
"0.	c #8C8C73",
"a.	c #8D8D72",
"b.	c #8E8E71",
"c.	c #909070",
"d.	c #90916E",
"e.	c #91926E",
"f.	c #92936C",
"g.	c #94946C",
"h.	c #95946A",
"i.	c #96966A",
"j.	c #979768",
"k.	c #989867",
"l.	c #999966",
"m.	c #9B9A65",
"n.	c #9B9B64",
"o.	c #9C9D63",
"p.	c #9E9D61",
"q.	c #9F9F60",
"r.	c #A0A05F",
"s.	c #A1A15F",
"t.	c #A1A25D",
"u.	c #A3A35D",
"v.	c #A4A45B",
"w.	c #A5A55A",
"x.	c #A6A759",
"y.	c #A7A857",
"z.	c #A8A957",
"A.	c #A9A955",
"B.	c #AAAA55",
"C.	c #ABAB54",
"D.	c #ACAC52",
"E.	c #ADAD51",
"F.	c #AFAF50",
"G.	c #B0B04F",
"H.	c #B1B14E",
"I.	c #B2B24D",
"J.	c #B3B34C",
"K.	c #B4B44B",
"L.	c #B6B549",
"M.	c #B6B648",
"N.	c #B7B748",
"O.	c #B8B847",
"P.	c #B9BA46",
"Q.	c #BBBA44",
"R.	c #BBBC43",
"S.	c #BDBD42",
"T.	c #BEBE41",
"U.	c #BFBF40",
"V.	c #C0C03F",
"W.	c #C1C13E",
"X.	c #C2C23C",
"Y.	c #C3C43C",
"Z.	c #C4C43A",
"`.	c #C6C63A",
" +	c #C6C739",
".+	c #C7C737",
"++	c #C9C936",
"@+	c #CACA35",
"#+	c #CBCB34",
"$+	c #CCCC33",
"%+	c #CDCD32",
"&+	c #CECF31",
"*+	c #CFD02F",
"=+	c #D0D02F",
"-+	c #D2D12E",
";+	c #D3D32C",
">+	c #D3D42B",
",+	c #D5D52A",
"'+	c #D6D629",
")+	c #D7D728",
"!+	c #D8D827",
"~+	c #D9D926",
"{+	c #DADA25",
"]+	c #DCDB24",
"^+	c #DCDD23",
"/+	c #DDDD22",
"(+	c #DFDE20",
"_+	c #E0E01F",
":+	c #E1E11E",
"<+	c #E2E21E",
"[+	c #E3E31C",
"}+	c #E4E41B",
"|+	c #E6E51A",
"1+	c #E6E619",
"2+	c #E7E718",
"3+	c #E8E816",
"4+	c #E9E916",
"5+	c #EAEB14",
"6+	c #ECEC13",
"7+	c #EDED12",
"8+	c #EEEE11",
"9+	c #EFEF10",
"0+	c #F0F010",
"a+	c #F1F10E",
"b+	c #F2F20D",
"c+	c #F3F30C",
"d+	c #F4F40B",
"e+	c #F6F50A",
"f+	c #F6F609",
"g+	c #F8F708",
"h+	c #F9F907",
"i+	c #F9F905",
"j+	c #FBFB04",
"k+	c #FCFB03",
"l+	c #FDFD02",
"m+	c #FEFE01",
"n+	c #0405FA",
"o+	c #0605FA",
"p+	c #0606F9",
"q+	c #0807F8",
"r+	c #0909F6",
"s+	c #090AF5",
"t+	c #0A0BF4",
"u+	c #0E0EF1",
"v+	c #0F0FEF",
"w+	c #1011EF",
"x+	c #1112EE",
"y+	c #1213EC",
"z+	c #1313EB",
"A+	c #1414EA",
"B+	c #1616E9",
"C+	c #1717E8",
"D+	c #1B1BE4",
"E+	c #1D1DE2",
"F+	c #201FDF",
"G+	c #2121DF",
"H+	c #2122DE",
"I+	c #2323DC",
"J+	c #2324DB",
"K+	c #2B2AD5",
"L+	c #2B2BD3",
"M+	c #2D2CD2",
"N+	c #2D2DD1",
"O+	c #3030CF",
"P+	c #3434CA",
"Q+	c #3636CA",
"R+	c #3738C8",
"S+	c #3938C7",
"T+	c #3939C6",
"U+	c #3A3BC4",
"V+	c #3D3DC3",
"W+	c #4141BD",
"X+	c #4443BC",
"Y+	c #4445BB",
"Z+	c #4645BA",
"`+	c #4847B8",
" @	c #4949B6",
".@	c #4A49B6",
"+@	c #4E4EB1",
"@@	c #4F4FB0",
"#@	c #5051AF",
"$@	c #5252AE",
"%@	c #5352AD",
"&@	c #5454AC",
"*@	c #5757A9",
"=@	c #5B5AA5",
"-@	c #5B5CA4",
";@	c #5C5CA2",
">@	c #5D5DA1",
",@	c #5E5EA1",
"'@	c #60609F",
")@	c #61629D",
"!@	c #63639D",
"~@	c #686897",
"{@	c #696996",
"]@	c #6B6B94",
"^@	c #6D6D93",
"/@	c #6E6F90",
"(@	c #70708F",
"_@	c #70718E",
":@	c #74748B",
"<@	c #777888",
"[@	c #787986",
"}@	c #797A85",
"|@	c #7B7A85",
"1@	c #7E7E81",
"2@	c #81817E",
"3@	c #84847C",
"4@	c #84847A",
"5@	c #868579",
"6@	c #868679",
"7@	c #878877",
"8@	c #898A75",
"9@	c #8D8D71",
"0@	c #8F8F70",
"a@	c #90906F",
"b@	c #91926D",
"c@	c #93936D",
"d@	c #93946B",
"e@	c #95956B",
"f@	c #959669",
"g@	c #979668",
"h@	c #9A9A65",
"i@	c #9B9C63",
"j@	c #9D9C63",
"k@	c #9E9E62",
"l@	c #9F9E61",
"m@	c #A09F5F",
"n@	c #A1A05E",
"o@	c #A2A25E",
"p@	c #A3A35C",
"q@	c #A6A659",
"r@	c #A7A758",
"s@	c #AAA956",
"t@	c #AAAB54",
"u@	c #ABAB53",
"v@	c #ADAD52",
"w@	c #ADAE51",
"x@	c #AEAF51",
"y@	c #AFB04F",
"z@	c #B1B04E",
"A@	c #B4B54B",
"B@	c #B5B54A",
"C@	c #B7B848",
"D@	c #B8B946",
"E@	c #B9BA45",
"F@	c #BBBB44",
"G@	c #BCBB44",
"H@	c #C0C03E",
"I@	c #C4C43C",
"J@	c #C5C43B",
"K@	c #C6C639",
"L@	c #C7C738",
"M@	c #C8C838",
"N@	c #CECE31",
"O@	c #D0CF30",
"P@	c #D2D22E",
"Q@	c #D3D22D",
"R@	c #D3D32B",
"S@	c #D5D42A",
"T@	c #D5D629",
"U@	c #D7D729",
"V@	c #DBDB24",
"W@	c #DCDC22",
"X@	c #DEDE20",
"Y@	c #DFDF1F",
"Z@	c #E2E21D",
"`@	c #E3E21C",
" #	c #E5E51A",
".#	c #E8E817",
"+#	c #EAE916",
"@#	c #EAEB15",
"##	c #EBEB14",
"$#	c #EDED13",
"%#	c #EEED11",
"&#	c #EEEF10",
"*#	c #F0EF0F",
"=#	c #F4F30C",
"-#	c #F5F509",
";#	c #F6F709",
">#	c #F8F807",
",#	c #F8F806",
"'#	c #FAFA05",
")#	c #FCFC03",
"!#	c #0102FE",
"~#	c #0304FB",
"{#	c #0504FA",
"]#	c #0506F9",
"^#	c #0808F8",
"/#	c #0908F6",
"(#	c #0A0AF6",
"_#	c #0B0BF4",
":#	c #0D0DF1",
"<#	c #1010EF",
"[#	c #1112ED",
"}#	c #1312EC",
"|#	c #1414EC",
"1#	c #1415EA",
"2#	c #1C1CE2",
"3#	c #1D1EE2",
"4#	c #1F1FE1",
"5#	c #2020DF",
"6#	c #2021DF",
"7#	c #2221DD",
"8#	c #2424DB",
"9#	c #2827D8",
"0#	c #2829D7",
"a#	c #292AD6",
"b#	c #2C2CD3",
"c#	c #2D2DD3",
"d#	c #2E2ED2",
"e#	c #3130CE",
"f#	c #3535CB",
"g#	c #3535CA",
"h#	c #3838C7",
"i#	c #393AC5",
"j#	c #3C3CC4",
"k#	c #3D3CC3",
"l#	c #3D3EC1",
"m#	c #4040BE",
"n#	c #4342BD",
"o#	c #4343BC",
"p#	c #4645B9",
"q#	c #4746B9",
"r#	c #4849B6",
"s#	c #494AB5",
"t#	c #504FB0",
"u#	c #5051AE",
"v#	c #5151AD",
"w#	c #5353AD",
"x#	c #5353AC",
"y#	c #5455AB",
"z#	c #5959A5",
"A#	c #5A5AA5",
"B#	c #5D5DA3",
"C#	c #5E5DA2",
"D#	c #5F5EA0",
"E#	c #5F5F9F",
"F#	c #61619E",
"G#	c #64649C",
"H#	c #696995",
"I#	c #6A6B94",
"J#	c #6C6B94",
"K#	c #6D6C93",
"L#	c #6D6D91",
"M#	c #71718E",
"N#	c #777689",
"O#	c #777887",
"P#	c #797987",
"Q#	c #7A7A86",
"R#	c #7A7B84",
"S#	c #80807E",
"T#	c #82817E",
"U#	c #82827C",
"V#	c #84857B",
"W#	c #858579",
"X#	c #868678",
"Y#	c #888878",
"Z#	c #898876",
"`#	c #908F6F",
" $	c #91906E",
".$	c #92916E",
"+$	c #93926D",
"@$	c #94956A",
"#$	c #969669",
"$$	c #979769",
"%$	c #9C9B64",
"&$	c #9C9C63",
"*$	c #9D9D61",
"=$	c #9F9F61",
"-$	c #A7A858",
";$	c #ABAA54",
">$	c #ABAC53",
",$	c #ADAD53",
"'$	c #AEAD51",
")$	c #B3B44C",
"!$	c #B7B749",
"~$	c #B8B747",
"{$	c #B9B946",
"]$	c #B9B945",
"^$	c #BBBB45",
"/$	c #BCBB43",
"($	c #BCBD42",
"_$	c #C0C13F",
":$	c #C1C23D",
"<$	c #C2C23D",
"[$	c #C5C53B",
"}$	c #C7C739",
"|$	c #C7C837",
"1$	c #C9CA36",
"2$	c #CFCF2F",
"3$	c #D1D12F",
"4$	c #D1D22D",
"5$	c #D2D22D",
"6$	c #D4D42C",
"7$	c #D6D62A",
"8$	c #D9DA26",
"9$	c #DBDB25",
"0$	c #DBDB23",
"a$	c #DCDC23",
"b$	c #DDDD21",
"c$	c #DFDF20",
"d$	c #E1E01E",
"e$	c #E1E21D",
"f$	c #E6E618",
"g$	c #E8E917",
"h$	c #EBEA15",
"i$	c #ECEC14",
"j$	c #ECEC12",
"k$	c #EEEF11",
"l$	c #F0F00F",
"m$	c #F3F30B",
"n$	c #F5F50B",
"o$	c #F6F60A",
"p$	c #F7F609",
"q$	c #F7F708",
"r$	c #F9F807",
"s$	c #FAFB04",
"t$	c #FBFC03",
"u$	c #0202FE",
"v$	c #0404FC",
"w$	c #0404FB",
"x$	c #0708F7",
"y$	c #100FF0",
"z$	c #1010EE",
"A$	c #1C1BE4",
"B$	c #1D1DE1",
"C$	c #1F1FE0",
"D$	c #2221DE",
"E$	c #2524DA",
"F$	c #2A29D5",
"G$	c #2A2BD5",
"H$	c #2D2CD3",
"I$	c #2D2ED1",
"J$	c #2F2FD1",
"K$	c #3131CE",
"L$	c #3635C9",
"M$	c #3838C8",
"N$	c #3938C6",
"O$	c #3B3AC5",
"P$	c #3C3DC2",
"Q$	c #3F3EC0",
"R$	c #4241BE",
"S$	c #4242BC",
"T$	c #4545BA",
"U$	c #4746B8",
"V$	c #4748B7",
"W$	c #4948B6",
"X$	c #4A4AB5",
"Y$	c #4B4AB4",
"Z$	c #5152AE",
"`$	c #5252AC",
" %	c #5453AB",
".%	c #5455AA",
"+%	c #5657A8",
"@%	c #5B5BA4",
"#%	c #62619D",
"$%	c #63639C",
"%%	c #6A6996",
"&%	c #6A6A95",
"*%	c #6D6E91",
"=%	c #6F6E90",
"-%	c #707090",
";%	c #74758B",
">%	c #75768A",
",%	c #767688",
"'%	c #777787",
")%	c #7A7986",
"!%	c #7C7C84",
"~%	c #83827D",
"{%	c #83837C",
"]%	c #878679",
"^%	c #8A8A75",
"/%	c #90916F",
"(%	c #92916D",
"_%	c #93926C",
":%	c #94946B",
"<%	c #969569",
"[%	c #999965",
"}%	c #9E9F60",
"|%	c #9FA060",
"1%	c #A1A05F",
"2%	c #A2A15D",
"3%	c #A3A45B",
"4%	c #A8A758",
"5%	c #A8A856",
"6%	c #AAAA54",
"7%	c #AEAE51",
"8%	c #AFAF51",
"9%	c #B0B14E",
"0%	c #B4B34C",
"a%	c #B6B64A",
"b%	c #B6B649",
"c%	c #B7B747",
"d%	c #B9B847",
"e%	c #BCBC44",
"f%	c #C1C03F",
"g%	c #C4C33B",
"h%	c #C5C53A",
"i%	c #C6C638",
"j%	c #C9C837",
"k%	c #CCCD32",
"l%	c #CFCE31",
"m%	c #D0CF2F",
"n%	c #D0D12F",
"o%	c #D3D22C",
"p%	c #D3D42C",
"q%	c #DADB25",
"r%	c #DDDD23",
"s%	c #DEDD22",
"t%	c #E0E020",
"u%	c #E0E11E",
"v%	c #E9E915",
"w%	c #EAEA15",
"x%	c #F4F50B",
"y%	c #F5F60A",
"z%	c #F7F707",
"A%	c #F9F906",
"B%	c #FAFA06",
"C%	c #FCFD02",
". + @ # $ % & * = - ; > , ' ) ! ~ { ] ^ / ( _ : < [ } | 1 2 3 4 5 6 7 8 9 0 a b c d e f g h i j k l m n o p q r s t u v w x y z A B C D E F G H I J K L M N O P Q R S T U V W X Y Z `  ...+.@.#.$.%.&.*.=.-.;.>.,.'.).!.~.{.].^./.(._.:.<.[.}.|.1.2.3.4.5.6.7.8.9.0.a.b.c.d.e.f.g.h.i.j.k.l.m.n.o.p.q.r.s.t.u.v.w.x.y.z.A.B.C.D.E.F.G.H.I.J.K.L.M.N.O.P.Q.R.S.T.U.V.W.X.Y.Z.`. +.+++@+#+$+%+&+*+=+-+;+>+,+'+)+!+~+{+]+^+/+(+_+:+<+[+}+|+1+2+3+4+5+6+7+8+9+0+a+b+c+d+e+f+g+h+i+j+k+l+m+",
". + @ # n+o+p+q+r+s+t+> , u+v+w+x+y+z+A+B+C+_ : < D+} E+1 F+G+H+I+J+7 8 9 0 a K+L+M+N+e O+h i j P+Q+m R+S+T+U+r V+t u v W+x X+Y+Z+B `+ @.@F G H +@@@#@$@%@&@O P *@R S =@-@;@>@,@'@'@)@!@..+.@.#.~@{@&.]@^@;./@(@_@'.).:@~.{.<@[@}@|@_.:.1@[.}.2@1.3@4@5@6@7@7.8@9.0.9@b.0@a@b@c@d@e@f@g@k.l.h@i@j@k@l@m@n@o@p@v.w.q@r@z.s@t@u@v@w@x@y@z@I.J.A@B@M.C@D@E@F@G@S.T.U.H@W.X.I@J@K@L@M@++@+#+$+%+N@O@=+P@Q@R@S@T@U@!+~+{+V@W@/+X@Y@:+Z@`@}+ #1+2+.#+#@###$#%#&#*#a+b+=#d+-#;#>#,#'#j+)#l+m+",
". !#@ ~#{#]#p+^#/#(#_#> :#u+) <#[#}#|#1#B+( _ : < D+2#3#4#5#6#7#5 8#7 8 9#0#a#b b#c#d#f O+e#i j f#g#m n h#i#q j#k#l#u m#w n#o#Y+p#q#C r#s#F G H +@t#u#v#w#x#y#P Q R z#A#-@B#C#D#E#F#)@!@G#+.@.#.$.H#I#J#K#L#;.(@M#'.).:@~.N#O#P#Q#R#_.:.1@[.S#T#U#2.V#W#X#Y#Z#8.9.0.a.b.`# $.$+$g.@$#$$$k.l.h@%$&$*$=$q.n@t.u.v.w.q@-$z.s@;$>$,$'$F.G.H.I.)$K.L.!$~${$]$^$/$($T.U._$:$<$Y.[$`.}$|$++1$#+$+%+&+2$3$4$5$6$,+7$)+!+8$9$0$a$b$c$_+d$e$[+}+ #f$2+g$4+h$i$j$8+k$l$a+b+m$n$o$p$q$r$i+s$t$l+m+",
". u$@ v$w$o+& x$/#- ; > , u+y$z$~ y+^ 1#/ C+_ : < A$2#B$C$C$G+D$I+6 E$8 9 0 F$G$L+H$I$J$O+K$i j k L$m M$N$p O$r P$l#Q$v R$S$y T$T$U$V$W$X$Y$G H +@J #@Z$`$ %.%P +%R S =@@%V W ,@Y F##%$%..+.@.#.~@%%&%*.^@*%=%-%M#'.).;%>%,%'%^.)%(.!%:.<.[.}.T#~%{%3.W#]%Y#7.^%9.0.a.b.a@/%(%_%:%h.<%$$k.[%m.n.j@*$}%|%1%2%p@3%w.q@4%5%B.6%>$v@7%8%y@9%I.0%K.a%b%c%d%P.Q.e%S.T.U.f%W.<$g%h%`.i%M@j%@+#+k%%+l%m%n%P@o%p%S@'+)+!+8$q%V@r%s%X@t%u%Z@[+}+ #1+2+.#v%w%##6+8+9+l$a+b+c+x%y%p$z%A%B%j+)#C%m+"};
