/* XPM */
static char * Icon_Out_xpm[] = {
"19 17 120 2",
"  	c None",
". 	c #C07575",
"+ 	c #C07A7A",
"@ 	c #C67575",
"# 	c #C06868",
"$ 	c #C05E5E",
"% 	c #C17878",
"& 	c #CEA1A1",
"* 	c #E7A9A9",
"= 	c #F29B9B",
"- 	c #F58888",
"; 	c #F27777",
"> 	c #E65E5E",
", 	c #CB3E3E",
"' 	c #C25151",
") 	c #BD8282",
"! 	c #E3ADAD",
"~ 	c #FA9C9C",
"{ 	c #FF6161",
"] 	c #FF3434",
"^ 	c #FF2323",
"/ 	c #FF2525",
"( 	c #FF3333",
"_ 	c #F83838",
": 	c #DF1E1E",
"< 	c #BA2525",
"[ 	c #BE7070",
"} 	c #E7A0A0",
"| 	c #FD8A8A",
"1 	c #FF3131",
"2 	c #FF0909",
"3 	c #FF0000",
"4 	c #FF1515",
"5 	c #FF1010",
"6 	c #FC1717",
"7 	c #D60000",
"8 	c #AC3434",
"9 	c #D27878",
"0 	c #FB7F7F",
"a 	c #FF2929",
"b 	c #FF8181",
"c 	c #FFCCCC",
"d 	c #FF1212",
"e 	c #FF8080",
"f 	c #FF0A0A",
"g 	c #EB0000",
"h 	c #A40202",
"i 	c #C05D5D",
"j 	c #E86F6F",
"k 	c #FF4848",
"l 	c #FFF8F8",
"m 	c #FFFFFF",
"n 	c #FF0E0E",
"o 	c #FF0202",
"p 	c #F30000",
"q 	c #B00000",
"r 	c #9F3434",
"s 	c #C24D4D",
"t 	c #F35A5A",
"u 	c #FF2E2E",
"v 	c #F40000",
"w 	c #B60000",
"x 	c #8E2121",
"y 	c #C43838",
"z 	c #F53C3C",
"A 	c #FF3838",
"B 	c #F20000",
"C 	c #8B1A1A",
"D 	c #C13030",
"E 	c #F21818",
"F 	c #FFBEBE",
"G 	c #FFFEFE",
"H 	c #E80000",
"I 	c #9B0000",
"J 	c #BB3E3E",
"K 	c #DF0000",
"L 	c #FD0000",
"M 	c #FD1717",
"N 	c #FFC1C1",
"O 	c #FF2828",
"P 	c #FB0000",
"Q 	c #D00000",
"R 	c #930000",
"S 	c #983030",
"T 	c #B60404",
"U 	c #E70000",
"V 	c #F80000",
"W 	c #FE7F7F",
"X 	c #E40000",
"Y 	c #A20000",
"Z 	c #850303",
"` 	c #A93838",
" .	c #B70000",
"..	c #E22323",
"+.	c #F50000",
"@.	c #F92E2E",
"#.	c #E00000",
"$.	c #A50000",
"%.	c #910000",
"&.	c #942B2B",
"*.	c #901C1C",
"=.	c #BA0000",
"-.	c #D40000",
";.	c #E30000",
">.	c #DA0000",
",.	c #BD0000",
"'.	c #A10000",
").	c #8F0000",
"!.	c #8A1F1F",
"~.	c #973030",
"{.	c #840404",
"].	c #980000",
"^.	c #900000",
"/.	c #830606",
"(.	c #9D3636",
"_.	c #9E3636",
":.	c #932828",
"<.	c #881A1A",
"[.	c #932929",
"}.	c #A03838",
"              . + @ # $               ",
"          % & * = - ; > , '           ",
"        ) ! ~ { ] ^ / ( _ : <         ",
"      [ } | 1 2 3 3 3 4 5 6 7 8       ",
"      9 0 a b c 3 3 d c e f g h       ",
"    i j k ( l m c n c m m o p q r     ",
"    s t / 3 u l m m m m 3 3 v w x     ",
"    y z d 3 3 A m m m 3 3 3 B q C     ",
"    D E 2 3 d F m G m c 3 3 H I x     ",
"    J K L M N m m O l m c P Q R S     ",
"      T U V W m 3 3 O l W X Y Z       ",
"      `  ...+.L 3 3 3 @.#.$.%.&.      ",
"        *.I =.-.;.X >.,.'.).!.        ",
"          ~.{.%.].I ].^./.(.          ",
"              _.:.<.[.}.              ",
"                                      ",
"                                      "};
