/* XPM */
static char * Icon_15_Low_xpm[] = {
"18 16 5 1",
" 	c None",
".	c #808000",
"+	c #FFFF00",
"@	c #000000",
"#	c #808080",
"      .....       ",
"    ..+++++..     ",
"   .+++@@++++.    ",
"  .+++@@@@++++@   ",
"  .+++@@@@++++@   ",
" .++++@@@@+++++@  ",
" .++++#@@#+++++@  ",
" .+++++@@++++++@  ",
" .+++++@@++++++@  ",
" .+++++++++++++@  ",
"  .++++@@+++++@   ",
"  .+++#@@@++++@   ",
"   .+++@@++++@    ",
"    @@+++++@@     ",
"      @@@@@       ",
"                  "};
