/* XPM */
static char * Icon_16_Unknown_xpm[] = {
"34 16 4 1",
" 	c None",
".	c #808080",
"+	c #FFFFFF",
"@	c #000000",
"              .....               ",
"            ..+++++..             ",
"           .++@@@@@++.            ",
"          .++@@@@@@@++@           ",
"          .++@@+++@@++@           ",
"         .+++@.+++@@+++@          ",
"         .+++++++@@.+++@          ",
"         .++++++@@.++++@          ",
"         .+++++@@.+++++@          ",
"         .+++++.@.+++++@          ",
"          .+++++++++++@           ",
"          .++++.@@++++@           ",
"           @+++@@@+++@            ",
"            @@+++++@@             ",
"              @@@@@               ",
"                                  "};
