/* XPM */
static char * Ink26sb_xpm[] = {
"19 48 6 1",
" 	c None",
".	c #000000",
"+	c #008080",
"@	c #808080",
"#	c #C0C0C0",
"$	c #FFFFFF",
"...................",
"+++++++++++++++++++",
"+++++++++++++++++++",
"+++++++++++++++++++",
"+++++++++++++++++++",
"+++.............+++",
"++.@@@@@@@@@@@@@.++",
"+.@##@@@@@@@@@#@@.+",
"+.@#@$$$$$$$$$@#@.+",
"+.@$@.........@#@.+",
"+.@$@.........@#@.+",
"+.@$@.........@#@.+",
"+.@$@.........@#@.+",
"+.@$@.........@#@.+",
"+.@$@.........@#@.+",
"+.@$@.........@#@.+",
"+.@$@.........@#@.+",
"+.@$@.........@#@.+",
"+.@$@.........@#@.+",
"+.@$@.........@#@.+",
"+.@$@.........@#@.+",
"+.@$@.........@#@.+",
"+.@$@.........@#@.+",
"+.@$@.........@#@.+",
"+.@$@.........@#@.+",
"+.@$@.........@#@.+",
"+.@$@.........@#@.+",
"+.@$@.........@#@.+",
"+.@$@.........@#@.+",
"+.@$@.........@#@.+",
"+.@$@.........@#@.+",
"+.@$@.........@#@.+",
"+.@$@.........@#@.+",
"+.@$@.........@#@.+",
"+.@$@.........@#@.+",
"+.@$@.........@#@.+",
"+.@$@.........@#@.+",
"+.@$@.........@#@.+",
"+.@$@.........@#@.+",
"+.@$@.........@#@.+",
"+.@#@@@@@@@@@@@#@.+",
"++...............++",
"++++.#@@@@@@@@.++++",
"++++.#######@@.++++",
"+++++.........+++++",
"+++++++++++++++++++",
"+++++++++++++++++++",
"..................."};
