/* XPM */
static char * Ink_26b_xpm[] = {
"31 48 17 1",
" 	c None",
".	c #FFFFFF",
"+	c #FFFF00",
"@	c #FF00FF",
"#	c #FF0000",
"$	c #C0C0C0",
"%	c #808080",
"&	c #808000",
"*	c #800080",
"=	c #800000",
"-	c #00FFFF",
";	c #00FF00",
">	c #008080",
",	c #008000",
"'	c #0000FF",
")	c #000080",
"!	c #000000",
">>>>>>>>>>>>>>>>>>>>>>>>>>>>>>>",
">>>>>>>>>>>>>>>>>>>>>>>>>>>>>>>",
">>>>>>>>>>>>>>>>>>>>>>>>>>>>>>>",
">>>>>>>>>>>>>>>>>>>>>>>>>>>>>>>",
">>>>>>>>>>>>>>>>>>>>>>>>>>>>>>>",
">>>!!!!!!!!!!!!!!!!!!!!!!!!!>>>",
">>!%%%%%%%%%%%%%%%%%%%%%%%%%!>>",
">!%$$%%%%%%%%%%%%%%%%%%%%%$%%!>",
">!%$%.....................%$%!>",
">!%$%!!!!!!!!!!!!!!!!!!!!!%$%!>",
">!%.%!!!!!!!!!!!!!!!!!!!!!%$%!>",
">!%.%!!!!!!!!!!!!!!!!!!!!!%$%!>",
">!%.%!!!!!!!!!!!!!!!!!!!!!%$%!>",
">!%.%!!!!!!!!!!!!!!!!!!!!!%$%!>",
">!%.%!!!!!!!!!!!!!!!!!!!!!%$%!>",
">!%.%!!!!!!!!!!!!!!!!!!!!!%$%!>",
">!%.%!!!!!!!!!!!!!!!!!!!!!%$%!>",
">!%.%!!!!!!!!!!!!!!!!!!!!!%$%!>",
">!%.%!!!!!!!!!!!!!!!!!!!!!%$%!>",
">!%.%!!!!!!!!!!!!!!!!!!!!!%$%!>",
">!%.%!!!!!!!!!!!!!!!!!!!!!%$%!>",
">!%.%!!!!!!!!!!!!!!!!!!!!!%$%!>",
">!%.%!!!!!!!!!!!!!!!!!!!!!%$%!>",
">!%.%!!!!!!!!!!!!!!!!!!!!!%$%!>",
">!%.%!!!!!!!!!!!!!!!!!!!!!%$%!>",
">!%.%!!!!!!!!!!!!!!!!!!!!!%$%!>",
">!%.%!!!!!!!!!!!!!!!!!!!!!%$%!>",
">!%.%!!!!!!!!!!!!!!!!!!!!!%$%!>",
">!%.%!!!!!!!!!!!!!!!!!!!!!%$%!>",
">!%.%!!!!!!!!!!!!!!!!!!!!!%$%!>",
">!%.%!!!!!!!!!!!!!!!!!!!!!%$%!>",
">!%.%!!!!!!!!!!!!!!!!!!!!!%$%!>",
">!%.%!!!!!!!!!!!!!!!!!!!!!%$%!>",
">!%.%!!!!!!!!!!!!!!!!!!!!!%$%!>",
">!%.%!!!!!!!!!!!!!!!!!!!!!%$%!>",
">!%.%!!!!!!!!!!!!!!!!!!!!!%$%!>",
">!%.%!!!!!!!!!!!!!!!!!!!!!%$%!>",
">!%.%!!!!!!!!!!!!!!!!!!!!!%$%!>",
">!%.%!!!!!!!!!!!!!!!!!!!!!%$%!>",
">!%.%!!!!!!!!!!!!!!!!!!!!!%$%!>",
">!%$%%%%%%%%%%%%%%%%%%%%%%%$%!>",
">>!!!!!!!!!!!!!!!!!!!!!!!!!!!>>",
">>>>>>>>!$%%%%%%%%%%%%!>>>>>>>>",
">>>>>>>>!$$$$$$$$$$$%%!>>>>>>>>",
">>>>>>>>>!!!!!!!!!!!!!>>>>>>>>>",
">>>>>>>>>>>>>>>>>>>>>>>>>>>>>>>",
">>>>>>>>>>>>>>>>>>>>>>>>>>>>>>>",
">>>>>>>>>>>>>>>>>>>>>>>>>>>>>>>"};
