/* XPM */
static char * Ink_16_xpm[] = {
"34 43 8 1",
" 	c None",
".	c #ECE9D8",
"+	c #808080",
"@	c #C0C0C0",
"#	c #000000",
"$	c #00FFFF",
"%	c #FF00FF",
"&	c #FFFF00",
".+++@@@@@#+++++++++++++++++++++++.",
"+################################+",
"#@@@@@@@@@@@@@@@@@@@@@@@@@@@@@@@@#",
"#@@@@@@@@@@@@@@@@@@@@@@@@@@@@@@@@#",
"#@@@@@@@@@@@@@@@@@@@@@@@@@@@@@@@@#",
"#@@@@@@@@@@@@@@@@@@@@@@@@@@@@@@@@#",
"#++++++++++++++++++++++++++++++++#",
"#++++++++++++++++++++++++++++++++#",
"#@@@@@@@@@@@@@@@@@@@@@@@@@@@@@@@@#",
"#@++++++++++++++++++++++++++++++@#",
"#@+$$$$$$$$$%%%%%%%%%&&&&&&&&&&+@#",
"#@+$$$$$$$$$%%%%%%%%%&&&&&&&&&&+@#",
"#@+$$$$$$$$$%%%%%%%%%&&&&&&&&&&+@#",
"#@+$$$$$$$$$%%%%%%%%%&&&&&&&&&&+@#",
"#@+$$$$$$$$$%%%%%%%%%&&&&&&&&&&+@#",
"#@+$$$$$$$$$%%%%%%%%%&&&&&&&&&&+@#",
"#@+$$$$$$$$$%%%%%%%%%&&&&&&&&&&+@#",
"#@+$$$$$$$$$%%%%%%%%%&&&&&&&&&&+@#",
"#@+$$$$$$$$$%%%%%%%%%&&&&&&&&&&+@#",
"#@+$$$$$$$$$%%%%%%%%%&&&&&&&&&&+@#",
"#@+$$$$$$$$$%%%%%%%%%&&&&&&&&&&+@#",
"#@+$$$$$$$$$%%%%%%%%%&&&&&&&&&&+@#",
"#@+$$$$$$$$$%%%%%%%%%&&&&&&&&&&+@#",
"#@+$$$$$$$$$%%%%%%%%%&&&&&&&&&&+@#",
"#@+$$$$$$$$$%%%%%%%%%&&&&&&&&&&+@#",
"#@+$$$$$$$$$%%%%%%%%%&&&&&&&&&&+@#",
"#@+$$$$$$$$$%%%%%%%%%&&&&&&&&&&+@#",
"#@+$$$$$$$$$%%%%%%%%%&&&&&&&&&&+@#",
"#@+$$$$$$$$$%%%%%%%%%&&&&&&&&&&+@#",
"#@+$$$$$$$$$%%%%%%%%%&&&&&&&&&&+@#",
"#@+$$$$$$$$$%%%%%%%%%&&&&&&&&&&+@#",
"#@+$$$$$$$$$%%%%%%%%%&&&&&&&&&&+@#",
"#@+$$$$$$$$$%%%%%%%%%&&&&&&&&&&+@#",
"#@+$$$$$$$$$%%%%%%%%%&&&&&&&&&&+@#",
"#@+$$$$$$$$$%%%%%%%%%&&&&&&&&&&+@#",
"#@+$$$$$$$$$%%%%%%%%%&&&&&&&&&&+@#",
"#@+$$$$$$$$$%%%%%%%%%&&&&&&&&&&+@#",
"#@+$$$$$$$$$%%%%%%%%%&&&&&&&&&&+@#",
"#@+$$$$$$$$$%%%%%%%%%&&&&&&&&&&+@#",
"#@+$$$$$$$$$%%%%%%%%%&&&&&&&&&&+@#",
"#@++++++++++++++++++++++++++++++@#",
"#@@@@@@@@@@@@@@@@@@@@@@@@@@@@@@@@#",
"+################################+"};
