/* XPM */
static char * ink_out_bk[] = {
"25 56 11 1",
" 	c None",
".	c #800000",
"+	c #860C0C",
"@	c #8D1A1A",
"#	c #FF0000",
"$	c #C0C0C0",
"%	c #FFFFFF",
"&	c #010101",
"*	c #0A0A0A",
"=	c #212121",
"-	c #101010",
"          ....+          ",
"        @.#####.+        ",
"       .#########.       ",
"      .##.#####.##.      ",
"      .#.$%###%$.#&      ",
"     .###%%%#%%%###*     ",
"     .####%%%%%####*     ",
"     .#####%%%#####*     ",
"     .####%%%%%####*     ",
"     .###%%%#%%%###=     ",
"      .#.$%###%$.#&      ",
"      +##.#####.##-      ",
"       @#########&       ",
"        &&#####&&        ",
"         ******          ",
"                         ",
"                         ",
"                         ",
"                         ",
"                         ",
"                         ",
"                         ",
"                         ",
"                         ",
"                         ",
"                         ",
"    %$%$%$%$%$%$%$%$%    ",
"    $%$%$%$%$%$%$%$%$    ",
"    %$%$%$%$%$%$%$%$%    ",
"    $%$%$%$%$%$%$%$%$    ",
"    %$%$%$%$%$%$%$%$%    ",
"    $%$%$%$%$%$%$%$%$    ",
"    %$%$%$%$%$%$%$%$%    ",
"    $%$%$%$%$%$%$%$%$    ",
"    %$%$%$%$%$%$%$%$%    ",
"    $%$%$%$%$%$%$%$%$    ",
"    %$%$%$%$%$%$%$%$%    ",
"    $%$%$%$%$%$%$%$%$    ",
"    %$%$%$%$%$%$%$%$%    ",
"    $%$%$%$%$%$%$%$%$    ",
"    %$%$%$%$%$%$%$%$%    ",
"    $%$%$%$%$%$%$%$%$    ",
"    %$%$%$%$%$%$%$%$%    ",
"    $%$%$%$%$%$%$%$%$    ",
"    %$%$%$%$%$%$%$%$%    ",
"    $%$%$%$%$%$%$%$%$    ",
"    %$%$%$%$%$%$%$%$%    ",
"    $%$%$%$%$%$%$%$%$    ",
"    %$%$%$%$%$%$%$%$%    ",
"    $%$%$%$%$%$%$%$%$    ",
"    %$%$%$%$%$%$%$%$%    ",
"    $%$%$%$%$%$%$%$%$    ",
"    %$%$%$%$%$%$%$%$%    ",
"    $%$%$%$%$%$%$%$%$    ",
"    %$%$%$%$%$%$%$%$%    ",
"    $%$%$%$%$%$%$%$%$    "};
