/* XPM */
static char * ink_pm[] = {
"17 48 8 1",
" 	c None",
".	c #000000",
"+	c #008080",
"@	c #C0C0C0",
"#	c #808080",
"$	c #FFFFFF",
"%	c #FF00FF",
"&	c #800080",
".................",
"+++++++++++++++++",
"+++++++++++++++++",
"+++++++++++++++++",
"+++++++++++++++++",
"++.............++",
"+.@@#########@@.+",
"+.@#$$$$$$$$$#@.+",
"+.@#$%$%$%$%$#@.+",
"+.$#%$%$%$%$%#@.+",
"+.$#$%$%$%$%$#@.+",
"+.$#%$%$%$%$%#@.+",
"+.$#$%$%$%$%$#@.+",
"+.$#%$%$%$%$%#@.+",
"+.$#$%$%$%$%$#@.+",
"+.$#%$%$%$%$%#@.+",
"+.$#$%$%$%$%$#@.+",
"+.$#%$%$%$%$%#@.+",
"+.$#$%$%$%$%$#@.+",
"+.$#%$%$%$%$%#@.+",
"+.$#$%$%$%$%$#@.+",
"+.$#%$%$%$%$%#@.+",
"+.$#$%$%$%$%$#@.+",
"+.$#%$%$%$%$%#@.+",
"+.$#$%$%$%$%$#@.+",
"+.$#%$%$%$%$%#@.+",
"+.$#$%$%$%$%$#@.+",
"+.$#%$%$%$%$%#@.+",
"+.$#$%$%$%$%$#@.+",
"+.$#%$%$%$%$%#@.+",
"+.$#$%$%$%$%$#@.+",
"+.$#%$%$%$%$%#@.+",
"+.$#$%$%$%$%$#@.+",
"+.$#%$%$%$%$%#@.+",
"+.$#$%$%$%$%$#@.+",
"+.$#%$%$%$%$%#@.+",
"+.$#$%$%$%$%$#@.+",
"+.$#%$%$%$%$%#@.+",
"+.$#$%$%$%$%$#@.+",
"+.$#&$&$&$&$&#@.+",
"+.@###########@.+",
"++.............++",
"++++.........++++",
"++++.@@@@@@@.++++",
"+++++.......+++++",
"+++++++++++++++++",
"+++++++++++++++++",
"................."};
