/* XPM */
static char * ink_er[] = {
"3 48 6 1",
" 	c None",
".	c #0A0A0A",
"+	c #008080",
"@	c #000000",
"#	c #585858",
"$	c #0E0E0E",
"   ",
".  ",
"+@ ",
"++#",
"++@",
"++@",
"++@",
"++@",
"++@",
"++@",
"++@",
"++@",
"++@",
"++@",
"++@",
"++@",
"++@",
"++@",
"++@",
"++@",
"++@",
"++@",
"++@",
"++@",
"++@",
"++@",
"++@",
"++@",
"++@",
"++@",
"++@",
"++@",
"++@",
"++@",
"++@",
"++@",
"++@",
"++@",
"++@",
"++@",
"++@",
"++@",
"+@@",
"@  ",
"@  ",
"@  ",
"$  ",
"   "};
