/* XPM */
static char * ink_el[] = {
"3 48 5 1",
" 	c None",
".	c #000000",
"+	c #008080",
"@	c #0A0A0A",
"#	c #050505",
"   ",
"  .",
" .+",
".++",
".++",
".++",
".++",
".++",
".++",
".++",
".++",
".++",
".++",
".++",
".++",
".++",
".++",
".++",
".++",
".++",
".++",
".++",
".++",
".++",
".++",
".++",
".++",
".++",
".++",
".++",
".++",
".++",
".++",
".++",
".++",
".++",
".++",
".++",
".++",
".++",
".++",
".++",
".++",
"@.+",
"  .",
"  .",
"  #",
"   "};
