/* XPM */
static char * Ink_24c3_xpm[] = {
"20 53 7 1",
" 	c None",
".	c #808080",
"+	c #FFFFFF",
"@	c #000000",
"#	c #00FFFF",
"$	c #FF00FF",
"%	c #FFFF00",
"        .....       ",
"      ..+++++..     ",
"     .++@@@@@++.    ",
"    .++@@@@@@@++@   ",
"    .++@@+++@@++@   ",
"   .+++@.+++@@+++@  ",
"   .+++++++@@.+++@  ",
"   .++++++@@.++++@  ",
"   .+++++@@.+++++@  ",
"   .+++++.@.+++++@  ",
"    .+++++++++++@   ",
"    .++++.@@++++@   ",
"     @+++@@@+++@    ",
"      @@+++++@@     ",
"        @@@@@       ",
"                    ",
"                    ",
"                    ",
"                    ",
"                    ",
"                    ",
"                    ",
"                    ",
"                    ",
"                    ",
"     ++++++++++++   ",
"     ++++++++++++   ",
"     ++++++++++++   ",
"     ++++++++++++   ",
"     ++++++++++++   ",
"     ++++++++++++   ",
"     +#+++$+++%++   ",
"     ++++++++++++   ",
"     +++#+++$+++%   ",
"     ++++++++++++   ",
"     +#+#+$+$+%+%   ",
"     ++#+++$+++%+   ",
"     +#+#+$+$+%+%   ",
"     #+++$+++%+++   ",
"     +#+#+$+$+%+%   ",
"     #+#+$+$+%+%+   ",
"     +#+#+$+$+%+%   ",
"     #+#+$+$+%+%+   ",
"     +###+$+$+%+%   ",
"     #+#+$+$+%+%+   ",
"     +#+#$$+$%%+%   ",
"     #+#+$+$+%+%+   ",
"     ####+$$$+%%%   ",
"     #+#+$+$+%+%+   ",
"     ##+#$$$$%%%%   ",
"     #+#+$+$+%+%+   ",
"     ####$$$$%%%%   ",
"     +#+#+$+$+%+%   "};
