/* XPM */
static char * ink_low_bk[] = {
"25 48 22 1",
" 	c None",
".	c #85850B",
"+	c #96962C",
"@	c #9C9C39",
"#	c #909021",
"$	c #FFFF00",
"%	c #888810",
"&	c #A8A851",
"*	c #A1A143",
"=	c #000000",
"-	c #808000",
";	c #232323",
">	c #808080",
",	c #8F8F1F",
"'	c #1B1B1B",
")	c #323232",
"!	c #7A7A7A",
"~	c #080808",
"{	c #424242",
"]	c #2C2C2C",
"^	c #FFFFFF",
"/	c #C0C0C0",
"          ....+          ",
"        @#$$$$$%&        ",
"       *$$$==$$$$#       ",
"      @$$$====$$$$+      ",
"      -$$$====$$$$;      ",
"     *$$$$====$$$$$=     ",
"     -$$$$>==>$$$$$=     ",
"     -$$$$$==$$$$$$=     ",
"     -$$$$$==$$$$$$=     ",
"     ,$$$$$$$$$$$$$'     ",
"      -$$$$==$$$$$=      ",
"      #$$$>==>$$$$)      ",
"       *$$$==$$$$!       ",
"        ;$$$$$$~{        ",
"         ]';;;'          ",
"                         ",
"                         ",
"                         ",
"                         ",
"                         ",
"                         ",
"                         ",
"                         ",
"                         ",
"                         ",
"    ^/^/^/^/^/^/^/^/^    ",
"    /^/^/^/^/^/^/^/^/    ",
"    ^/^/^/^/^/^/^/^/^    ",
"    /^/^/^/^/^/^/^/^/    ",
"    ^/^/^/^/^/^/^/^/^    ",
"    /^/^/^/^/^/^/^/^/    ",
"    ^/^/^/^/^/^/^/^/^    ",
"    /^/^/^/^/^/^/^/^/    ",
"    ^/^/^/^/^/^/^/^/^    ",
"    /^/^/^/^/^/^/^/^/    ",
"    ^/^/^/^/^/^/^/^/^    ",
"    /^/^/^/^/^/^/^/^/    ",
"    ^/^/^/^/^/^/^/^/^    ",
"    /^/^/^/^/^/^/^/^/    ",
"    ^/^/^/^/^/^/^/^/^    ",
"    /^/^/^/^/^/^/^/^/    ",
"    ^/^/^/^/^/^/^/^/^    ",
"    /^/^/^/^/^/^/^/^/    ",
"    ^/^/^/^/^/^/^/^/^    ",
"    /^/^/^/^/^/^/^/^/    ",
"    ^/^/^/^/^/^/^/^/^    ",
"    /^/^/^/^/^/^/^/^/    ",
"    ^/^/^/^/^/^/^/^/^    "};
