/* XPM */
static char * Ink_15_xpm[] = {
"18 43 5 1",
" 	c None",
".	c #ECE9D8",
"+	c #808080",
"@	c #C0C0C0",
"#	c #000000",
".++++++@@@@@#++++.",
"+################+",
"#@@@@@@@@@@@@@@@@#",
"#@@@@@@@@@@@@@@@@#",
"#@@@@@@@@@@@@@@@@#",
"#@@@@@@@@@@@@@@@@#",
"#++++++++++++++++#",
"#++++++++++++++++#",
"#@@@@@@@@@@@@@@@@#",
"#@++++++++++++++@#",
"#@+############+@#",
"#@+############+@#",
"#@+############+@#",
"#@+############+@#",
"#@+############+@#",
"#@+############+@#",
"#@+############+@#",
"#@+############+@#",
"#@+############+@#",
"#@+############+@#",
"#@+############+@#",
"#@+############+@#",
"#@+############+@#",
"#@+############+@#",
"#@+############+@#",
"#@+############+@#",
"#@+############+@#",
"#@+############+@#",
"#@+############+@#",
"#@+############+@#",
"#@+############+@#",
"#@+############+@#",
"#@+############+@#",
"#@+############+@#",
"#@+############+@#",
"#@+############+@#",
"#@+############+@#",
"#@+############+@#",
"#@+############+@#",
"#@+############+@#",
"#@++++++++++++++@#",
"#@@@@@@@@@@@@@@@@#",
"+################+"};
