/* XPM */
static char * Inkg26pc_xpm[] = {
"19 49 99 2",
"  	c None",
". 	c #BBBCBF",
"+ 	c #B1B2B5",
"@ 	c #B0B1B4",
"# 	c #B9BABD",
"$ 	c #A0A2A3",
"% 	c #605F60",
"& 	c #A3A4A6",
"* 	c #9C9D9F",
"= 	c #535353",
"- 	c #535453",
"; 	c #545454",
"> 	c #595A59",
", 	c #5A595A",
"' 	c #5A5A5B",
") 	c #5B5B5C",
"! 	c #5C5B5C",
"~ 	c #A2A3A4",
"{ 	c #686869",
"] 	c #7FFFFF",
"^ 	c #A5FFFF",
"/ 	c #CAFFFF",
"( 	c #DFFFFF",
"_ 	c #D6FFFF",
": 	c #AEFFFF",
"< 	c #80FFFF",
"[ 	c #66FFFF",
"} 	c #B8B9BC",
"| 	c #9FA0A2",
"1 	c #5E5E5F",
"2 	c #BABBBE",
"3 	c #69696A",
"4 	c #B7B8BB",
"5 	c #A09FA1",
"6 	c #6A6A6C",
"7 	c #9E9FA0",
"8 	c #5C5C5D",
"9 	c #B9BBBE",
"0 	c #5B5C5C",
"a 	c #6C6C6D",
"b 	c #B6B7BA",
"c 	c #6D6D6E",
"d 	c #59595A",
"e 	c #B5B7BA",
"f 	c #595959",
"g 	c #B8B9BB",
"h 	c #6E6E70",
"i 	c #B5B6B9",
"j 	c #575758",
"k 	c #9B9C9E",
"l 	c #565757",
"m 	c #706F71",
"n 	c #B4B5B8",
"o 	c #555656",
"p 	c #9A9B9C",
"q 	c #707072",
"r 	c #555655",
"s 	c #9A9A9B",
"t 	c #727273",
"u 	c #999A9B",
"v 	c #B4B5B7",
"w 	c #535354",
"x 	c #B3B4B7",
"y 	c #535454",
"z 	c #737375",
"A 	c #525152",
"B 	c #747475",
"C 	c #B2B3B6",
"D 	c #98999A",
"E 	c #757476",
"F 	c #979899",
"G 	c #97989A",
"H 	c #515050",
"I 	c #B3B5B8",
"J 	c #B1B3B6",
"K 	c #989899",
"L 	c #4F5050",
"M 	c #767778",
"N 	c #969798",
"O 	c #4F4F4F",
"P 	c #8A8A8B",
"Q 	c #79797A",
"R 	c #979798",
"S 	c #959597",
"T 	c #939394",
"U 	c #919293",
"V 	c #909091",
"W 	c #8E8D8F",
"X 	c #8C8C8C",
"Y 	c #89898A",
"Z 	c #878788",
"` 	c #888889",
" .	c #868686",
"..	c #838384",
"+.	c #818182",
"@.	c #7F7F81",
"#.	c #7D7D7E",
"$.	c #7B7B7C",
"%.	c #4F504F",
"    . . . . . . . . . . . . . . .     ",
"  . . + + + + + @ @ @ @ @ @ @ # $ %   ",
"  . & * = = - ; > , ' ' ) ! ! # $ %   ",
"  . ~ { ] ^ / ( _ : < [ [ [ [ # $ %   ",
"  . ~ { ] ^ / ( _ : < [ [ [ [ } | 1   ",
"  . & { ] ^ / ( _ : < [ [ [ [ # | 1   ",
"  2 ~ { ] ^ / ( _ : < [ [ [ [ } | 1   ",
"  2 ~ 3 ] ^ / ( _ : < [ [ [ [ } | 1   ",
"  2 ~ 3 ] ^ / ( _ : < [ [ [ [ 4 5 1   ",
"  2 ~ 6 ] ^ / ( _ : < [ [ [ [ } 7 8   ",
"  2 ~ 6 ] ^ / ( _ : < [ [ [ [ 4 7 !   ",
"  9 $ 6 ] ^ / ( _ : < [ [ [ [ 4 7 0   ",
"  # $ 6 ] ^ / ( _ : < [ [ [ [ 4 7 )   ",
"  # $ a ] ^ / ( _ : < [ [ [ [ 4 7 '   ",
"  # $ a ] ^ / ( _ : < [ [ [ [ b * '   ",
"  # | a ] ^ / ( _ : < [ [ [ [ b * ,   ",
"  } | c ] ^ / ( _ : < [ [ [ [ b * d   ",
"  } | c ] ^ / ( _ : < [ [ [ [ e * f   ",
"  } | c ] ^ / ( _ : < [ [ [ [ b * f   ",
"  g | h ] ^ / ( _ : < [ [ [ [ i * j   ",
"  4 7 h ] ^ / ( _ : < [ [ [ [ i k j   ",
"  4 7 h ] ^ / ( _ : < [ [ [ [ i k l   ",
"  4 7 m ] ^ / ( _ : < [ [ [ [ n k o   ",
"  4 7 m ] ^ / ( _ : < [ [ [ [ n p o   ",
"  b 7 m ] ^ / ( _ : < [ [ [ [ n p o   ",
"  b * q ] ^ / ( _ : < [ [ [ [ n p r   ",
"  b * q ] ^ / ( _ : < [ [ [ [ n s ;   ",
"  b * t ] ^ / ( _ : < [ [ [ [ n u ;   ",
"  b * q ] ^ / ( _ : < [ [ [ [ v u w   ",
"  i k t ] ^ / ( _ : < [ [ [ [ x u y   ",
"  b * t ] ^ / ( _ : < [ [ [ [ x u =   ",
"  i k z ] ^ / ( _ : < [ [ [ [ x u =   ",
"  n k z ] ^ / ( _ : < [ [ [ [ x u A   ",
"  n k B ] ^ / ( _ : < [ [ [ [ C D A   ",
"  n p E ] ^ / ( _ : < [ [ [ [ C D A   ",
"  n p E ] ^ / ( _ : < [ [ [ [ C D A   ",
"  n p E ] ^ / ( _ : < [ [ [ [ C F A   ",
"  n p E ] ^ / ( _ : < [ [ [ [ C G H   ",
"  I s E ] ^ / ( _ : < [ [ [ [ J K L   ",
"  x u M ] ^ / ( _ : < [ [ [ [ C F L   ",
"  x u M ] ^ / ( _ : < [ [ [ [ C F L   ",
"  x N M ] ^ / ( _ : < [ [ [ [ + F O   ",
"  x N u ] ^ / ( _ : < [ [ [ [ C N O   ",
"  x P F x x x x x x x x x x x F P O   ",
"  O Q P D G K D F F F N N N N P Q O   ",
"    O A A H L H O O O O O O O O O     ",
"      1 P R S T U V W X Y Z Q L       ",
"        1 ` Z  ...+.@.#.$.Q O         ",
"          A A A = A L %.O L           "};
