/* XPM */
static char * inkg_ye[] = {
"17 48 7 1",
" 	c None",
".	c #808080",
"+	c #000000",
"@	c #C0C0C0",
"#	c #FFFFFF",
"$	c #FFFF00",
"%	c #808000",
".................",
"+++++++++++++++++",
"+++++++++++++++++",
"+++++++++++++++++",
"+++++++++++++++++",
"++.............++",
"+.@@.........@@.+",
"+.@.#########.@.+",
"+.@.$$$$$$$$$.@.+",
"+.#.$$$$$$$$$.@.+",
"+.#.$$$$$$$$$.@.+",
"+.#.$$$$$$$$$.@.+",
"+.#.$$$$$$$$$.@.+",
"+.#.$$$$$$$$$.@.+",
"+.#.$$$$$$$$$.@.+",
"+.#.$$$$$$$$$.@.+",
"+.#.$$$$$$$$$.@.+",
"+.#.$$$$$$$$$.@.+",
"+.#.$$$$$$$$$.@.+",
"+.#.$$$$$$$$$.@.+",
"+.#.$$$$$$$$$.@.+",
"+.#.$$$$$$$$$.@.+",
"+.#.$$$$$$$$$.@.+",
"+.#.$$$$$$$$$.@.+",
"+.#.$$$$$$$$$.@.+",
"+.#.$$$$$$$$$.@.+",
"+.#.$$$$$$$$$.@.+",
"+.#.$$$$$$$$$.@.+",
"+.#.$$$$$$$$$.@.+",
"+.#.$$$$$$$$$.@.+",
"+.#.$$$$$$$$$.@.+",
"+.#.$$$$$$$$$.@.+",
"+.#.$$$$$$$$$.@.+",
"+.#.$$$$$$$$$.@.+",
"+.#.$$$$$$$$$.@.+",
"+.#.$$$$$$$$$.@.+",
"+.#.$$$$$$$$$.@.+",
"+.#.$$$$$$$$$.@.+",
"+.#.$$$$$$$$$.@.+",
"+.#.%%%%%%%%%.@.+",
"+.@...........@.+",
"+++++++++++++++++",
"++++.........++++",
"++++.@@@@@@@.++++",
"++++.........++++",
"+++++++++++++++++",
"+++++++++++++++++",
"................."};
