/* XPM */
static char * Inkg26c_xpm[] = {
"41 49 115 2",
"  	c None",
". 	c #BBBCBF",
"+ 	c #B1B2B5",
"@ 	c #B0B1B4",
"# 	c #B9BABD",
"$ 	c #A0A2A3",
"% 	c #605F60",
"& 	c #A3A4A6",
"* 	c #9C9D9F",
"= 	c #535353",
"- 	c #535453",
"; 	c #545454",
"> 	c #595A59",
", 	c #5A595A",
"' 	c #5A5A5B",
") 	c #5B5B5C",
"! 	c #5C5B5C",
"~ 	c #A2A3A4",
"{ 	c #686869",
"] 	c #78D5FD",
"^ 	c #95D7FC",
"/ 	c #A6D9FC",
"( 	c #A5D8FC",
"_ 	c #93D7FD",
": 	c #73D5FD",
"< 	c #4FD3FD",
"[ 	c #2FCFFE",
"} 	c #13CEFF",
"| 	c #00CCFF",
"1 	c #FD68F6",
"2 	c #FF62F9",
"3 	c #FF5AFC",
"4 	c #FF53FD",
"5 	c #FE4BFD",
"6 	c #FD42FD",
"7 	c #FD3AFC",
"8 	c #FC33FB",
"9 	c #FC2CF9",
"0 	c #FC25F7",
"a 	c #FD20F4",
"b 	c #FDFD19",
"c 	c #FDFD13",
"d 	c #FDFC10",
"e 	c #FBFA0E",
"f 	c #F9F70B",
"g 	c #F8F50B",
"h 	c #F6F20A",
"i 	c #F3EF0C",
"j 	c #F0EA0F",
"k 	c #EDE712",
"l 	c #EAE315",
"m 	c #B8B9BC",
"n 	c #9FA0A2",
"o 	c #5E5E5F",
"p 	c #BABBBE",
"q 	c #69696A",
"r 	c #B7B8BB",
"s 	c #A09FA1",
"t 	c #6A6A6C",
"u 	c #9E9FA0",
"v 	c #5C5C5D",
"w 	c #B9BBBE",
"x 	c #5B5C5C",
"y 	c #6C6C6D",
"z 	c #B6B7BA",
"A 	c #6D6D6E",
"B 	c #59595A",
"C 	c #B5B7BA",
"D 	c #595959",
"E 	c #B8B9BB",
"F 	c #6E6E70",
"G 	c #B5B6B9",
"H 	c #575758",
"I 	c #9B9C9E",
"J 	c #565757",
"K 	c #706F71",
"L 	c #B4B5B8",
"M 	c #555656",
"N 	c #9A9B9C",
"O 	c #707072",
"P 	c #555655",
"Q 	c #9A9A9B",
"R 	c #727273",
"S 	c #999A9B",
"T 	c #B4B5B7",
"U 	c #535354",
"V 	c #B3B4B7",
"W 	c #535454",
"X 	c #737375",
"Y 	c #525152",
"Z 	c #747475",
"` 	c #B2B3B6",
" .	c #98999A",
"..	c #757476",
"+.	c #979899",
"@.	c #97989A",
"#.	c #515050",
"$.	c #B3B5B8",
"%.	c #B1B3B6",
"&.	c #989899",
"*.	c #4F5050",
"=.	c #767778",
"-.	c #969798",
";.	c #4F4F4F",
">.	c #8A8A8B",
",.	c #B6B7B9",
"'.	c #79797A",
").	c #979798",
"!.	c #959597",
"~.	c #919293",
"{.	c #888889",
"].	c #878788",
"^.	c #868686",
"/.	c #838384",
"(.	c #7F7F81",
"    . . . . . . . . . . . . . . . . . . . . . . . . . . . . . . . . . . . . .     ",
"  . . + + + + + @ @ @ @ @ @ @ @ @ @ @ @ @ @ @ @ @ @ @ @ @ @ @ @ @ @ @ @ @ # $ %   ",
"  . & * = = - ; > > , ' ' ' ' ' ' ) ! ! ! ! ! ! ! ! ! ! ! ! ! ! ! ! ! ! ! # $ %   ",
"  . ~ { ] ^ / ( _ : < [ } | | 1 2 3 4 5 6 7 8 9 0 a b c d e f g h i j k l # $ %   ",
"  . ~ { ] ^ / ( _ : < [ } | | 1 2 3 4 5 6 7 8 9 0 a b c d e f g h i j k l m n o   ",
"  . & { ] ^ / ( _ : < [ } | | 1 2 3 4 5 6 7 8 9 0 a b c d e f g h i j k l # n o   ",
"  p ~ { ] ^ / ( _ : < [ } | | 1 2 3 4 5 6 7 8 9 0 a b c d e f g h i j k l m n o   ",
"  p ~ q ] ^ / ( _ : < [ } | | 1 2 3 4 5 6 7 8 9 0 a b c d e f g h i j k l m n o   ",
"  p ~ q ] ^ / ( _ : < [ } | | 1 2 3 4 5 6 7 8 9 0 a b c d e f g h i j k l r s o   ",
"  p ~ t ] ^ / ( _ : < [ } | | 1 2 3 4 5 6 7 8 9 0 a b c d e f g h i j k l m u v   ",
"  p ~ t ] ^ / ( _ : < [ } | | 1 2 3 4 5 6 7 8 9 0 a b c d e f g h i j k l r u !   ",
"  w $ t ] ^ / ( _ : < [ } | | 1 2 3 4 5 6 7 8 9 0 a b c d e f g h i j k l r u x   ",
"  # $ t ] ^ / ( _ : < [ } | | 1 2 3 4 5 6 7 8 9 0 a b c d e f g h i j k l r u )   ",
"  # $ y ] ^ / ( _ : < [ } | | 1 2 3 4 5 6 7 8 9 0 a b c d e f g h i j k l r u '   ",
"  # $ y ] ^ / ( _ : < [ } | | 1 2 3 4 5 6 7 8 9 0 a b c d e f g h i j k l z * '   ",
"  # n y ] ^ / ( _ : < [ } | | 1 2 3 4 5 6 7 8 9 0 a b c d e f g h i j k l z * ,   ",
"  m n A ] ^ / ( _ : < [ } | | 1 2 3 4 5 6 7 8 9 0 a b c d e f g h i j k l z * B   ",
"  m n A ] ^ / ( _ : < [ } | | 1 2 3 4 5 6 7 8 9 0 a b c d e f g h i j k l C * D   ",
"  m n A ] ^ / ( _ : < [ } | | 1 2 3 4 5 6 7 8 9 0 a b c d e f g h i j k l z * D   ",
"  E n F ] ^ / ( _ : < [ } | | 1 2 3 4 5 6 7 8 9 0 a b c d e f g h i j k l G * H   ",
"  r u F ] ^ / ( _ : < [ } | | 1 2 3 4 5 6 7 8 9 0 a b c d e f g h i j k l G I H   ",
"  r u F ] ^ / ( _ : < [ } | | 1 2 3 4 5 6 7 8 9 0 a b c d e f g h i j k l G I J   ",
"  r u K ] ^ / ( _ : < [ } | | 1 2 3 4 5 6 7 8 9 0 a b c d e f g h i j k l L I M   ",
"  r u K ] ^ / ( _ : < [ } | | 1 2 3 4 5 6 7 8 9 0 a b c d e f g h i j k l L N M   ",
"  z u K ] ^ / ( _ : < [ } | | 1 2 3 4 5 6 7 8 9 0 a b c d e f g h i j k l L N M   ",
"  z * O ] ^ / ( _ : < [ } | | 1 2 3 4 5 6 7 8 9 0 a b c d e f g h i j k l L N P   ",
"  z * O ] ^ / ( _ : < [ } | | 1 2 3 4 5 6 7 8 9 0 a b c d e f g h i j k l L Q ;   ",
"  z * R ] ^ / ( _ : < [ } | | 1 2 3 4 5 6 7 8 9 0 a b c d e f g h i j k l L S ;   ",
"  z * O ] ^ / ( _ : < [ } | | 1 2 3 4 5 6 7 8 9 0 a b c d e f g h i j k l T S U   ",
"  G I R ] ^ / ( _ : < [ } | | 1 2 3 4 5 6 7 8 9 0 a b c d e f g h i j k l V S W   ",
"  z * R ] ^ / ( _ : < [ } | | 1 2 3 4 5 6 7 8 9 0 a b c d e f g h i j k l V S =   ",
"  G I X ] ^ / ( _ : < [ } | | 1 2 3 4 5 6 7 8 9 0 a b c d e f g h i j k l V S =   ",
"  L I X ] ^ / ( _ : < [ } | | 1 2 3 4 5 6 7 8 9 0 a b c d e f g h i j k l V S Y   ",
"  L I Z ] ^ / ( _ : < [ } | | 1 2 3 4 5 6 7 8 9 0 a b c d e f g h i j k l `  .Y   ",
"  L N ..] ^ / ( _ : < [ } | | 1 2 3 4 5 6 7 8 9 0 a b c d e f g h i j k l `  .Y   ",
"  L N ..] ^ / ( _ : < [ } | | 1 2 3 4 5 6 7 8 9 0 a b c d e f g h i j k l `  .Y   ",
"  L N ..] ^ / ( _ : < [ } | | 1 2 3 4 5 6 7 8 9 0 a b c d e f g h i j k l ` +.Y   ",
"  L N ..] ^ / ( _ : < [ } | | 1 2 3 4 5 6 7 8 9 0 a b c d e f g h i j k l ` @.#.  ",
"  $.Q ..] ^ / ( _ : < [ } | | 1 2 3 4 5 6 7 8 9 0 a b c d e f g h i j k l %.&.*.  ",
"  V S =.] ^ / ( _ : < [ } | | 1 2 3 4 5 6 7 8 9 0 a b c d e f g h i j k l ` +.*.  ",
"  V S =.] ^ / ( _ : < [ } | | 1 2 3 4 5 6 7 8 9 0 a b c d e f g h i j k l ` +.*.  ",
"  V -.=.] ^ / ( _ : < [ } | | 1 2 3 4 5 6 7 8 9 0 a b c d e f g h i j k l + +.;.  ",
"  V -.S ] ^ / ( _ : < [ } | | 1 2 3 4 5 6 7 8 9 0 a b c d e f g h i j k l ` -.;.  ",
"  V >.+.V V V V V V V V V V V V V V V V V V V V V V V V V V V V G # ,.V V +.>.;.  ",
"  ;.'.>. .@.&. .+.+.+.+.+.+.+.+.-.-.-.-.-.-.-.-.-.-.-.-.-.-.-.-.-.-.-.-.-.>.'.;.  ",
"    ;.Y Y #.*.#.;.;.;.;.;.;.;.;.;.;.;.;.;.;.;.;.;.;.;.;.;.;.;.;.;.;.;.;.;.;.;.    ",
"                    o >.).!.!.~.~.~.~.~.~.~.~.~.~.~.~.~.~.'.*.                    ",
"                      o {.].^././.(.'.'.'.'.'.'.'.'.'.'.'.;.                      ",
"                        Y Y Y = = *.*.*.*.*.*.*.*.*.*.*.*.                        "};
