/* XPM */
static char * Inkg26bb_xpm[] = {
"27 49 92 2",
"  	c None",
". 	c #BBBCBF",
"+ 	c #B1B2B5",
"@ 	c #B0B1B4",
"# 	c #B9BABD",
"$ 	c #A0A2A3",
"% 	c #605F60",
"& 	c #A3A4A6",
"* 	c #9C9D9F",
"= 	c #535353",
"- 	c #535453",
"; 	c #545454",
"> 	c #595A59",
", 	c #5A595A",
"' 	c #5A5A5B",
") 	c #5B5B5C",
"! 	c #5C5B5C",
"~ 	c #A2A3A4",
"{ 	c #686869",
"] 	c #000000",
"^ 	c #2F2F2E",
"/ 	c #484848",
"( 	c #525252",
"_ 	c #404040",
": 	c #1F1F1F",
"< 	c #030303",
"[ 	c #B8B9BC",
"} 	c #9FA0A2",
"| 	c #5E5E5F",
"1 	c #BABBBE",
"2 	c #69696A",
"3 	c #B7B8BB",
"4 	c #A09FA1",
"5 	c #6A6A6C",
"6 	c #9E9FA0",
"7 	c #5C5C5D",
"8 	c #B9BBBE",
"9 	c #5B5C5C",
"0 	c #6C6C6D",
"a 	c #B6B7BA",
"b 	c #6D6D6E",
"c 	c #59595A",
"d 	c #B5B7BA",
"e 	c #595959",
"f 	c #B8B9BB",
"g 	c #6E6E70",
"h 	c #B5B6B9",
"i 	c #575758",
"j 	c #9B9C9E",
"k 	c #565757",
"l 	c #706F71",
"m 	c #B4B5B8",
"n 	c #555656",
"o 	c #9A9B9C",
"p 	c #707072",
"q 	c #555655",
"r 	c #9A9A9B",
"s 	c #727273",
"t 	c #999A9B",
"u 	c #B4B5B7",
"v 	c #535354",
"w 	c #B3B4B7",
"x 	c #535454",
"y 	c #737375",
"z 	c #525152",
"A 	c #747475",
"B 	c #B2B3B6",
"C 	c #98999A",
"D 	c #757476",
"E 	c #979899",
"F 	c #97989A",
"G 	c #515050",
"H 	c #B3B5B8",
"I 	c #B1B3B6",
"J 	c #989899",
"K 	c #4F5050",
"L 	c #767778",
"M 	c #969798",
"N 	c #4F4F4F",
"O 	c #8A8A8B",
"P 	c #79797A",
"Q 	c #979798",
"R 	c #959597",
"S 	c #919293",
"T 	c #888889",
"U 	c #878788",
"V 	c #868686",
"W 	c #838384",
"X 	c #7F7F81",
"Y 	c #7D7D7E",
"Z 	c #7B7B7C",
"` 	c #4F504F",
"    . . . . . . . . . . . . . . . . . . . . . . .     ",
"  . . + + + + + @ @ @ @ @ @ @ @ @ @ @ @ @ @ @ # $ %   ",
"  . & * = = - ; > > , ' ' ' ' ' ' ) ! ! ! ! ! # $ %   ",
"  . ~ { ] ^ / ( ( ( _ : < ] ] ] ] ] ] ] ] ] ] # $ %   ",
"  . ~ { ] ^ / ( ( ( _ : < ] ] ] ] ] ] ] ] ] ] [ } |   ",
"  . & { ] ^ / ( ( ( _ : < ] ] ] ] ] ] ] ] ] ] # } |   ",
"  1 ~ { ] ^ / ( ( ( _ : < ] ] ] ] ] ] ] ] ] ] [ } |   ",
"  1 ~ 2 ] ^ / ( ( ( _ : < ] ] ] ] ] ] ] ] ] ] [ } |   ",
"  1 ~ 2 ] ^ / ( ( ( _ : < ] ] ] ] ] ] ] ] ] ] 3 4 |   ",
"  1 ~ 5 ] ^ / ( ( ( _ : < ] ] ] ] ] ] ] ] ] ] [ 6 7   ",
"  1 ~ 5 ] ^ / ( ( ( _ : < ] ] ] ] ] ] ] ] ] ] 3 6 !   ",
"  8 $ 5 ] ^ / ( ( ( _ : < ] ] ] ] ] ] ] ] ] ] 3 6 9   ",
"  # $ 5 ] ^ / ( ( ( _ : < ] ] ] ] ] ] ] ] ] ] 3 6 )   ",
"  # $ 0 ] ^ / ( ( ( _ : < ] ] ] ] ] ] ] ] ] ] 3 6 '   ",
"  # $ 0 ] ^ / ( ( ( _ : < ] ] ] ] ] ] ] ] ] ] a * '   ",
"  # } 0 ] ^ / ( ( ( _ : < ] ] ] ] ] ] ] ] ] ] a * ,   ",
"  [ } b ] ^ / ( ( ( _ : < ] ] ] ] ] ] ] ] ] ] a * c   ",
"  [ } b ] ^ / ( ( ( _ : < ] ] ] ] ] ] ] ] ] ] d * e   ",
"  [ } b ] ^ / ( ( ( _ : < ] ] ] ] ] ] ] ] ] ] a * e   ",
"  f } g ] ^ / ( ( ( _ : < ] ] ] ] ] ] ] ] ] ] h * i   ",
"  3 6 g ] ^ / ( ( ( _ : < ] ] ] ] ] ] ] ] ] ] h j i   ",
"  3 6 g ] ^ / ( ( ( _ : < ] ] ] ] ] ] ] ] ] ] h j k   ",
"  3 6 l ] ^ / ( ( ( _ : < ] ] ] ] ] ] ] ] ] ] m j n   ",
"  3 6 l ] ^ / ( ( ( _ : < ] ] ] ] ] ] ] ] ] ] m o n   ",
"  a 6 l ] ^ / ( ( ( _ : < ] ] ] ] ] ] ] ] ] ] m o n   ",
"  a * p ] ^ / ( ( ( _ : < ] ] ] ] ] ] ] ] ] ] m o q   ",
"  a * p ] ^ / ( ( ( _ : < ] ] ] ] ] ] ] ] ] ] m r ;   ",
"  a * s ] ^ / ( ( ( _ : < ] ] ] ] ] ] ] ] ] ] m t ;   ",
"  a * p ] ^ / ( ( ( _ : < ] ] ] ] ] ] ] ] ] ] u t v   ",
"  h j s ] ^ / ( ( ( _ : < ] ] ] ] ] ] ] ] ] ] w t x   ",
"  a * s ] ^ / ( ( ( _ : < ] ] ] ] ] ] ] ] ] ] w t =   ",
"  h j y ] ^ / ( ( ( _ : < ] ] ] ] ] ] ] ] ] ] w t =   ",
"  m j y ] ^ / ( ( ( _ : < ] ] ] ] ] ] ] ] ] ] w t z   ",
"  m j A ] ^ / ( ( ( _ : < ] ] ] ] ] ] ] ] ] ] B C z   ",
"  m o D ] ^ / ( ( ( _ : < ] ] ] ] ] ] ] ] ] ] B C z   ",
"  m o D ] ^ / ( ( ( _ : < ] ] ] ] ] ] ] ] ] ] B C z   ",
"  m o D ] ^ / ( ( ( _ : < ] ] ] ] ] ] ] ] ] ] B E z   ",
"  m o D ] ^ / ( ( ( _ : < ] ] ] ] ] ] ] ] ] ] B F G   ",
"  H r D ] ^ / ( ( ( _ : < ] ] ] ] ] ] ] ] ] ] I J K   ",
"  w t L ] ^ / ( ( ( _ : < ] ] ] ] ] ] ] ] ] ] B E K   ",
"  w t L ] ^ / ( ( ( _ : < ] ] ] ] ] ] ] ] ] ] B E K   ",
"  w M L ] ^ / ( ( ( _ : < ] ] ] ] ] ] ] ] ] ] + E N   ",
"  w M t ] ^ / ( ( ( _ : < ] ] ] ] ] ] ] ] ] ] B M N   ",
"  w O E w w w w w w w w w w w w w w w w w w w E O N   ",
"  N P O C F J C E E E E E E E E M M M M M M M O P N   ",
"    N z z G K G N N N N N N N N N N N N N N N N N     ",
"        | O Q R R S S S S S S S S S S S S P K         ",
"          | T U V W W X X X X X Y Z P P P N           ",
"            z z z = = K K K K K ` N K K K             "};
