/* XPM */
static char * Inkg27c_xpm[] = {
"48 49 117 2",
"  	c None",
". 	c #BBBCBF",
"+ 	c #B1B2B5",
"@ 	c #B0B1B4",
"# 	c #B9BABD",
"$ 	c #A0A2A3",
"% 	c #605F60",
"& 	c #A3A4A6",
"* 	c #9C9D9F",
"= 	c #535353",
"- 	c #535453",
"; 	c #545454",
"> 	c #595A59",
", 	c #5A595A",
"' 	c #5A5A5B",
") 	c #5B5B5C",
"! 	c #5C5B5C",
"~ 	c #A2A3A4",
"{ 	c #686869",
"] 	c #78D6FD",
"^ 	c #95D8FC",
"/ 	c #A6D9FC",
"( 	c #73D5FD",
"_ 	c #4FD2FE",
": 	c #2FD0FE",
"< 	c #00CCFF",
"[ 	c #FE68F9",
"} 	c #FF62FB",
"| 	c #FF5AFD",
"1 	c #FF53FD",
"2 	c #FE4BFE",
"3 	c #FD42FC",
"4 	c #FC3AFC",
"5 	c #FC33FA",
"6 	c #FC2CF7",
"7 	c #FC25F4",
"8 	c #FCFD20",
"9 	c #FDFD19",
"0 	c #FCFB14",
"a 	c #FBFA11",
"b 	c #F9F710",
"c 	c #F7F60E",
"d 	c #F5F10D",
"e 	c #F3EE0D",
"f 	c #F0EB10",
"g 	c #EEE612",
"h 	c #000000",
"i 	c #040404",
"j 	c #272727",
"k 	c #505050",
"l 	c #5A5A5A",
"m 	c #3B3B3A",
"n 	c #171817",
"o 	c #B8B9BC",
"p 	c #9FA0A2",
"q 	c #5E5E5F",
"r 	c #BABBBE",
"s 	c #69696A",
"t 	c #B7B8BB",
"u 	c #A09FA1",
"v 	c #6A6A6C",
"w 	c #9E9FA0",
"x 	c #5C5C5D",
"y 	c #B9BBBE",
"z 	c #5B5C5C",
"A 	c #6C6C6D",
"B 	c #B6B7BA",
"C 	c #6D6D6E",
"D 	c #59595A",
"E 	c #B5B7BA",
"F 	c #595959",
"G 	c #B8B9BB",
"H 	c #6E6E70",
"I 	c #B5B6B9",
"J 	c #575758",
"K 	c #9B9C9E",
"L 	c #565757",
"M 	c #706F71",
"N 	c #B4B5B8",
"O 	c #555656",
"P 	c #9A9B9C",
"Q 	c #707072",
"R 	c #555655",
"S 	c #9A9A9B",
"T 	c #727273",
"U 	c #999A9B",
"V 	c #B4B5B7",
"W 	c #535354",
"X 	c #B3B4B7",
"Y 	c #535454",
"Z 	c #737375",
"` 	c #525152",
" .	c #747475",
"..	c #B2B3B6",
"+.	c #98999A",
"@.	c #757476",
"#.	c #979899",
"$.	c #97989A",
"%.	c #515050",
"&.	c #B3B5B8",
"*.	c #B1B3B6",
"=.	c #989899",
"-.	c #4F5050",
";.	c #767778",
">.	c #969798",
",.	c #4F4F4F",
"'.	c #8A8A8B",
").	c #B6B7B9",
"!.	c #79797A",
"~.	c #979798",
"{.	c #959597",
"].	c #919293",
"^.	c #888889",
"/.	c #878788",
"(.	c #868686",
"_.	c #838384",
":.	c #7F7F81",
"    . . . . . . . . . . . . . . . . . . . . . . . . . . . . . . . . . . . . . . . . . . . .     ",
"  . . + + + + + + + + @ @ @ @ @ @ @ @ @ @ @ @ @ @ @ @ @ @ @ @ @ @ @ @ @ @ @ @ @ @ @ @ @ # $ %   ",
"  . & * = = = = = - ; > > , ' ' ' ' ' ' ) ! ! ! ! ! ! ! ! ! ! ! ! ! ! ! ! ! ! ! ! ! ! ! # $ %   ",
"  . ~ { ] ^ / / ( _ : < < < [ } | 1 2 3 4 5 6 7 8 9 0 a b c d e f g h h h h i j k l m n # $ %   ",
"  . ~ { ] ^ / / ( _ : < < < [ } | 1 2 3 4 5 6 7 8 9 0 a b c d e f g h h h h i j k l m n o p q   ",
"  . & { ] ^ / / ( _ : < < < [ } | 1 2 3 4 5 6 7 8 9 0 a b c d e f g h h h h i j k l m n # p q   ",
"  r ~ { ] ^ / / ( _ : < < < [ } | 1 2 3 4 5 6 7 8 9 0 a b c d e f g h h h h i j k l m n o p q   ",
"  r ~ s ] ^ / / ( _ : < < < [ } | 1 2 3 4 5 6 7 8 9 0 a b c d e f g h h h h i j k l m n o p q   ",
"  r ~ s ] ^ / / ( _ : < < < [ } | 1 2 3 4 5 6 7 8 9 0 a b c d e f g h h h h i j k l m n t u q   ",
"  r ~ v ] ^ / / ( _ : < < < [ } | 1 2 3 4 5 6 7 8 9 0 a b c d e f g h h h h i j k l m n o w x   ",
"  r ~ v ] ^ / / ( _ : < < < [ } | 1 2 3 4 5 6 7 8 9 0 a b c d e f g h h h h i j k l m n t w !   ",
"  y $ v ] ^ / / ( _ : < < < [ } | 1 2 3 4 5 6 7 8 9 0 a b c d e f g h h h h i j k l m n t w z   ",
"  # $ v ] ^ / / ( _ : < < < [ } | 1 2 3 4 5 6 7 8 9 0 a b c d e f g h h h h i j k l m n t w )   ",
"  # $ A ] ^ / / ( _ : < < < [ } | 1 2 3 4 5 6 7 8 9 0 a b c d e f g h h h h i j k l m n t w '   ",
"  # $ A ] ^ / / ( _ : < < < [ } | 1 2 3 4 5 6 7 8 9 0 a b c d e f g h h h h i j k l m n B * '   ",
"  # p A ] ^ / / ( _ : < < < [ } | 1 2 3 4 5 6 7 8 9 0 a b c d e f g h h h h i j k l m n B * ,   ",
"  o p C ] ^ / / ( _ : < < < [ } | 1 2 3 4 5 6 7 8 9 0 a b c d e f g h h h h i j k l m n B * D   ",
"  o p C ] ^ / / ( _ : < < < [ } | 1 2 3 4 5 6 7 8 9 0 a b c d e f g h h h h i j k l m n E * F   ",
"  o p C ] ^ / / ( _ : < < < [ } | 1 2 3 4 5 6 7 8 9 0 a b c d e f g h h h h i j k l m n B * F   ",
"  G p H ] ^ / / ( _ : < < < [ } | 1 2 3 4 5 6 7 8 9 0 a b c d e f g h h h h i j k l m n I * J   ",
"  t w H ] ^ / / ( _ : < < < [ } | 1 2 3 4 5 6 7 8 9 0 a b c d e f g h h h h i j k l m n I K J   ",
"  t w H ] ^ / / ( _ : < < < [ } | 1 2 3 4 5 6 7 8 9 0 a b c d e f g h h h h i j k l m n I K L   ",
"  t w M ] ^ / / ( _ : < < < [ } | 1 2 3 4 5 6 7 8 9 0 a b c d e f g h h h h i j k l m n N K O   ",
"  t w M ] ^ / / ( _ : < < < [ } | 1 2 3 4 5 6 7 8 9 0 a b c d e f g h h h h i j k l m n N P O   ",
"  B w M ] ^ / / ( _ : < < < [ } | 1 2 3 4 5 6 7 8 9 0 a b c d e f g h h h h i j k l m n N P O   ",
"  B * Q ] ^ / / ( _ : < < < [ } | 1 2 3 4 5 6 7 8 9 0 a b c d e f g h h h h i j k l m n N P R   ",
"  B * Q ] ^ / / ( _ : < < < [ } | 1 2 3 4 5 6 7 8 9 0 a b c d e f g h h h h i j k l m n N S ;   ",
"  B * T ] ^ / / ( _ : < < < [ } | 1 2 3 4 5 6 7 8 9 0 a b c d e f g h h h h i j k l m n N U ;   ",
"  B * Q ] ^ / / ( _ : < < < [ } | 1 2 3 4 5 6 7 8 9 0 a b c d e f g h h h h i j k l m n V U W   ",
"  I K T ] ^ / / ( _ : < < < [ } | 1 2 3 4 5 6 7 8 9 0 a b c d e f g h h h h i j k l m n X U Y   ",
"  B * T ] ^ / / ( _ : < < < [ } | 1 2 3 4 5 6 7 8 9 0 a b c d e f g h h h h i j k l m n X U =   ",
"  I K Z ] ^ / / ( _ : < < < [ } | 1 2 3 4 5 6 7 8 9 0 a b c d e f g h h h h i j k l m n X U =   ",
"  N K Z ] ^ / / ( _ : < < < [ } | 1 2 3 4 5 6 7 8 9 0 a b c d e f g h h h h i j k l m n X U `   ",
"  N K  .] ^ / / ( _ : < < < [ } | 1 2 3 4 5 6 7 8 9 0 a b c d e f g h h h h i j k l m n ..+.`   ",
"  N P @.] ^ / / ( _ : < < < [ } | 1 2 3 4 5 6 7 8 9 0 a b c d e f g h h h h i j k l m n ..+.`   ",
"  N P @.] ^ / / ( _ : < < < [ } | 1 2 3 4 5 6 7 8 9 0 a b c d e f g h h h h i j k l m n ..+.`   ",
"  N P @.] ^ / / ( _ : < < < [ } | 1 2 3 4 5 6 7 8 9 0 a b c d e f g h h h h i j k l m n ..#.`   ",
"  N P @.] ^ / / ( _ : < < < [ } | 1 2 3 4 5 6 7 8 9 0 a b c d e f g h h h h i j k l m n ..$.%.  ",
"  &.S @.] ^ / / ( _ : < < < [ } | 1 2 3 4 5 6 7 8 9 0 a b c d e f g h h h h i j k l m n *.=.-.  ",
"  X U ;.] ^ / / ( _ : < < < [ } | 1 2 3 4 5 6 7 8 9 0 a b c d e f g h h h h i j k l m n ..#.-.  ",
"  X U ;.] ^ / / ( _ : < < < [ } | 1 2 3 4 5 6 7 8 9 0 a b c d e f g h h h h i j k l m n ..#.-.  ",
"  X >.;.] ^ / / ( _ : < < < [ } | 1 2 3 4 5 6 7 8 9 0 a b c d e f g h h h h i j k l m n + #.,.  ",
"  X >.U ] ^ / / ( _ : < < < [ } | 1 2 3 4 5 6 7 8 9 0 a b c d e f g h h h h i j k l m n ..>.,.  ",
"  X '.#.X X X X X X X X X X X X X X X X X X X X X X X X X X X X X X X I # ).X X X X X X #.'.,.  ",
"  ,.!.'.+.+.+.+.$.=.+.#.#.#.#.#.#.#.#.>.>.>.>.>.>.>.>.>.>.>.>.>.>.>.>.>.>.>.>.>.>.>.>.>.'.!.,.  ",
"    ,.` ` ` ` ` %.-.%.,.,.,.,.,.,.,.,.,.,.,.,.,.,.,.,.,.,.,.,.,.,.,.,.,.,.,.,.,.,.,.,.,.,.,.    ",
"                        q '.~.{.{.].].].].].].].].].].].].].].].].].!.-.                        ",
"                          q ^./.(._._.:.!.!.!.!.!.!.!.!.!.!.!.!.!.!.,.                          ",
"                            ` ` ` = = -.-.-.-.-.-.-.-.-.-.-.-.-.-.-.                            "};
