/* XPM */
static char * inkg_er[] = {
"3 48 3 1",
" 	c None",
".	c #808080",
"+	c #000000",
"   ",
".  ",
"+. ",
"++.",
"++.",
"++.",
"++.",
"++.",
"++.",
"++.",
"++.",
"++.",
"++.",
"++.",
"++.",
"++.",
"++.",
"++.",
"++.",
"++.",
"++.",
"++.",
"++.",
"++.",
"++.",
"++.",
"++.",
"++.",
"++.",
"++.",
"++.",
"++.",
"++.",
"++.",
"++.",
"++.",
"++.",
"++.",
"++.",
"++.",
"++.",
"++.",
"++.",
"+..",
".  ",
".  ",
".  ",
"   "};
