/* XPM */
static char * Inkg26bb_xpm[] = {
"33 58 4 1",
" 	c None",
".	c #808080",
"+	c #FFFFFF",
"@	c #000000",
"    .........................    ",
"    .........................    ",
"    ..+++++++++++++++++++++..    ",
"    ..+++++++++++++++++++++..    ",
"    ..++@@@@@@@@@@@@@@@@@++..    ",
"    ..++@@@@@@@@@@@@@@@@@++..    ",
"    ..++@@@@@@@@@@@@@@@@@++..    ",
"    ..++@@@@@@@@@@@@@@@@@++..    ",
"    ..++@@@@@@@@@@@@@@@@@++..    ",
"    ..++@@@@@@@@@@@@@@@@@++..    ",
"    ..++@@@@@@@@@@@@@@@@@++..    ",
"    ..++@@@@@@@@@@@@@@@@@++..    ",
"    ..++@@@@@@@@@@@@@@@@@++..    ",
"    ..++@@@@@@@@@@@@@@@@@++..    ",
"    ..++@@@@@@@@@@@@@@@@@++..    ",
"    ..++@@@@@@@@@@@@@@@@@++..    ",
"    ..++@@@@@@@@@@@@@@@@@++..    ",
"    ..++@@@@@@@@@@@@@@@@@++..    ",
"    ..++@@@@@@@@@@@@@@@@@++..    ",
"    ..++@@@@@@@@@@@@@@@@@++..    ",
"    ..++@@@@@@@@@@@@@@@@@++..    ",
"    ..++@@@@@@@@@@@@@@@@@++..    ",
"    ..++@@@@@@@@@@@@@@@@@++..    ",
"    ..++@@@@@@@@@@@@@@@@@++..    ",
"    ..++@@@@@@@@@@@@@@@@@++..    ",
"    ..++@@@@@@@@@@@@@@@@@++..    ",
"    ..++@@@@@@@@@@@@@@@@@++..    ",
"    ..++@@@@@@@@@@@@@@@@@++..    ",
"    ..++@@@@@@@@@@@@@@@@@++..    ",
"    ..++@@@@@@@@@@@@@@@@@++..    ",
"    ..++@@@@@@@@@@@@@@@@@++..    ",
"    ..++@@@@@@@@@@@@@@@@@++..    ",
"    ..++@@@@@@@@@@@@@@@@@++..    ",
"    ..++@@@@@@@@@@@@@@@@@++..    ",
"    ..++@@@@@@@@@@@@@@@@@++..    ",
"    ..++@@@@@@@@@@@@@@@@@++..    ",
"    ..++@@@@@@@@@@@@@@@@@++..    ",
"    ..++@@@@@@@@@@@@@@@@@++..    ",
"    ..++@@@@@@@@@@@@@@@@@++..    ",
"    ..++@@@@@@@@@@@@@@@@@++..    ",
"    ..++@@@@@@@@@@@@@@@@@++..    ",
"    ..++@@@@@@@@@@@@@@@@@++..    ",
"    ..++@@@@@@@@@@@@@@@@@++..    ",
"    ..+++++++++++++++++++++..    ",
"    ..+++++++++++++++++++++..    ",
"    .........................    ",
"    .........................    ",
"                                 ",
"                                 ",
"                                 ",
"                                 ",
"  @@@@@   @@@@@  @@@@@  @@  @@   ",
"  @@  @@ @@   @@ @@  @@ @@ @@    ",
"  @@  @@ @@      @@  @@ @@@@     ",
"  @@@@@  @@ @@@@ @@@@@  @@@@     ",
"  @@     @@   @@ @@  @@ @@ @@    ",
"  @@     @@   @@ @@  @@ @@  @@   ",
"  @@      @@@@@@ @@@@@  @@   @@  "};
