/* XPM */
static char * Inkg26b_xpm[] = {
"49 61 5 1",
" 	c None",
".	c #808080",
"+	c #FFFFFF",
"@	c #010101",
"#	c #000000",
"    .........................................    ",
"    .........................................    ",
"    ..+++++++++++++++++++++++++++++++++++++..    ",
"    ..+++++++++++++++++++++++++++++++++++++..    ",
"    ..++@@@@@@@@@@@@@@@@@@@@@@@@@@@@@@@@@++..    ",
"    ..++@@@@@@@@@@@@@@@@@@@@@@@@@@@@@@@@@++..    ",
"    ..++@@@@@@@@@@@@@@@@@@@@@@@@@@@@@@@@@++..    ",
"    ..++@@@@@@@@@@@@@@@@@@@@@@@@@@@@@@@@@++..    ",
"    ..++@@@@@@@@@@@@@@@@@@@@@@@@@@@@@@@@@++..    ",
"    ..++@@@@@@@@@@@@@@@@@@@@@@@@@@@@@@@@@++..    ",
"    ..++@@@@@@@@@@@@@@@@@@@@@@@@@@@@@@@@@++..    ",
"    ..++@@@@@@@@@@@@@@@@@@@@@@@@@@@@@@@@@++..    ",
"    ..++@@@@@@@@@@@@@@@@@@@@@@@@@@@@@@@@@++..    ",
"    ..++@@@@@@@@@@@@@@@@@@@@@@@@@@@@@@@@@++..    ",
"    ..++@@@@@@@@@@@@@@@@@@@@@@@@@@@@@@@@@++..    ",
"    ..++@@@@@@@@@@@@@@@@@@@@@@@@@@@@@@@@@++..    ",
"    ..++@@@@@@@@@@@@@@@@@@@@@@@@@@@@@@@@@++..    ",
"    ..++@@@@@@@@@@@@@@@@@@@@@@@@@@@@@@@@@++..    ",
"    ..++@@@@@@@@@@@@@@@@@@@@@@@@@@@@@@@@@++..    ",
"    ..++@@@@@@@@@@@@@@@@@@@@@@@@@@@@@@@@@++..    ",
"    ..++@@@@@@@@@@@@@@@@@@@@@@@@@@@@@@@@@++..    ",
"    ..++@@@@@@@@@@@@@@@@@@@@@@@@@@@@@@@@@++..    ",
"    ..++@@@@@@@@@@@@@@@@@@@@@@@@@@@@@@@@@++..    ",
"    ..++@@@@@@@@@@@@@@@@@@@@@@@@@@@@@@@@@++..    ",
"    ..++@@@@@@@@@@@@@@@@@@@@@@@@@@@@@@@@@++..    ",
"    ..++@@@@@@@@@@@@@@@@@@@@@@@@@@@@@@@@@++..    ",
"    ..++@@@@@@@@@@@@@@@@@@@@@@@@@@@@@@@@@++..    ",
"    ..++@@@@@@@@@@@@@@@@@@@@@@@@@@@@@@@@@++..    ",
"    ..++@@@@@@@@@@@@@@@@@@@@@@@@@@@@@@@@@++..    ",
"    ..++@@@@@@@@@@@@@@@@@@@@@@@@@@@@@@@@@++..    ",
"    ..++@@@@@@@@@@@@@@@@@@@@@@@@@@@@@@@@@++..    ",
"    ..++@@@@@@@@@@@@@@@@@@@@@@@@@@@@@@@@@++..    ",
"    ..++@@@@@@@@@@@@@@@@@@@@@@@@@@@@@@@@@++..    ",
"    ..++@@@@@@@@@@@@@@@@@@@@@@@@@@@@@@@@@++..    ",
"    ..++@@@@@@@@@@@@@@@@@@@@@@@@@@@@@@@@@++..    ",
"    ..++@@@@@@@@@@@@@@@@@@@@@@@@@@@@@@@@@++..    ",
"    ..++@@@@@@@@@@@@@@@@@@@@@@@@@@@@@@@@@++..    ",
"    ..++@@@@@@@@@@@@@@@@@@@@@@@@@@@@@@@@@++..    ",
"    ..++@@@@@@@@@@@@@@@@@@@@@@@@@@@@@@@@@++..    ",
"    ..++@@@@@@@@@@@@@@@@@@@@@@@@@@@@@@@@@++..    ",
"    ..++@@@@@@@@@@@@@@@@@@@@@@@@@@@@@@@@@++..    ",
"    ..++@@@@@@@@@@@@@@@@@@@@@@@@@@@@@@@@@++..    ",
"    ..++@@@@@@@@@@@@@@@@@@@@@@@@@@@@@@@@@++..    ",
"    ..+++++++++++++++++++++++++++++++++++++..    ",
"    ..+++++++++++++++++++++++++++++++++++++..    ",
"    .........................................    ",
"    .........................................    ",
"                                                 ",
"                                                 ",
"                                                 ",
"                                                 ",
"      ########  ##                 ##            ",
"      ##     ## ##                 ##            ",
"      ##     ## ##                 ##            ",
"      ##     ## ##  #####   #####  ##  ##        ",
"      ########  ## ##   ## ##   ## ## ##         ",
"      ##     ## ##      ## ##      ####          ",
"      ##     ## ##  ###### ##      ####          ",
"      ##     ## ## ##   ## ##   ## ## ##         ",
"      ##     ## ## ##  ### ##   ## ##  ##        ",
"      ########  ##  ######  #####  ##   ##       "};
