/* XPM */
static char * Inkg26grd_bb_xpm[] = {
"17 4 3 1",
" 	c None",
".	c #D2D2D2",
"+	c #828282",
".................",
".................",
"+++++++++++++++++",
"+++++++++++++++++"};
