/* XPM */
static char * Inkg26ma_xpm[] = {
"27 58 5 1",
" 	c None",
".	c #808080",
"+	c #FFFFFF",
"@	c #FF00FF",
"#	c #000000",
"    ...................    ",
"    ...................    ",
"    ..+++++++++++++++..    ",
"    ..+++++++++++++++..    ",
"    ..++@@@@@@@@@@@++..    ",
"    ..++@@@@@@@@@@@++..    ",
"    ..++@@@@@@@@@@@++..    ",
"    ..++@@@@@@@@@@@++..    ",
"    ..++@@@@@@@@@@@++..    ",
"    ..++@@@@@@@@@@@++..    ",
"    ..++@@@@@@@@@@@++..    ",
"    ..++@@@@@@@@@@@++..    ",
"    ..++@@@@@@@@@@@++..    ",
"    ..++@@@@@@@@@@@++..    ",
"    ..++@@@@@@@@@@@++..    ",
"    ..++@@@@@@@@@@@++..    ",
"    ..++@@@@@@@@@@@++..    ",
"    ..++@@@@@@@@@@@++..    ",
"    ..++@@@@@@@@@@@++..    ",
"    ..++@@@@@@@@@@@++..    ",
"    ..++@@@@@@@@@@@++..    ",
"    ..++@@@@@@@@@@@++..    ",
"    ..++@@@@@@@@@@@++..    ",
"    ..++@@@@@@@@@@@++..    ",
"    ..++@@@@@@@@@@@++..    ",
"    ..++@@@@@@@@@@@++..    ",
"    ..++@@@@@@@@@@@++..    ",
"    ..++@@@@@@@@@@@++..    ",
"    ..++@@@@@@@@@@@++..    ",
"    ..++@@@@@@@@@@@++..    ",
"    ..++@@@@@@@@@@@++..    ",
"    ..++@@@@@@@@@@@++..    ",
"    ..++@@@@@@@@@@@++..    ",
"    ..++@@@@@@@@@@@++..    ",
"    ..++@@@@@@@@@@@++..    ",
"    ..++@@@@@@@@@@@++..    ",
"    ..++@@@@@@@@@@@++..    ",
"    ..++@@@@@@@@@@@++..    ",
"    ..++@@@@@@@@@@@++..    ",
"    ..++@@@@@@@@@@@++..    ",
"    ..++@@@@@@@@@@@++..    ",
"    ..++@@@@@@@@@@@++..    ",
"    ..++@@@@@@@@@@@++..    ",
"    ..+++++++++++++++..    ",
"    ..+++++++++++++++..    ",
"    ...................    ",
"    ...................    ",
"                           ",
"                           ",
"                           ",
"                           ",
"         ##    ##          ",
"         ###  ###          ",
"         ###  ###          ",
"         ########          ",
"         ########          ",
"         ## ## ##          ",
"         ## ## ##          "};
