/* XPM */
static char * Inkg26c_xpm[] = {
"49 61 7 1",
" 	c None",
".	c #808080",
"+	c #FFFFFF",
"@	c #00D8FB",
"#	c #FF00FF",
"$	c #FFE400",
"%	c #000000",
"    .........................................    ",
"    .........................................    ",
"    ..+++++++++++++++++++++++++++++++++++++..    ",
"    ..+++++++++++++++++++++++++++++++++++++..    ",
"    ..++@@@@@@@@@@@###########$$$$$$$$$$$++..    ",
"    ..++@@@@@@@@@@@###########$$$$$$$$$$$++..    ",
"    ..++@@@@@@@@@@@###########$$$$$$$$$$$++..    ",
"    ..++@@@@@@@@@@@###########$$$$$$$$$$$++..    ",
"    ..++@@@@@@@@@@@###########$$$$$$$$$$$++..    ",
"    ..++@@@@@@@@@@@###########$$$$$$$$$$$++..    ",
"    ..++@@@@@@@@@@@###########$$$$$$$$$$$++..    ",
"    ..++@@@@@@@@@@@###########$$$$$$$$$$$++..    ",
"    ..++@@@@@@@@@@@###########$$$$$$$$$$$++..    ",
"    ..++@@@@@@@@@@@###########$$$$$$$$$$$++..    ",
"    ..++@@@@@@@@@@@###########$$$$$$$$$$$++..    ",
"    ..++@@@@@@@@@@@###########$$$$$$$$$$$++..    ",
"    ..++@@@@@@@@@@@###########$$$$$$$$$$$++..    ",
"    ..++@@@@@@@@@@@###########$$$$$$$$$$$++..    ",
"    ..++@@@@@@@@@@@###########$$$$$$$$$$$++..    ",
"    ..++@@@@@@@@@@@###########$$$$$$$$$$$++..    ",
"    ..++@@@@@@@@@@@###########$$$$$$$$$$$++..    ",
"    ..++@@@@@@@@@@@###########$$$$$$$$$$$++..    ",
"    ..++@@@@@@@@@@@###########$$$$$$$$$$$++..    ",
"    ..++@@@@@@@@@@@###########$$$$$$$$$$$++..    ",
"    ..++@@@@@@@@@@@###########$$$$$$$$$$$++..    ",
"    ..++@@@@@@@@@@@###########$$$$$$$$$$$++..    ",
"    ..++@@@@@@@@@@@###########$$$$$$$$$$$++..    ",
"    ..++@@@@@@@@@@@###########$$$$$$$$$$$++..    ",
"    ..++@@@@@@@@@@@###########$$$$$$$$$$$++..    ",
"    ..++@@@@@@@@@@@###########$$$$$$$$$$$++..    ",
"    ..++@@@@@@@@@@@###########$$$$$$$$$$$++..    ",
"    ..++@@@@@@@@@@@###########$$$$$$$$$$$++..    ",
"    ..++@@@@@@@@@@@###########$$$$$$$$$$$++..    ",
"    ..++@@@@@@@@@@@###########$$$$$$$$$$$++..    ",
"    ..++@@@@@@@@@@@###########$$$$$$$$$$$++..    ",
"    ..++@@@@@@@@@@@###########$$$$$$$$$$$++..    ",
"    ..++@@@@@@@@@@@###########$$$$$$$$$$$++..    ",
"    ..++@@@@@@@@@@@###########$$$$$$$$$$$++..    ",
"    ..++@@@@@@@@@@@###########$$$$$$$$$$$++..    ",
"    ..++@@@@@@@@@@@###########$$$$$$$$$$$++..    ",
"    ..++@@@@@@@@@@@###########$$$$$$$$$$$++..    ",
"    ..++@@@@@@@@@@@###########$$$$$$$$$$$++..    ",
"    ..++@@@@@@@@@@@###########$$$$$$$$$$$++..    ",
"    ..+++++++++++++++++++++++++++++++++++++..    ",
"    ..+++++++++++++++++++++++++++++++++++++..    ",
"    .........................................    ",
"    .........................................    ",
"                                                 ",
"                                                 ",
"                                                 ",
"                                                 ",
"         %%%%%           %%                      ",
"        %%   %%          %%                      ",
"       %%     %%         %%                      ",
"       %%     %%  %%%%%  %%  %%%%%  %%%%%        ",
"       %%        %%   %% %% %%   %% %%%          ",
"       %%        %%   %% %% %%   %% %%           ",
"       %%     %% %%   %% %% %%   %% %%           ",
"       %%     %% %%   %% %% %%   %% %%           ",
"        %%   %%  %%   %% %% %%   %% %%           ",
"         %%%%%    %%%%%  %%  %%%%%  %%           "};
