/* XPM */
static char * Inkg26ye_xpm[] = {
"27 58 5 1",
" 	c None",
".	c #808080",
"+	c #FFFFFF",
"@	c #FFE400",
"#	c #000000",
"    ...................    ",
"    ...................    ",
"    ..+++++++++++++++..    ",
"    ..+++++++++++++++..    ",
"    ..++@@@@@@@@@@@++..    ",
"    ..++@@@@@@@@@@@++..    ",
"    ..++@@@@@@@@@@@++..    ",
"    ..++@@@@@@@@@@@++..    ",
"    ..++@@@@@@@@@@@++..    ",
"    ..++@@@@@@@@@@@++..    ",
"    ..++@@@@@@@@@@@++..    ",
"    ..++@@@@@@@@@@@++..    ",
"    ..++@@@@@@@@@@@++..    ",
"    ..++@@@@@@@@@@@++..    ",
"    ..++@@@@@@@@@@@++..    ",
"    ..++@@@@@@@@@@@++..    ",
"    ..++@@@@@@@@@@@++..    ",
"    ..++@@@@@@@@@@@++..    ",
"    ..++@@@@@@@@@@@++..    ",
"    ..++@@@@@@@@@@@++..    ",
"    ..++@@@@@@@@@@@++..    ",
"    ..++@@@@@@@@@@@++..    ",
"    ..++@@@@@@@@@@@++..    ",
"    ..++@@@@@@@@@@@++..    ",
"    ..++@@@@@@@@@@@++..    ",
"    ..++@@@@@@@@@@@++..    ",
"    ..++@@@@@@@@@@@++..    ",
"    ..++@@@@@@@@@@@++..    ",
"    ..++@@@@@@@@@@@++..    ",
"    ..++@@@@@@@@@@@++..    ",
"    ..++@@@@@@@@@@@++..    ",
"    ..++@@@@@@@@@@@++..    ",
"    ..++@@@@@@@@@@@++..    ",
"    ..++@@@@@@@@@@@++..    ",
"    ..++@@@@@@@@@@@++..    ",
"    ..++@@@@@@@@@@@++..    ",
"    ..++@@@@@@@@@@@++..    ",
"    ..++@@@@@@@@@@@++..    ",
"    ..++@@@@@@@@@@@++..    ",
"    ..++@@@@@@@@@@@++..    ",
"    ..++@@@@@@@@@@@++..    ",
"    ..++@@@@@@@@@@@++..    ",
"    ..++@@@@@@@@@@@++..    ",
"    ..+++++++++++++++..    ",
"    ..+++++++++++++++..    ",
"    ...................    ",
"    ...................    ",
"                           ",
"                           ",
"                           ",
"                           ",
"         ##    ##          ",
"          ##  ##           ",
"           ####            ",
"            ##             ",
"            ##             ",
"            ##             ",
"            ##             "};
