/* XPM */
static char * Inkg26gy_xpm[] = {
"27 58 5 1",
" 	c None",
".	c #808080",
"+	c #FFFFFF",
"@	c #F0F0F0",
"#	c #000000",
"    ...................    ",
"    ...................    ",
"    ..+++++++++++++++..    ",
"    ..+++++++++++++++..    ",
"    ..++...........++..    ",
"    ..++...........++..    ",
"    ..++...........++..    ",
"    ..++...........++..    ",
"    ..++...........++..    ",
"    ..++...........++..    ",
"    ..++...........++..    ",
"    ..++...........++..    ",
"    ..++...........++..    ",
"    ..++...........++..    ",
"    ..++...........++..    ",
"    ..++...........++..    ",
"    ..++...........++..    ",
"    ..++...........++..    ",
"    ..++...........++..    ",
"    ..++...........++..    ",
"    ..++...........++..    ",
"    ..++...........++..    ",
"    ..++...........++..    ",
"    ..++...........++..    ",
"    ..++...........++..    ",
"    ..++...........++..    ",
"    ..++...........++..    ",
"    ..++...........++..    ",
"    ..++...........++..    ",
"    ..++...........++..    ",
"    ..++...........++..    ",
"    ..++...........++..    ",
"    ..++...........++..    ",
"    ..++...........++..    ",
"    ..++...........++..    ",
"    ..++...........++..    ",
"    ..++...........++..    ",
"    ..++...........++..    ",
"    ..++...........++..    ",
"    ..++...........++..    ",
"    ..++...........++..    ",
"    ..++...........++..    ",
"    ..++...........++..    ",
"    ..+++++++++++++++..    ",
"    ..+++++++++++++++..    ",
"    ...................    ",
"    ...................    ",
"                           ",
"                           ",
"                           ",
"                           ",
"       ##### ##    ##      ",
"      ##   ## ##  ##       ",
"      ##       ####        ",
"      ## ####   ##         ",
"      ##   ##   ##         ",
"      ##   ##   ##         ",
"       ######   ##         "};
