/* XPM */
static char * Inkg26grd_ye_xpm[] = {
"11 4 3 1",
" 	c None",
".	c #FFF6A2",
"+	c #FFEF66",
"...........",
"...........",
"+++++++++++",
"+++++++++++"};
