/* XPM */
static char * Inkg26grd_c_xpm[] = {
"33 4 7 1",
" 	c None",
".	c #C5F8FF",
"+	c #FFD6FF",
"@	c #FFF6A2",
"#	c #6AEBFF",
"$	c #FF7EFF",
"%	c #FFEF66",
"...........+++++++++++@@@@@@@@@@@",
"...........+++++++++++@@@@@@@@@@@",
"###########$$$$$$$$$$$%%%%%%%%%%%",
"###########$$$$$$$$$$$%%%%%%%%%%%"};
