/* XPM */
static char * Inkg26grd_b_xpm[] = {
"33 4 3 1",
" 	c None",
".	c #D2D2D2",
"+	c #808080",
".................................",
".................................",
"+++++++++++++++++++++++++++++++++",
"+++++++++++++++++++++++++++++++++"};
