/* XPM */
static char * Inkg26sb_xpm[] = {
"27 58 4 1",
" 	c None",
".	c #808080",
"+	c #FFFFFF",
"@	c #000000",
"    ...................    ",
"    ...................    ",
"    ..+++++++++++++++..    ",
"    ..+++++++++++++++..    ",
"    ..++@@@@@@@@@@@++..    ",
"    ..++@@@@@@@@@@@++..    ",
"    ..++@@@@@@@@@@@++..    ",
"    ..++@@@@@@@@@@@++..    ",
"    ..++@@@@@@@@@@@++..    ",
"    ..++@@@@@@@@@@@++..    ",
"    ..++@@@@@@@@@@@++..    ",
"    ..++@@@@@@@@@@@++..    ",
"    ..++@@@@@@@@@@@++..    ",
"    ..++@@@@@@@@@@@++..    ",
"    ..++@@@@@@@@@@@++..    ",
"    ..++@@@@@@@@@@@++..    ",
"    ..++@@@@@@@@@@@++..    ",
"    ..++@@@@@@@@@@@++..    ",
"    ..++@@@@@@@@@@@++..    ",
"    ..++@@@@@@@@@@@++..    ",
"    ..++@@@@@@@@@@@++..    ",
"    ..++@@@@@@@@@@@++..    ",
"    ..++@@@@@@@@@@@++..    ",
"    ..++@@@@@@@@@@@++..    ",
"    ..++@@@@@@@@@@@++..    ",
"    ..++@@@@@@@@@@@++..    ",
"    ..++@@@@@@@@@@@++..    ",
"    ..++@@@@@@@@@@@++..    ",
"    ..++@@@@@@@@@@@++..    ",
"    ..++@@@@@@@@@@@++..    ",
"    ..++@@@@@@@@@@@++..    ",
"    ..++@@@@@@@@@@@++..    ",
"    ..++@@@@@@@@@@@++..    ",
"    ..++@@@@@@@@@@@++..    ",
"    ..++@@@@@@@@@@@++..    ",
"    ..++@@@@@@@@@@@++..    ",
"    ..++@@@@@@@@@@@++..    ",
"    ..++@@@@@@@@@@@++..    ",
"    ..++@@@@@@@@@@@++..    ",
"    ..++@@@@@@@@@@@++..    ",
"    ..++@@@@@@@@@@@++..    ",
"    ..++@@@@@@@@@@@++..    ",
"    ..++@@@@@@@@@@@++..    ",
"    ..+++++++++++++++..    ",
"    ..+++++++++++++++..    ",
"    ...................    ",
"    ...................    ",
"                           ",
"                           ",
"                           ",
"                           ",
"      @@@@@  @@  @@        ",
"      @@  @@ @@ @@         ",
"      @@  @@ @@@@          ",
"      @@@@@  @@@@          ",
"      @@  @@ @@ @@         ",
"      @@  @@ @@  @@        ",
"      @@@@@  @@   @@       "};
