/* XPM */
static char * Inkg26cy_xpm[] = {
"27 58 5 1",
" 	c None",
".	c #808080",
"+	c #FFFFFF",
"@	c #00D8FB",
"#	c #000000",
"    ...................    ",
"    ...................    ",
"    ..+++++++++++++++..    ",
"    ..+++++++++++++++..    ",
"    ..++@@@@@@@@@@@++..    ",
"    ..++@@@@@@@@@@@++..    ",
"    ..++@@@@@@@@@@@++..    ",
"    ..++@@@@@@@@@@@++..    ",
"    ..++@@@@@@@@@@@++..    ",
"    ..++@@@@@@@@@@@++..    ",
"    ..++@@@@@@@@@@@++..    ",
"    ..++@@@@@@@@@@@++..    ",
"    ..++@@@@@@@@@@@++..    ",
"    ..++@@@@@@@@@@@++..    ",
"    ..++@@@@@@@@@@@++..    ",
"    ..++@@@@@@@@@@@++..    ",
"    ..++@@@@@@@@@@@++..    ",
"    ..++@@@@@@@@@@@++..    ",
"    ..++@@@@@@@@@@@++..    ",
"    ..++@@@@@@@@@@@++..    ",
"    ..++@@@@@@@@@@@++..    ",
"    ..++@@@@@@@@@@@++..    ",
"    ..++@@@@@@@@@@@++..    ",
"    ..++@@@@@@@@@@@++..    ",
"    ..++@@@@@@@@@@@++..    ",
"    ..++@@@@@@@@@@@++..    ",
"    ..++@@@@@@@@@@@++..    ",
"    ..++@@@@@@@@@@@++..    ",
"    ..++@@@@@@@@@@@++..    ",
"    ..++@@@@@@@@@@@++..    ",
"    ..++@@@@@@@@@@@++..    ",
"    ..++@@@@@@@@@@@++..    ",
"    ..++@@@@@@@@@@@++..    ",
"    ..++@@@@@@@@@@@++..    ",
"    ..++@@@@@@@@@@@++..    ",
"    ..++@@@@@@@@@@@++..    ",
"    ..++@@@@@@@@@@@++..    ",
"    ..++@@@@@@@@@@@++..    ",
"    ..++@@@@@@@@@@@++..    ",
"    ..++@@@@@@@@@@@++..    ",
"    ..++@@@@@@@@@@@++..    ",
"    ..++@@@@@@@@@@@++..    ",
"    ..++@@@@@@@@@@@++..    ",
"    ..+++++++++++++++..    ",
"    ..+++++++++++++++..    ",
"    ...................    ",
"    ...................    ",
"                           ",
"                           ",
"                           ",
"                           ",
"           #####           ",
"          ##   ##          ",
"          ##   ##          ",
"          ##               ",
"          ##   ##          ",
"          ##   ##          ",
"           #####           "};
